<svg xmlns="http://www.w3.org/2000/svg" viewBox="0 0 189.47 189.47">
	<defs>
		<style>
			.cls-1{isolation:isolate;}.cls-2{fill:#f2d0a7;}.cls-3,.cls-4{fill:#9f2925;}.cls-4{opacity:0.6;}.cls-12,.cls-21,.cls-25,.cls-27,.cls-4,.cls-5,.cls-6,.cls-9{mix-blend-mode:multiply;}.cls-5,.cls-6{fill:#f4ba92;}.cls-6{opacity:0.4;}.cls-7{fill:#f4d9bf;}.cls-8,.cls-9{fill:#ec4c54;}.cls-10{fill:#474747;}.cls-11{fill:#232323;}.cls-12{fill:#7a3a00;}.cls-13{fill:#fff;}.cls-14{fill:#b5c0c6;}.cls-15{fill:#8a9397;}.cls-16{fill:#efcaa6;}.cls-17{fill:#c39368;}.cls-18{fill:#eaae7d;}.cls-19{fill:#474746;}.cls-20{fill:#e7363a;}.cls-21{opacity:0.7;}.cls-22{fill:#ccd8df;}.cls-23{fill:#a02d33;}.cls-24,.cls-25{fill:#313130;}.cls-26,.cls-27{fill:#4a4a49;}.cls-28{fill:#572a09;}.cls-29{fill:#686868;}.cls-30{fill:#bb9958;}.cls-31{fill:#e2e2e2;}.cls-32{fill:#c3c3c2;}.cls-33{fill:#edba2c;}.cls-34{fill:#e58f22;}.cls-35{fill:#b87d29;}.cls-36{fill:#995e1a;}.cls-37{fill:#895116;}.cls-38{fill:#7d4619;}
		</style>
	</defs>
	<g class="cls-1">
		<g id="Layer_1" data-name="Layer 1">
			<rect class="cls-2" width="189.47" height="189.47" rx="22" />
			<path class="cls-3" d="M166.34,23.62a6.14,6.14,0,0,0,3.11,4.44c2.73,1.36,8.77.27,9.67-4a24.66,24.66,0,0,0-.48-4.88c-.48-1.82-2.25-5.9-2.25-5.9l-8.13,1.11S165.68,19.94,166.34,23.62Z" />
			<path class="cls-4" d="M178.36,17.35a36.86,36.86,0,0,0-2.14-4.12l-7.75.77s-2.46,3.91-1.83,6.48a3.17,3.17,0,0,0,.33.89,10.34,10.34,0,0,1,1-4.14c0-.05.13-.12.18-.06A7.41,7.41,0,0,0,169.75,19c.06,0,0,.14-.05.17a6.27,6.27,0,0,0-2.14,2.55c-.05.09-.1.2-.15.3a4.84,4.84,0,0,0,2.19,1.53c2.09.76,6.22.43,8.2-1.3a8.85,8.85,0,0,0-2.84-3.1c-.06-.05,0-.14,0-.17a5.14,5.14,0,0,0,2-1.41s.13-.09.16,0a10.08,10.08,0,0,1,1.34,4,2.8,2.8,0,0,0,.34-.75A12.54,12.54,0,0,0,178.36,17.35Z" />
			<path class="cls-5" d="M180.13,29.58s-.21-.8-.3-.7l-1,.29c.07.23.21.73.22.79a5.89,5.89,0,0,0-.42.92c-.13.4-.12.85,0,.93s.32-.57.58-.82a8.84,8.84,0,0,1,.16,1.18c0,.31,0,.58.18.53s.34-.52.19-1.66c0,0,.18.57.33,1.14s.46.47.34-.13-.26-1.18-.26-1.18a4.13,4.13,0,0,1,.42.92c.12.45.4.55.36,0a3.84,3.84,0,0,0-.26-1,5.29,5.29,0,0,0,.49.8c.18.23.39.24.13-.41A2.62,2.62,0,0,0,180.13,29.58Z" />
			<path class="cls-6" d="M178.75,30.51c.59-.2,1.16-.45,1.74-.69a1.41,1.41,0,0,0-.36-.24s-.21-.8-.3-.7l-1,.29c.07.23.21.73.22.79S178.88,30.22,178.75,30.51Z" />
			<path class="cls-5" d="M165.37,29.58s.21-.8.3-.7l1,.29c-.07.23-.22.73-.22.79a5.89,5.89,0,0,1,.42.92c.12.4.11.85,0,.93s-.31-.57-.57-.82a8.84,8.84,0,0,0-.16,1.18c0,.31,0,.58-.19.53s-.34-.52-.19-1.66c0,0-.18.57-.33,1.14s-.45.47-.34-.13.26-1.18.26-1.18a3.84,3.84,0,0,0-.41.92c-.12.45-.4.55-.36,0a3.84,3.84,0,0,1,.26-1,4.88,4.88,0,0,1-.5.8c-.17.23-.38.24-.13-.41A2.67,2.67,0,0,1,165.37,29.58Z" />
			<path class="cls-6" d="M166.6,30.21c-.07-.15-.13-.25-.13-.25s.15-.56.22-.79l-1-.29c-.09-.1-.3.7-.3.7a1.63,1.63,0,0,0-.38.24C165.52,30,166.07,30.08,166.6,30.21Z" />
			<path class="cls-7" d="M172.24,40.34c-.08-2.35-.18-6.11-.18-6.11l-1.51-.33.3,6.45A13.12,13.12,0,0,0,172.24,40.34Z" />
			<path class="cls-8" d="M172.24,40.34a13.12,13.12,0,0,1-1.39,0l.1,2.12h0a.57.57,0,0,1,.65.46,2.56,2.56,0,0,0,.74-.06c0-.28,0-.58-.05-.9S172.26,41.07,172.24,40.34Z" />
			<path class="cls-9" d="M172.31,42c0-.31-.05-.9-.07-1.63l-.4,0a3.36,3.36,0,0,1,.06,1.37.79.79,0,0,1-.32.51,1.16,1.16,0,0,1-.64.13v.1h0a.57.57,0,0,1,.65.46,2.56,2.56,0,0,0,.74-.06C172.35,42.59,172.33,42.29,172.31,42Z" />
			<path class="cls-10" d="M170.15,44.83a5.67,5.67,0,0,1-2.44-.41c0,.42.44.61,1.83.66s2.76-.36,2.85-.62c0,0,0-.05,0-.07A5.27,5.27,0,0,1,170.15,44.83Z" />
			<path class="cls-11" d="M170.15,44.83a5.27,5.27,0,0,0,2.25-.44,8.35,8.35,0,0,0,0-1.52,2.56,2.56,0,0,1-.74.06.57.57,0,0,0-.65-.46h0a.87.87,0,0,0-.56.37c-.29.24-.63.26-1.82.54a1,1,0,0,0-.86,1v0A5.67,5.67,0,0,0,170.15,44.83Z" />
			<path class="cls-12" d="M172.41,43.54c0-.2,0-.42,0-.67a2.56,2.56,0,0,1-.74.06.57.57,0,0,0-.65-.46h0a.87.87,0,0,0-.56.37,1.86,1.86,0,0,1-.82.31A11.42,11.42,0,0,0,172.41,43.54Z" />
			<path class="cls-7" d="M174,40.34c.08-2.35.18-6.11.18-6.11l1.51-.33-.3,6.45A13.12,13.12,0,0,1,174,40.34Z" />
			<path class="cls-8" d="M174,40.34a13.12,13.12,0,0,0,1.39,0l-.1,2.12h0a.57.57,0,0,0-.65.46,2.56,2.56,0,0,1-.74-.06c0-.28,0-.58,0-.9S173.93,41.07,174,40.34Z" />
			<path class="cls-9" d="M173.88,42c0-.31.05-.9.07-1.63l.4,0a3.36,3.36,0,0,0-.06,1.37.76.76,0,0,0,.32.51,1.16,1.16,0,0,0,.64.13v.1h0a.57.57,0,0,0-.65.46,2.56,2.56,0,0,1-.74-.06C173.84,42.59,173.86,42.29,173.88,42Z" />
			<path class="cls-10" d="M176,44.83a5.67,5.67,0,0,0,2.44-.41c0,.42-.44.61-1.84.66s-2.75-.36-2.84-.62c0,0,0-.05,0-.07A5.27,5.27,0,0,0,176,44.83Z" />
			<path class="cls-11" d="M176,44.83a5.27,5.27,0,0,1-2.25-.44,8.35,8.35,0,0,1,0-1.52,2.56,2.56,0,0,0,.74.06.57.57,0,0,1,.65-.46h0a.87.87,0,0,1,.56.37c.29.24.63.26,1.82.54a1,1,0,0,1,.86,1v0A5.67,5.67,0,0,1,176,44.83Z" />
			<path class="cls-12" d="M173.92,43.52a18.64,18.64,0,0,0,2.89-.31,2.38,2.38,0,0,1-1-.36.87.87,0,0,0-.56-.37h0a.57.57,0,0,0-.65.46,2.56,2.56,0,0,1-.74-.06c0,.24,0,.46-.05.66Z" />
			<path class="cls-13" d="M178.53,29.9l2.55-.87a18.43,18.43,0,0,0-2.48-5.68,8.57,8.57,0,0,0-3-3.28,6.58,6.58,0,0,0-4-.61c-2.5.28-4.46,3.76-4.46,3.76s-1.34,1.6-2.43,6l2.58.77A21.9,21.9,0,0,1,168.75,25,95.57,95.57,0,0,0,167,42.19a18,18,0,0,0,10.91.3,12.15,12.15,0,0,0,1.38-.44,96.59,96.59,0,0,0-2.46-17.15A22.25,22.25,0,0,1,178.53,29.9Z" />
			<path class="cls-14" d="M170.94,18.74l-.15.92a4,4,0,0,0,3.43-.09l-.17-.86-1.35.16-.21.17-.15-.16Z" />
			<path class="cls-15" d="M172.58,19.33a.91.91,0,0,1,.24-.48l-.12,0-.21.17-.15-.16h-.11a2.23,2.23,0,0,1,.3,1.14h.07A3,3,0,0,1,172.58,19.33Z" />
			<path class="cls-16" d="M177.66,14.85c-.36-.19-.61.08-.8.29v0a1,1,0,0,0-.23.86c.05.28.26.42.62.34a.91.91,0,0,0,.64-.79C177.94,15.35,178,15,177.66,14.85Z" />
			<path class="cls-17" d="M177.54,15.46c-.1-.12-.29-.06-.41,0l-.16.13-.06.07s0,.05,0,.07,0,0,0,0,0,0,0,0a1.31,1.31,0,0,1,.12-.11.39.39,0,0,1,.39-.08S177.56,15.49,177.54,15.46Z" />
			<path class="cls-16" d="M168.59,15.37c0-.19,0-.48-.16-.64l-.14-.07a.49.49,0,0,0-.73.07,1,1,0,0,0,.4,1.16C168.47,16.18,168.6,15.66,168.59,15.37Z" />
			<path class="cls-17" d="M168.26,15.06a.38.38,0,0,0-.41,0,0,0,0,0,0,0,.07c.11,0,.2,0,.3,0a.5.5,0,0,1,.21.25s0,0,0,0A.39.39,0,0,0,168.26,15.06Z" />
			<path class="cls-18" d="M177.28,11.33l-4.52.07-4.52-.07c0,.46.08,2.56.09,3a8.22,8.22,0,0,0,.08,1.4,3.07,3.07,0,0,0,.26.88,4.51,4.51,0,0,0,2.12,2,3.42,3.42,0,0,0,1.11.34,6.5,6.5,0,0,0,1.4,0l.32,0a3.48,3.48,0,0,0,1.12-.34,4.44,4.44,0,0,0,2.11-2,3.09,3.09,0,0,0,.27-.88,9.39,9.39,0,0,0,.08-1.4C177.21,13.89,177.32,11.79,177.28,11.33Z" />
			<path class="cls-19" d="M175,16.83c-.4-.87-1.24-1-2.08-.88s-1.8-.29-2.51.21a1.76,1.76,0,0,0-.58.74,3,3,0,0,0-.15.42c0,.08-.12.48-.05.54a4.72,4.72,0,0,0,.86.6,2.05,2.05,0,0,1,0-1.34c.25-.75,1.09-.63,1.72-.59s1.05-.2,1.57,0,.65.92.54,1.44a3.54,3.54,0,0,1-.34,1,3.92,3.92,0,0,0,.77-.28l.51-.28,0-.16A3.4,3.4,0,0,0,175,16.83Z" />
			<path class="cls-20" d="M177,10.63a3.23,3.23,0,0,0-.54-.82A5,5,0,0,0,174,8.3a4.8,4.8,0,0,0-3.66.35,5.12,5.12,0,0,0-1.55,1.42,6.48,6.48,0,0,0-1,2.81c-.36,2.95-2.13,4.7-1.11,7.76l.07-.23a10.48,10.48,0,0,1,1.05-3.27,22.1,22.1,0,0,0,1.45-4.57h6.57a19.22,19.22,0,0,0,1.53,4.2,16,16,0,0,1,1.42,3.66l.06.33a8.78,8.78,0,0,0-.15-3.25,33.08,33.08,0,0,1-1.21-4.9A5.74,5.74,0,0,0,177,10.63Z" />
			<path class="cls-15" d="M172.34,23.32a1.44,1.44,0,0,1,.67,0l-.25-.09L172.59,20h-.08l.11,3.13A.47.47,0,0,0,172.34,23.32Z" />
			<g class="cls-21">
				<path class="cls-22" d="M180.22,29.32l.86-.29a18.43,18.43,0,0,0-2.48-5.68,8.57,8.57,0,0,0-3-3.28l-.36-.2C178.05,22.1,179.77,27.68,180.22,29.32Z" />
				<path class="cls-22" d="M166.16,29.69l1.1.33a22.68,22.68,0,0,1,1.4-4.86c.32-1,.81-2.82.81-2.82C167.55,24.29,166.5,28.23,166.16,29.69Z" />
				<path class="cls-22" d="M176.61,42.82c.43-.09.87-.2,1.3-.33a12.15,12.15,0,0,0,1.38-.44,96.59,96.59,0,0,0-2.46-17.15,15.64,15.64,0,0,0-1.45-3.17S177.17,34.92,176.61,42.82Z" />
			</g>
			<path class="cls-23" d="M178.66,17.51a33.08,33.08,0,0,1-1.21-4.9,5.74,5.74,0,0,0-.45-2,3.23,3.23,0,0,0-.54-.82A5,5,0,0,0,174,8.3a5.24,5.24,0,0,0-2.49-.1,4.19,4.19,0,0,1,.5,0,5.54,5.54,0,0,1,2.08.75c.13.07,1.09.69.69.87a.73.73,0,0,1-.33,0h-.53c-.45,0-.9,0-1.35,0-.89.06-1.76.2-2.64.34a7.29,7.29,0,0,0-1.46.38,6.77,6.77,0,0,0-.55,1.37c.2,0,.52-.1.64.08a.81.81,0,0,1,0,.41c0,.22,0,.43,0,.64a6.7,6.7,0,0,1-.38,1.59c-.63,1.71-1.7,3.39-1.71,5.21a5.32,5.32,0,0,0,.2.73l.07-.23a10.48,10.48,0,0,1,1.05-3.27,22.1,22.1,0,0,0,1.45-4.57h6.57a19.22,19.22,0,0,0,1.53,4.2,16,16,0,0,1,1.42,3.66l.06.33A8.78,8.78,0,0,0,178.66,17.51Zm-3.44-5.31a13.27,13.27,0,0,1-1.89,0l-1.94,0-1,.05c-.23,0-.45.06-.68.07a.33.33,0,0,1-.33-.1c-.05-.07,0-.2,0-.3,0-.31.46-.42.71-.48a7.79,7.79,0,0,1,1.93-.09,12.79,12.79,0,0,1,2.14.28c.34.08.9.17,1.11.49C175.3,12.16,175.25,12.2,175.22,12.2Zm3,6.2A19.57,19.57,0,0,0,177,15.49a24.37,24.37,0,0,1-1-3.15v0l0-.07s.08-.1.09-.05a7.83,7.83,0,0,0,.72,1.52,14.87,14.87,0,0,1,.68,1.39,8.56,8.56,0,0,1,.82,3.24S178.28,18.45,178.26,18.4Z" />
			<path class="cls-20" d="M169.34,10.92a7.39,7.39,0,0,0-1.15,2.41s6.68-.56,8.9,0a10,10,0,0,0-1.16-2.43C175.3,10.1,170,10.39,169.34,10.92Z" />
			<path class="cls-23" d="M176,10.83c-.64-.85-6-.54-6.68,0a5.92,5.92,0,0,0-.52.86l.43-.06a10.32,10.32,0,0,1,2.22-.14,8.45,8.45,0,0,1,2.27.39c.38.13,1,.29,1.18.73,0,0,0,.08-.07.08a16,16,0,0,0-3.52.14,18.92,18.92,0,0,0-2.8.52c1.4-.11,6.72-.49,8.66,0A11,11,0,0,0,176,10.83Z" />
			<path class="cls-24" d="M168.45,10.29s-.19-.18.09-.34a29.47,29.47,0,0,1,4.55-.26c2.11-.09,3.92.14,3.88.58,0,0-.05.12-.16.08S174.34,9.73,168.45,10.29Z" />
			<path class="cls-25" d="M176.09,9.82h0a.9.9,0,0,1-.53.12c-.44,0-.87,0-1.31,0s-.92,0-1.38,0c-1.46.06-3.09-.17-4.43.36h0c5.89-.56,8.26-.09,8.36.06s.16-.08.16-.08C177,10.09,176.65,9.92,176.09,9.82Z" />
			<path class="cls-26" d="M168.73,10.15s-.39,0-.48.3,0,.42.42.31a23.63,23.63,0,0,1,3.94-.4c1.67,0,4,.37,4.24.28s.16-.29-.1-.38S174,9.78,168.73,10.15Z" />
			<path class="cls-27" d="M176.75,10.26a16.63,16.63,0,0,0-5-.26h.06c.53,0,1.07,0,1.6.06l.75.07a1.85,1.85,0,0,1,.48.08s0,.06,0,.06c-1,0-2,.07-3,.13.33,0,.65,0,1,0,1.67,0,4,.37,4.24.28S177,10.35,176.75,10.26Z" />
			<path class="cls-27" d="M168.51,10.79l.16,0a23.11,23.11,0,0,1,2.92-.36A20.11,20.11,0,0,0,168.51,10.79Z" />
			<path class="cls-28" d="M116.38,95.92c-.31-.8-.51-1.59-.77-2.43a4.74,4.74,0,0,1-.12-2.1,5.72,5.72,0,0,0-.3-2.15,12.57,12.57,0,0,0-.59-1.43,10.67,10.67,0,0,0-2.67-3.75c-1.05-.79-2.21-1.17-3-2.36a2.67,2.67,0,0,0-2-1.58c-1.35-.44-2.2,0-3.59.4a4.31,4.31,0,0,1-2.86,0c-.41-.16-.82-.39-1.27-.55A2.84,2.84,0,0,0,96,81.21c-.75.94-1.27,2-2,2.87A33,33,0,0,1,90.85,87a3.8,3.8,0,0,1-1.27.86,8.76,8.76,0,0,1-3.15.28,5.07,5.07,0,0,1-2.9-1.87c-1.09-1.28-1.33-3.47-2.71-4.49l.08,0c.1-.15.33-.59.13-.72s-.78.14-.87.26l.5.31a4,4,0,0,0-.55-.24,3.44,3.44,0,0,0,0-.78c-.19-.28-.74.26-.83.43a1.17,1.17,0,0,0-.13.37v-.24c-.92-.08-1.74.42-2.66.35a5.67,5.67,0,0,0-1.3-.11,3.47,3.47,0,0,0-1.29.44.9.9,0,0,0-.46.53.79.79,0,0,1-.12.3c-.12.15-.28.22-.37.42-.17.37,0,.51.28.54l-.05,0c0,.42,1.08.42,1.33.41s.5-.08.71,0,.3.28.47.38a1.78,1.78,0,0,0,.75.29l.58.07a3.1,3.1,0,0,1,.61,0c.22.08.29.28.4.48a.65.65,0,0,0,.26.44,6.63,6.63,0,0,1,2.13,2.48,7.81,7.81,0,0,0,1.44,1.79,10.54,10.54,0,0,0,1,.89,16.41,16.41,0,0,0,1.57,1,12.29,12.29,0,0,0,6.31,1.18l.25-.05a9.41,9.41,0,0,0,.78,1.29,1.64,1.64,0,0,1,.11,1.72c-.17.42-.72,2.09-.94,2.89a17.82,17.82,0,0,1-.78,1.86,11.43,11.43,0,0,0-1.07,2.37,24,24,0,0,1-.43,2.47c-.35.86-.89,1.66-1.31,2.47,0,.06-.1.16-.18.27-.2.32-.46.79-.36,1s1.18.15,1.43,0a2.34,2.34,0,0,0,.66-1.24c.18-.64.29-1.35.43-1.71a5.77,5.77,0,0,1,1.45-2.65c.88-.73,1-1.57,1.29-2.7a16.51,16.51,0,0,1,1-2.46,8.37,8.37,0,0,1,1.51-1.93l.4-.28a5.49,5.49,0,0,1,1.46,2.34c.66,2.42,1.66,4.57,2.08,7a12.39,12.39,0,0,1,.13,1.74,2.31,2.31,0,0,1-.16.79,2.25,2.25,0,0,0-.15.76c0,.55.68.24,1.26.21s.54-.07.41-.74c0-.14,0-.28-.07-.42-.17-1-.3-1.93-.38-3s.25-2.18.15-3.23c-.24-2-2-3.83-1.88-5.86a2.08,2.08,0,0,1,.23-1l.08-.23a11.18,11.18,0,0,0,4.11-.56c1.7-.46,4.18-1.62,6-1.68a2,2,0,0,1,.65.1,7.22,7.22,0,0,0,1.17,5.64c1.39,1.9,1.87,3.24.91,5.57-.55,1.34-.67,1.91-1,2.85a3.57,3.57,0,0,1-.65.88,2.47,2.47,0,0,0-.33.41c-.41.62-.38.59.31.69s1,.25,1.27-.38a3.45,3.45,0,0,0,.18-.57,3.3,3.3,0,0,1,.25-.75,19.25,19.25,0,0,0,1.22-2.59c.31-.86.59-1.15.87-2l0,.76a12.48,12.48,0,0,1-.31,3.22,10.66,10.66,0,0,1-.57,1.54,3,3,0,0,0-.3,1.29,9.66,9.66,0,0,0,1.14.13c.55,0,.46.12.55-.45,0-.34.06-.68.07-1a11.86,11.86,0,0,1,.13-1.67,15.05,15.05,0,0,1,1-3.15c.35-.82-.14-1.79-.29-2.62-.61-2.57,0-5.26.08-7.84l.15-.84.16.33a7.11,7.11,0,0,1,.41,2.74,3.06,3.06,0,0,0,.12,1.56c.21.64.71,1.11.76,1.77C116.36,97.39,116.79,96.89,116.38,95.92Z" />
			<path class="cls-29" d="M177.33,178.56a17.78,17.78,0,0,0,2-.38,14.24,14.24,0,0,1-5.58-1.27H175c-.95-.33-2.57-2.86-3.58-4.59-.64-2-2.42-4.06-4.51-5.9a15,15,0,0,1-4.26-5.51l.59.22-1.15-1.31.55.13a12.12,12.12,0,0,1-1.26-2.11,1.25,1.25,0,0,0,1,.12.24.24,0,0,0,.15-.32l-1.14-3.19s.31-2.32-.59-3a6.18,6.18,0,0,1-1.3-3.58.81.81,0,0,0-.13-.78c-.22-.2-.67-.47-1,0-.3.2-.73.48-.85.81a.26.26,0,0,0,0,.16l-.17.15.17.06c-.08.6-.48.57-.75.48l0-.18-.28.07h0a.08.08,0,0,0-.13,0c-.19.14-.58.47-.52.86a3.15,3.15,0,0,1,0,2.91l-1.58,1.75-.81.47.91.11-1.37,1.12,1.12-.4-.78,1.54.92-.88s-.86,1.64-.73,5.41,2.23,6.6,2.31,7.36-.61,2.08-.47,3.68a8.36,8.36,0,0,1-1.13,4.1c-1.21-.31-1.63.22-1.77.63l0,.07a.69.69,0,0,0,0,.13.35.35,0,0,0,.34.46H155a.5.5,0,0,0,.41.78c.54,0,1.45,0,2.62,0a.51.51,0,0,0,.47-.41,20.44,20.44,0,0,1,1.6-4.22s.42-.12,1.9,1c.14.76.93,1.23,1.15,1.49s.08.43.08.43a3,3,0,0,0-1.52-.13.54.54,0,0,0,.1,1.05h1.53a.68.68,0,0,0-.47.15.48.48,0,0,0,.35.82h5.88c1.12,0,1.45-.24,1.91-2.39a21.24,21.24,0,0,1,1.29,3.86l.11-.91c.2,1,2,2,2,2l-.5-1s.25.51,2,.56,3.79-1.58,5.42.45C181.63,179.39,178.71,178.75,177.33,178.56Zm-19.6-30.22a2.88,2.88,0,0,1,.06.45l-.21.19.19.05c0,.15-.12.26-.29.25a1,1,0,0,1-.34-.09l.06-.17-.2.08a.62.62,0,0,1-.16-.22A.61.61,0,0,0,157.73,148.34Zm-1,29.12a1.41,1.41,0,0,0-1-.17,20,20,0,0,0,2-4.88A22.86,22.86,0,0,1,156.76,177.46Z" />
			<path class="cls-30" d="M24.49,21.75a1.19,1.19,0,1,1-1.19-1.19A1.2,1.2,0,0,1,24.49,21.75Z" />
			<path class="cls-30" d="M21.74,27.67h1.4s1.27-3.69,3.55-4.4a13,13,0,0,1,5.5,0c-.84-2.71-3.5-3.21-7.11-2.39H22.85Z" />
			<polygon class="cls-31" points="29.92 34.78 30.68 36.56 30.68 38.98 32.82 43.08 35.34 43.08 35.34 34.78 29.92 34.78" />
			<polygon class="cls-32" points="40.76 34.78 39.99 36.56 39.99 38.98 37.85 43.08 35.34 43.08 35.34 34.78 40.76 34.78" />
			<polygon class="cls-33" points="30.68 38.98 32.15 36.6 33.96 36.6 35.34 38.98 35.34 34.78 29.92 34.78 30.68 36.56 30.68 38.98" />
			<polygon class="cls-34" points="39.99 38.98 38.52 36.6 36.71 36.6 35.34 38.98 35.34 34.78 40.76 34.78 39.99 36.56 39.99 38.98" />
			<path class="cls-35" d="M19.72,16.7H19s-2.7,1.69-2.79,3.86h3.53Z" />
			<path class="cls-36" d="M19.72,16.7h.73s2.71,1.69,2.8,3.86H19.72Z" />
			<rect class="cls-30" x="18.98" y="13.75" width="1.46" height="2.95" />
			<path class="cls-37" d="M21,14.33a1.23,1.23,0,1,1-1.23-1.23A1.24,1.24,0,0,1,21,14.33Z" />
			<rect class="cls-36" x="19.53" y="12" width="0.38" height="1.11" />
			<path class="cls-33" d="M20.44,10.86c0,1.26-.32,1.79-.72,1.79S19,12.12,19,10.86a7.8,7.8,0,0,1,.73-2.77A7.88,7.88,0,0,1,20.44,10.86Z" />
			<path class="cls-36" d="M9.54,30.42a10.59,10.59,0,0,1-1.31-3.21A5.63,5.63,0,0,1,10,21.63c2.15-1.88,7.22-.88,7.43-.84l-.2,1c-1.33-.27-5.1-.68-6.57.61-3.2,2.8-.3,7.47-.27,7.51Zm7.69-8.65h0l.1-.49Z" />
			<path class="cls-30" d="M16.19,20.56S18.41,33.28,11,37.39h8.77V20.56Z" />
			<path class="cls-35" d="M23.3,20.56s-2.22,12.72,5.22,16.83H19.74V20.56Z" />
			<path class="cls-35" d="M11,37.39c.17,2.13,2.18,4.78,8.77,4.78V37.39Z" />
			<path class="cls-36" d="M28.52,37.39c-.44,5.43-9.4,4.78-8.78,4.78V37.39Z" />
			<path class="cls-35" d="M19.74,41.61H17a.81.81,0,0,0,0,1.62h2.75Z" />
			<path class="cls-36" d="M19.74,41.61h2.75a.81.81,0,1,1,0,1.62H19.74Z" />
			<path class="cls-33" d="M10.65,29.39,8.83,30.55c4,4.09,1.75,6.63,1,7C13.72,37.5,13,32.29,10.65,29.39Z" />
			<path class="cls-38" d="M32.1,35.78a.41.41,0,0,1-.41.42.42.42,0,0,1-.42-.42.41.41,0,0,1,.42-.41A.41.41,0,0,1,32.1,35.78Z" />
			<path class="cls-38" d="M33.56,35.78a.41.41,0,0,1-.41.42.42.42,0,0,1-.42-.42.41.41,0,0,1,.42-.41A.41.41,0,0,1,33.56,35.78Z" />
			<path class="cls-38" d="M35,35.78a.42.42,0,1,1-.83,0,.42.42,0,0,1,.83,0Z" />
			<path class="cls-38" d="M36.48,35.78a.42.42,0,1,1-.83,0,.42.42,0,0,1,.83,0Z" />
			<path class="cls-38" d="M37.94,35.78a.42.42,0,1,1-.83,0,.42.42,0,0,1,.83,0Z" />
			<path class="cls-38" d="M39.4,35.78a.42.42,0,1,1-.83,0,.42.42,0,0,1,.83,0Z" />
		</g>
	</g>
</svg>
