<svg xmlns="http://www.w3.org/2000/svg" viewBox="0 0 189.47 189.47">
	<defs>
		<style>
			.cls-1{isolation:isolate;}.cls-2{fill:#f2d0a7;}.cls-3,.cls-4{fill:#9f2925;}.cls-4{opacity:0.6;}.cls-12,.cls-21,.cls-25,.cls-27,.cls-4,.cls-5,.cls-6,.cls-9{mix-blend-mode:multiply;}.cls-5,.cls-6{fill:#f4ba92;}.cls-6{opacity:0.4;}.cls-7{fill:#f4d9bf;}.cls-8,.cls-9{fill:#ec4c54;}.cls-10{fill:#474747;}.cls-11{fill:#232323;}.cls-12{fill:#7a3a00;}.cls-13{fill:#fff;}.cls-14{fill:#b5c0c6;}.cls-15{fill:#8a9397;}.cls-16{fill:#efcaa6;}.cls-17{fill:#c39368;}.cls-18{fill:#eaae7d;}.cls-19{fill:#474746;}.cls-20{fill:#e7363a;}.cls-21{opacity:0.7;}.cls-22{fill:#ccd8df;}.cls-23{fill:#a02d33;}.cls-24,.cls-25{fill:#313130;}.cls-26,.cls-27{fill:#4a4a49;}.cls-28{fill:#572a09;}.cls-29{fill:#686868;}
		</style>
	</defs>
	<g class="cls-1">
		<g id="Layer_1" data-name="Layer 1">
			<rect class="cls-2" width="189.47" height="189.47" rx="22" />
			<path class="cls-3" d="M10.31,23.62a6.12,6.12,0,0,0,3.1,4.43c2.74,1.37,8.77.28,9.67-4a24.29,24.29,0,0,0-.47-4.88c-.48-1.82-2.25-5.9-2.25-5.9l-8.13,1.11S9.64,19.93,10.31,23.62Z" />
			<path class="cls-4" d="M22.33,17.35a38.22,38.22,0,0,0-2.15-4.12L12.44,14S10,17.91,10.61,20.48a3.17,3.17,0,0,0,.33.89,10.3,10.3,0,0,1,1-4.14c0-.05.13-.13.17-.06A7.42,7.42,0,0,0,13.72,19c.06,0,0,.14-.05.16a6.33,6.33,0,0,0-2.14,2.55l-.16.31a4.84,4.84,0,0,0,2.19,1.53c2.1.76,6.22.43,8.21-1.3a8.85,8.85,0,0,0-2.84-3.1c-.07-.05,0-.14.05-.17a5.21,5.21,0,0,0,2-1.41s.12-.09.16,0a10,10,0,0,1,1.34,4,3.15,3.15,0,0,0,.34-.75A12.54,12.54,0,0,0,22.33,17.35Z" />
			<path class="cls-5" d="M24.09,29.58s-.21-.8-.3-.7l-1,.29c.07.23.22.73.23.79a6,6,0,0,0-.43.92c-.12.4-.11.85,0,.93s.32-.57.58-.82a9.27,9.27,0,0,1,.15,1.18c0,.31,0,.58.19.53s.34-.52.19-1.66c0,0,.18.57.33,1.14s.46.47.34-.14-.26-1.17-.26-1.17a3.84,3.84,0,0,1,.41.92c.13.45.41.55.36,0a3.72,3.72,0,0,0-.26-1,4.88,4.88,0,0,0,.5.8c.18.22.38.24.13-.41A2.63,2.63,0,0,0,24.09,29.58Z" />
			<path class="cls-6" d="M22.72,30.51c.59-.2,1.16-.45,1.74-.7a1.54,1.54,0,0,0-.37-.23s-.21-.8-.3-.7l-1,.29c.07.23.22.73.23.79S22.85,30.22,22.72,30.51Z" />
			<path class="cls-5" d="M9.34,29.58s.2-.8.3-.7l1,.29c-.08.23-.22.73-.23.79a6,6,0,0,1,.43.92c.12.4.11.85,0,.93s-.32-.57-.58-.82a10.93,10.93,0,0,0-.16,1.18c0,.31,0,.58-.18.53s-.34-.52-.19-1.66c0,0-.18.57-.33,1.14s-.46.47-.34-.14.26-1.17.26-1.17a3.84,3.84,0,0,0-.41.92c-.13.45-.41.55-.37,0a3.56,3.56,0,0,1,.27-1,5.8,5.8,0,0,1-.5.8c-.18.22-.39.24-.13-.41A2.59,2.59,0,0,1,9.34,29.58Z" />
			<path class="cls-6" d="M10.57,30.21,10.43,30c0-.06.15-.56.23-.79l-1-.29c-.1-.1-.3.7-.3.7a1.63,1.63,0,0,0-.38.24C9.49,30,10,30.08,10.57,30.21Z" />
			<path class="cls-7" d="M16.2,40.34C16.12,38,16,34.22,16,34.22l-1.5-.33.3,6.46A12.93,12.93,0,0,0,16.2,40.34Z" />
			<path class="cls-8" d="M16.2,40.34a12.93,12.93,0,0,1-1.38,0l.09,2.12h0a.55.55,0,0,1,.64.46,2.64,2.64,0,0,0,.75-.06q0-.42-.06-.9C16.25,41.66,16.23,41.07,16.2,40.34Z" />
			<path class="cls-9" d="M16.27,42c0-.31,0-.9-.07-1.63l-.39,0a3.54,3.54,0,0,1,0,1.37.76.76,0,0,1-.32.51,1.14,1.14,0,0,1-.63.13v.1h0a.55.55,0,0,1,.64.46,2.64,2.64,0,0,0,.75-.06Q16.3,42.45,16.27,42Z" />
			<path class="cls-10" d="M14.11,44.83a5.62,5.62,0,0,1-2.43-.41c0,.42.43.61,1.83.66s2.75-.36,2.84-.63c0,0,0,0,0-.06A5.45,5.45,0,0,1,14.11,44.83Z" />
			<path class="cls-11" d="M14.11,44.83a5.45,5.45,0,0,0,2.26-.44,9.43,9.43,0,0,0,0-1.52,2.64,2.64,0,0,1-.75.06.55.55,0,0,0-.64-.46h0a.9.9,0,0,0-.55.38c-.29.24-.63.26-1.82.54a1,1,0,0,0-.86,1v0A5.62,5.62,0,0,0,14.11,44.83Z" />
			<path class="cls-12" d="M16.37,43.54c0-.2,0-.42,0-.67a2.64,2.64,0,0,1-.75.06.55.55,0,0,0-.64-.46h0a.9.9,0,0,0-.55.38,1.91,1.91,0,0,1-.83.31A11.49,11.49,0,0,0,16.37,43.54Z" />
			<path class="cls-7" d="M17.92,40.34c.08-2.36.18-6.12.18-6.12l1.5-.33-.29,6.46A13.11,13.11,0,0,1,17.92,40.34Z" />
			<path class="cls-8" d="M17.92,40.34a13.11,13.11,0,0,0,1.39,0l-.1,2.12h0a.55.55,0,0,0-.64.46,2.64,2.64,0,0,1-.75-.06q0-.42.06-.9C17.87,41.66,17.89,41.07,17.92,40.34Z" />
			<path class="cls-9" d="M17.85,42c0-.31,0-.9.07-1.63l.39,0a3.54,3.54,0,0,0,0,1.37.76.76,0,0,0,.32.51,1.14,1.14,0,0,0,.63.13v.1h0a.55.55,0,0,0-.64.46,2.64,2.64,0,0,1-.75-.06Q17.82,42.45,17.85,42Z" />
			<path class="cls-10" d="M20,44.83a5.62,5.62,0,0,0,2.43-.41c0,.42-.43.61-1.83.66s-2.75-.36-2.84-.63c0,0,0,0,0-.06A5.54,5.54,0,0,0,20,44.83Z" />
			<path class="cls-11" d="M20,44.83a5.54,5.54,0,0,1-2.26-.44,9.43,9.43,0,0,1,0-1.52,2.64,2.64,0,0,0,.75.06.55.55,0,0,1,.64-.46h0a.94.94,0,0,1,.56.38c.28.24.63.26,1.81.54a1,1,0,0,1,.87,1v0A5.62,5.62,0,0,1,20,44.83Z" />
			<path class="cls-12" d="M17.89,43.52a18.64,18.64,0,0,0,2.89-.31,2.27,2.27,0,0,1-1-.36.94.94,0,0,0-.56-.38h0a.55.55,0,0,0-.64.46,2.64,2.64,0,0,1-.75-.06c0,.24,0,.46,0,.66Z" />
			<path class="cls-13" d="M22.5,29.9,25.05,29a19,19,0,0,0-2.48-5.68,8.58,8.58,0,0,0-3-3.28,6.58,6.58,0,0,0-4-.61c-2.5.28-4.46,3.76-4.46,3.76s-1.34,1.6-2.44,6l2.59.77A21.9,21.9,0,0,1,12.72,25,96.09,96.09,0,0,0,11,42.19a18,18,0,0,0,10.92.3,11.46,11.46,0,0,0,1.37-.44A96.05,96.05,0,0,0,20.8,24.9,22.25,22.25,0,0,1,22.5,29.9Z" />
			<path class="cls-14" d="M14.91,18.73l-.16.93a4,4,0,0,0,3.43-.09L18,18.71l-1.34.16-.21.17-.15-.16Z" />
			<path class="cls-15" d="M16.55,19.33a.85.85,0,0,1,.24-.48l-.12,0-.21.17-.15-.16H16.2A2.34,2.34,0,0,1,16.5,20h.07A2.53,2.53,0,0,1,16.55,19.33Z" />
			<path class="cls-16" d="M21.63,14.85c-.36-.19-.61.08-.8.29v0a1,1,0,0,0-.23.86c.05.28.27.42.63.34a.91.91,0,0,0,.63-.79A.61.61,0,0,0,21.63,14.85Z" />
			<path class="cls-17" d="M21.5,15.45c-.09-.11-.29,0-.4,0a.7.7,0,0,0-.16.13s-.05,0-.06.07a.64.64,0,0,0,0,.07s0,0,0,0,0,0,0,0a.43.43,0,0,1,.12-.11.37.37,0,0,1,.38-.08S21.53,15.49,21.5,15.45Z" />
			<path class="cls-16" d="M12.55,15.37c0-.2,0-.48-.16-.64a.74.74,0,0,0-.13-.08.49.49,0,0,0-.73.08,1,1,0,0,0,.4,1.16C12.44,16.18,12.57,15.66,12.55,15.37Z" />
			<path class="cls-17" d="M12.22,15.06a.38.38,0,0,0-.41,0s0,.08,0,.07.21,0,.31,0a.41.41,0,0,1,.2.25s.05,0,.05,0S12.33,15.14,12.22,15.06Z" />
			<path class="cls-18" d="M21.25,11.33l-4.52.06-4.52-.06c0,.46.07,2.56.08,3a9.53,9.53,0,0,0,.08,1.41,3.09,3.09,0,0,0,.27.88,4.44,4.44,0,0,0,2.11,2,3.4,3.4,0,0,0,1.12.34,6.49,6.49,0,0,0,1.4,0l.32,0a3.42,3.42,0,0,0,1.11-.34,4.51,4.51,0,0,0,2.12-2,3.07,3.07,0,0,0,.26-.88,8.34,8.34,0,0,0,.08-1.41C21.17,13.89,21.28,11.79,21.25,11.33Z" />
			<path class="cls-19" d="M19,16.83c-.39-.87-1.23-1-2.08-.88s-1.8-.29-2.51.21a1.85,1.85,0,0,0-.58.74,1.88,1.88,0,0,0-.14.42c0,.08-.12.48-.05.54a6.48,6.48,0,0,0,.85.6,2.05,2.05,0,0,1,0-1.34c.25-.75,1.09-.63,1.71-.59s1.05-.2,1.58,0,.64.91.54,1.44a3.56,3.56,0,0,1-.35,1,3.5,3.5,0,0,0,.77-.28c.18-.09.35-.18.51-.28a.75.75,0,0,1,0-.16A3.59,3.59,0,0,0,19,16.83Z" />
			<path class="cls-20" d="M21,10.62a3.69,3.69,0,0,0-.54-.81A5,5,0,0,0,18,8.3a4.75,4.75,0,0,0-3.66.35,5,5,0,0,0-1.55,1.42,6.57,6.57,0,0,0-1,2.81c-.35,2.95-2.13,4.7-1.11,7.76l.07-.23a10.48,10.48,0,0,1,1.05-3.27,21.47,21.47,0,0,0,1.45-4.57h6.58a18.61,18.61,0,0,0,1.53,4.2,16,16,0,0,1,1.42,3.66l.06.33a8.92,8.92,0,0,0-.16-3.25,34.71,34.71,0,0,1-1.21-4.9A5.85,5.85,0,0,0,21,10.62Z" />
			<path class="cls-15" d="M16.31,23.32a1.44,1.44,0,0,1,.67,0l-.25-.09L16.56,20h-.08l.1,3.13A.46.46,0,0,0,16.31,23.32Z" />
			<g class="cls-21">
				<path class="cls-22" d="M24.19,29.32l.86-.29a19,19,0,0,0-2.48-5.68,8.58,8.58,0,0,0-3-3.28c-.12-.07-.24-.14-.37-.2C22,22.1,23.73,27.68,24.19,29.32Z" />
				<path class="cls-22" d="M10.12,29.69l1.11.33a22.89,22.89,0,0,1,1.39-4.86c.33-1,.81-2.82.81-2.82C11.52,24.29,10.46,28.23,10.12,29.69Z" />
				<path class="cls-22" d="M20.58,42.82c.43-.09.86-.2,1.3-.33a11.46,11.46,0,0,0,1.37-.44A96.05,96.05,0,0,0,20.8,24.9a15.64,15.64,0,0,0-1.45-3.17S21.13,34.92,20.58,42.82Z" />
			</g>
			<path class="cls-23" d="M22.62,17.51a34.71,34.71,0,0,1-1.21-4.9,5.85,5.85,0,0,0-.44-2,3.69,3.69,0,0,0-.54-.81A5,5,0,0,0,18,8.3a5.29,5.29,0,0,0-2.5-.1,4.07,4.07,0,0,1,.5,0A5.42,5.42,0,0,1,18.08,9c.13.07,1.08.69.69.87a.79.79,0,0,1-.34,0h-.52c-.46,0-.91,0-1.36,0-.88.06-1.76.2-2.63.34a7.29,7.29,0,0,0-1.46.38A6.77,6.77,0,0,0,11.91,12c.19,0,.51-.1.63.08s0,.3,0,.41,0,.43,0,.64a7.23,7.23,0,0,1-.38,1.59c-.63,1.71-1.7,3.39-1.71,5.21a7.16,7.16,0,0,0,.19.73l.07-.23a10.48,10.48,0,0,1,1.05-3.27,21.47,21.47,0,0,0,1.45-4.57h6.58a18.61,18.61,0,0,0,1.53,4.2,16,16,0,0,1,1.42,3.66l.06.33A8.92,8.92,0,0,0,22.62,17.51ZM19.18,12.2a13.11,13.11,0,0,1-1.88,0c-.65,0-1.3,0-1.94,0l-1.06.05c-.23,0-.45.06-.68.07a.33.33,0,0,1-.33-.1c0-.07,0-.2.05-.3,0-.31.47-.42.72-.48A7.71,7.71,0,0,1,16,11.35a11.83,11.83,0,0,1,2.14.28c.34.08.91.17,1.12.49C19.26,12.15,19.22,12.19,19.18,12.2Zm3.05,6.2A20.68,20.68,0,0,0,21,15.49a22.9,22.9,0,0,1-1-3.15v0l0-.07s.08-.1.1-.05a7.83,7.83,0,0,0,.72,1.52c.25.45.47.91.68,1.39a8.52,8.52,0,0,1,.82,3.24S22.24,18.45,22.23,18.4Z" />
			<path class="cls-20" d="M13.3,10.92a7.5,7.5,0,0,0-1.14,2.41s6.67-.56,8.9,0A10,10,0,0,0,19.9,10.9C19.27,10.1,14,10.39,13.3,10.92Z" />
			<path class="cls-23" d="M20,10.83c-.63-.85-6-.54-6.68,0a7.33,7.33,0,0,0-.51.87l.42-.06a10.36,10.36,0,0,1,2.22-.14,8.31,8.31,0,0,1,2.27.39c.38.12,1,.29,1.19.73,0,0,0,.08-.08.08a15.88,15.88,0,0,0-3.51.14,18,18,0,0,0-2.81.52c1.41-.11,6.72-.49,8.67,0A10.72,10.72,0,0,0,20,10.83Z" />
			<path class="cls-24" d="M12.42,10.29s-.19-.18.09-.34a29.18,29.18,0,0,1,4.54-.26c2.11-.09,3.93.14,3.88.58a.12.12,0,0,1-.15.08C20.68,10.2,18.3,9.73,12.42,10.29Z" />
			<path class="cls-25" d="M20.05,9.82h0a1,1,0,0,1-.53.12c-.44,0-.87,0-1.3,0s-.92,0-1.38,0c-1.46.06-3.09-.17-4.43.36h0c5.88-.56,8.26-.09,8.36.06a.12.12,0,0,0,.15-.08C21,10.09,20.62,9.92,20.05,9.82Z" />
			<path class="cls-26" d="M12.69,10.14s-.38,0-.48.31,0,.42.42.31a24.5,24.5,0,0,1,3.94-.41c1.68,0,4,.38,4.25.29s.16-.29-.1-.38S18,9.77,12.69,10.14Z" />
			<path class="cls-27" d="M20.72,10.26c-.21-.13-1.77-.38-5-.26h.07c.53,0,1.07,0,1.59.06l.76.07a2,2,0,0,1,.48.08s0,.06,0,.06c-1,0-2,.06-3,.12l1,0c1.68,0,4,.38,4.25.29S21,10.35,20.72,10.26Z" />
			<path class="cls-27" d="M12.48,10.79l.15,0a23.43,23.43,0,0,1,2.93-.36A19.8,19.8,0,0,0,12.48,10.79Z" />
			<path class="cls-28" d="M181.2,24.14c-.31-.8-.51-1.59-.78-2.43a4.6,4.6,0,0,1-.11-2.1,5.89,5.89,0,0,0-.3-2.15,11.8,11.8,0,0,0-.59-1.43,10.8,10.8,0,0,0-2.67-3.75c-1.05-.79-2.21-1.17-2.95-2.36a2.69,2.69,0,0,0-2-1.58c-1.35-.44-2.2,0-3.59.39a4.22,4.22,0,0,1-2.87,0c-.41-.15-.81-.38-1.26-.54a2.83,2.83,0,0,0-3.24,1.2c-.75.94-1.27,2-2,2.87a31.79,31.79,0,0,1-3.21,2.91,3.77,3.77,0,0,1-1.27.85,8.56,8.56,0,0,1-3.15.29,5.07,5.07,0,0,1-2.9-1.87C147.26,13.2,147,11,145.64,10l.08,0c.1-.15.33-.59.13-.72s-.79.14-.87.26l.5.31a4,4,0,0,0-.55-.24,3.44,3.44,0,0,0,0-.78c-.2-.28-.74.26-.83.43a1.54,1.54,0,0,0-.14.37V9.43c-.92-.08-1.73.42-2.65.35a5.67,5.67,0,0,0-1.3-.11,3.47,3.47,0,0,0-1.29.44.92.92,0,0,0-.47.52.82.82,0,0,1-.11.31c-.12.15-.28.22-.37.42-.17.37,0,.51.28.54l-.05,0c0,.41,1.08.42,1.33.41s.5-.08.71,0,.3.28.47.38a1.73,1.73,0,0,0,.75.29l.58.07a3,3,0,0,1,.6,0c.23.08.3.28.41.48a.65.65,0,0,0,.26.44,6.56,6.56,0,0,1,2.13,2.48,7.81,7.81,0,0,0,1.44,1.79,9.46,9.46,0,0,0,1,.89,17.62,17.62,0,0,0,1.56,1,12.35,12.35,0,0,0,6.32,1.18l.25,0a8.51,8.51,0,0,0,.78,1.29,1.64,1.64,0,0,1,.11,1.72c-.17.42-.72,2.08-.94,2.88A16.18,16.18,0,0,1,155,29.1,11.75,11.75,0,0,0,154,31.48a24,24,0,0,1-.43,2.47c-.35.86-.89,1.66-1.31,2.47,0,.06-.1.16-.18.27-.2.32-.46.78-.37,1s1.19.15,1.44,0a2.27,2.27,0,0,0,.65-1.25c.18-.64.3-1.34.44-1.7a5.75,5.75,0,0,1,1.44-2.65c.88-.73,1-1.57,1.3-2.7a16.51,16.51,0,0,1,1-2.46A8.24,8.24,0,0,1,159.45,25l.4-.27A5.43,5.43,0,0,1,161.31,27c.66,2.42,1.66,4.57,2.08,7a14.1,14.1,0,0,1,.13,1.74,2.57,2.57,0,0,1-.16.79,2,2,0,0,0-.15.76c0,.55.68.24,1.26.21s.54-.07.41-.74c0-.14,0-.28-.07-.42-.17-1-.3-1.93-.38-3s.25-2.18.15-3.23c-.24-2-2-3.83-1.88-5.87a2.05,2.05,0,0,1,.23-.95l.07-.23a11.12,11.12,0,0,0,4.11-.56c1.71-.46,4.19-1.62,6-1.68a1.67,1.67,0,0,1,.64.1,7.27,7.27,0,0,0,1.18,5.64c1.39,1.9,1.87,3.24.91,5.57-.55,1.34-.67,1.91-1,2.84a3.49,3.49,0,0,1-.66.89,3,3,0,0,0-.32.41c-.41.62-.38.59.3.69s1,.25,1.28-.38a3.45,3.45,0,0,0,.18-.57,3.3,3.3,0,0,1,.25-.75,19.21,19.21,0,0,0,1.21-2.59c.32-.86.6-1.16.87-2l.06.76a12.81,12.81,0,0,1-.31,3.21,10.78,10.78,0,0,1-.57,1.55,3.21,3.21,0,0,0-.31,1.29c.31,0,.8.13,1.15.13.55,0,.45.12.55-.45,0-.34.06-.68.07-1a11.86,11.86,0,0,1,.13-1.67,15.05,15.05,0,0,1,1-3.15c.35-.82-.14-1.8-.29-2.62-.61-2.57,0-5.26.08-7.84l.15-.84.15.33a7.13,7.13,0,0,1,.42,2.74,3.07,3.07,0,0,0,.12,1.56c.21.64.71,1.11.76,1.77C181.18,25.61,181.61,25.11,181.2,24.14Z" />
			<path class="cls-28" d="M181.2,167.71c-.31-.81-.51-1.6-.78-2.44a4.57,4.57,0,0,1-.11-2.09A6,6,0,0,0,180,161a12.57,12.57,0,0,0-.59-1.43,10.8,10.8,0,0,0-2.67-3.75c-1.05-.79-2.21-1.17-2.95-2.36a2.69,2.69,0,0,0-2-1.58c-1.35-.44-2.2,0-3.59.4a4.34,4.34,0,0,1-2.87,0c-.41-.16-.81-.39-1.26-.55a2.84,2.84,0,0,0-3.24,1.2c-.75.94-1.27,2-2,2.87a30.64,30.64,0,0,1-3.21,2.91,3.91,3.91,0,0,1-1.27.86,8.78,8.78,0,0,1-3.15.28,5.07,5.07,0,0,1-2.9-1.87c-1.09-1.28-1.34-3.47-2.71-4.48l.08.05c.1-.15.33-.6.13-.73s-.79.14-.87.26l.5.31a4,4,0,0,0-.55-.24,3.44,3.44,0,0,0,0-.78c-.2-.28-.74.27-.83.43a1.54,1.54,0,0,0-.14.37V153c-.92-.08-1.73.42-2.65.35a5.67,5.67,0,0,0-1.3-.11,3.49,3.49,0,0,0-1.29.45.87.87,0,0,0-.47.52c0,.12,0,.2-.11.3s-.28.22-.37.42c-.17.37,0,.51.28.54l-.05,0c0,.42,1.08.42,1.33.41s.5-.08.71,0,.3.27.47.37a1.73,1.73,0,0,0,.75.29l.58.07a3,3,0,0,1,.6,0c.23.08.3.29.41.48a.65.65,0,0,0,.26.44,6.63,6.63,0,0,1,2.13,2.48,7.81,7.81,0,0,0,1.44,1.79,9.46,9.46,0,0,0,1,.89c.49.32,1,.78,1.56,1A12.41,12.41,0,0,0,155.6,165l.25-.05a8.51,8.51,0,0,0,.78,1.29,1.64,1.64,0,0,1,.11,1.72c-.17.42-.72,2.09-.94,2.89a17.82,17.82,0,0,1-.78,1.86A11.43,11.43,0,0,0,154,175a24,24,0,0,1-.43,2.47c-.35.86-.89,1.66-1.31,2.47l-.18.28c-.2.32-.46.78-.37,1s1.19.15,1.44,0a2.27,2.27,0,0,0,.65-1.24c.18-.64.3-1.35.44-1.71a5.8,5.8,0,0,1,1.44-2.65c.88-.73,1-1.57,1.3-2.7a16,16,0,0,1,1-2.45,8,8,0,0,1,1.51-1.94l.4-.28a5.49,5.49,0,0,1,1.46,2.34c.66,2.42,1.66,4.58,2.08,7a14.1,14.1,0,0,1,.13,1.74,2.52,2.52,0,0,1-.16.79,2,2,0,0,0-.15.77c0,.54.68.23,1.26.21s.54-.08.41-.75c0-.14,0-.28-.07-.42-.17-1-.3-1.92-.38-2.95s.25-2.18.15-3.23c-.24-2-2-3.82-1.88-5.86a2.08,2.08,0,0,1,.23-1l.07-.23a10.92,10.92,0,0,0,4.11-.56c1.71-.46,4.19-1.61,6-1.68a1.92,1.92,0,0,1,.64.1,7.26,7.26,0,0,0,1.18,5.64c1.39,1.9,1.87,3.24.91,5.57-.55,1.34-.67,1.91-1,2.85a3.62,3.62,0,0,1-.66.88,3.11,3.11,0,0,0-.32.42c-.41.61-.38.58.3.68s1,.25,1.28-.38a3.65,3.65,0,0,0,.18-.56,3,3,0,0,1,.25-.75,19.93,19.93,0,0,0,1.21-2.6c.32-.86.6-1.15.87-2l.06.76a12.94,12.94,0,0,1-.31,3.22,10.66,10.66,0,0,1-.57,1.54,3.25,3.25,0,0,0-.31,1.29,10.09,10.09,0,0,0,1.15.13c.55,0,.45.12.55-.45,0-.34.06-.67.07-1a12,12,0,0,1,.13-1.67,15.05,15.05,0,0,1,1-3.15c.35-.82-.14-1.79-.29-2.62-.61-2.57,0-5.26.08-7.84l.15-.84.15.33a7.16,7.16,0,0,1,.42,2.74,3.06,3.06,0,0,0,.12,1.56c.21.64.71,1.11.76,1.77C181.18,169.17,181.61,168.67,181.2,167.71Z" />
			<path class="cls-29" d="M105.16,109.17a17.45,17.45,0,0,0,2-.37,14.31,14.31,0,0,1-5.59-1.27h1.22c-1-.33-2.57-2.86-3.59-4.59-.64-2-2.41-4.06-4.51-5.9a15.2,15.2,0,0,1-4.26-5.51l.6.21-1.16-1.3.55.12a12.08,12.08,0,0,1-1.25-2.1,1.29,1.29,0,0,0,1,.12.25.25,0,0,0,.15-.32l-1.14-3.19s.31-2.32-.59-3a6,6,0,0,1-1.3-3.57.81.81,0,0,0-.13-.78c-.22-.2-.68-.48-1,0a2.26,2.26,0,0,0-.85.8.43.43,0,0,0,0,.16l-.17.16.17.06c-.08.6-.48.57-.75.47l0-.17-.28.07h0a.08.08,0,0,0-.13,0c-.19.14-.58.46-.52.86a3.15,3.15,0,0,1,0,2.91l-1.59,1.75-.81.46.92.12-1.37,1.12L82,86l-.79,1.55.93-.88s-.86,1.64-.73,5.41,2.23,6.6,2.31,7.36-.61,2.07-.47,3.68a8.38,8.38,0,0,1-1.14,4.1c-1.2-.31-1.62.22-1.77.63l0,.07-.06.13a.36.36,0,0,0,.35.46h2.22a.5.5,0,0,0,.4.77c.55,0,1.46,0,2.63,0a.51.51,0,0,0,.47-.41,20.66,20.66,0,0,1,1.59-4.22s.43-.13,1.91,1c.14.76.93,1.22,1.15,1.49s.08.43.08.43a3,3,0,0,0-1.52-.13.48.48,0,0,0-.38.63.48.48,0,0,0,.48.41h1.53a.68.68,0,0,0-.47.16.48.48,0,0,0,.35.82H97c1.11,0,1.45-.24,1.9-2.39a20.52,20.52,0,0,1,1.3,3.86l.1-.92c.21,1,2,2,2,2l-.51-1s.26.5,2,.56,3.8-1.58,5.42.45C109.46,110,106.54,109.37,105.16,109.17ZM85.55,79a2.32,2.32,0,0,1,.07.44l-.22.2.2.05c0,.15-.12.26-.3.24a.8.8,0,0,1-.33-.08l.06-.18-.2.08a.66.66,0,0,1-.17-.21A.62.62,0,0,0,85.55,79Zm-1,29.12a1.36,1.36,0,0,0-1-.17,20.62,20.62,0,0,0,2-4.88A22.86,22.86,0,0,1,84.59,108.08Z" />
		</g>
	</g>
</svg>
