<svg xmlns="http://www.w3.org/2000/svg" viewBox="0 0 43.64 29.72"><defs><style>.cls-1{fill:#572a09;}</style></defs><g id="Layer_2" data-name="Layer 2"><g id="Layer_1-2" data-name="Layer 1"><path class="cls-1" d="M43.47,16.05c-.31-.8-.51-1.59-.78-2.43a4.6,4.6,0,0,1-.11-2.1,6,6,0,0,0-.3-2.16,15.13,15.13,0,0,0-.59-1.43A10.85,10.85,0,0,0,39,4.19c-1.05-.8-2.21-1.18-3-2.37a2.69,2.69,0,0,0-2-1.58c-1.35-.43-2.2,0-3.59.4a4.22,4.22,0,0,1-2.87,0c-.41-.16-.81-.39-1.26-.54a2.84,2.84,0,0,0-3.25,1.2c-.74.93-1.26,2-2,2.87a31.7,31.7,0,0,1-3.21,2.9A3.91,3.91,0,0,1,16.67,8a8.59,8.59,0,0,1-3.16.28,5.11,5.11,0,0,1-2.89-1.86C9.53,5.11,9.28,2.92,7.91,1.9L8,2c.1-.15.33-.59.13-.73s-.79.15-.87.27l.5.31a2.48,2.48,0,0,0-.55-.24,3.54,3.54,0,0,0,0-.79C7,.5,6.48,1,6.39,1.2a1.72,1.72,0,0,0-.14.37V1.34c-.92-.09-1.73.41-2.65.34a5.67,5.67,0,0,0-1.3-.11A3.67,3.67,0,0,0,1,2a.89.89,0,0,0-.47.52.82.82,0,0,1-.11.31c-.12.15-.28.22-.37.41-.17.38,0,.52.28.55h0c0,.42,1.08.42,1.33.42s.5-.09.7,0,.31.27.48.38a2,2,0,0,0,.75.29L4.14,5a3,3,0,0,1,.6,0c.23.08.3.28.41.48a.63.63,0,0,0,.25.43A6.65,6.65,0,0,1,7.54,8.4,7.6,7.6,0,0,0,9,10.19a9.46,9.46,0,0,0,1,.89c.49.32,1,.78,1.56,1.05a12.41,12.41,0,0,0,6.32,1.17l.25-.05a8.29,8.29,0,0,0,.78,1.3A1.64,1.64,0,0,1,19,16.27c-.17.42-.72,2.08-.94,2.88A17,17,0,0,1,17.29,21a11.67,11.67,0,0,0-1.07,2.37c-.24.83-.12,1.69-.43,2.48s-.89,1.65-1.31,2.46c0,.06-.11.16-.18.28-.2.32-.46.78-.37,1s1.19.15,1.44,0A2.34,2.34,0,0,0,16,28.32c.18-.64.3-1.34.44-1.71A5.77,5.77,0,0,1,17.9,24c.88-.73,1-1.58,1.3-2.7a17.6,17.6,0,0,1,1-2.46,8.45,8.45,0,0,1,1.52-1.94l.39-.28a5.51,5.51,0,0,1,1.47,2.34c.66,2.42,1.66,4.58,2.08,7.05a12.5,12.5,0,0,1,.12,1.74,2.32,2.32,0,0,1-.15.8,2.2,2.2,0,0,0-.16.76c0,.54.69.23,1.27.21s.54-.08.41-.75c0-.14,0-.28-.07-.42-.17-1-.3-1.92-.38-2.95s.25-2.18.15-3.23c-.24-1.95-2-3.82-1.88-5.86a2,2,0,0,1,.23-1l.07-.24a10.92,10.92,0,0,0,4.11-.56c1.71-.46,4.19-1.61,6-1.68A1.92,1.92,0,0,1,36,13a7.22,7.22,0,0,0,1.18,5.64c1.39,1.91,1.87,3.25.91,5.58-.55,1.34-.67,1.91-1,2.84a3.62,3.62,0,0,1-.66.88,3.9,3.9,0,0,0-.32.42c-.41.62-.38.58.3.69s1,.24,1.28-.39a3.65,3.65,0,0,0,.18-.56,3.15,3.15,0,0,1,.25-.75,20.43,20.43,0,0,0,1.21-2.59c.32-.86.6-1.16.87-2l.06.75A13.38,13.38,0,0,1,40,26.66a9.66,9.66,0,0,1-.58,1.54,3.45,3.45,0,0,0-.3,1.29,10.09,10.09,0,0,0,1.15.13c.54,0,.45.12.55-.45,0-.33.06-.67.07-1A11.86,11.86,0,0,1,41,26.49a14.58,14.58,0,0,1,1-3.16c.35-.82-.14-1.79-.29-2.62-.61-2.57,0-5.25.08-7.84l.15-.83.15.32a7.18,7.18,0,0,1,.42,2.74,3,3,0,0,0,.12,1.56c.21.64.71,1.11.76,1.78C43.45,17.52,43.88,17,43.47,16.05Z"/></g></g></svg>