<svg xmlns="http://www.w3.org/2000/svg" viewBox="0 0 32.66 35.13"><defs><style>.cls-1{fill:#bb9958;}.cls-2{fill:#e2e2e2;}.cls-3{fill:#c3c3c2;}.cls-4{fill:#edba2c;}.cls-5{fill:#e58f22;}.cls-6{fill:#b87d29;}.cls-7{fill:#995e1a;}.cls-8{fill:#895116;}.cls-9{fill:#7d4619;}</style></defs><g id="Layer_2" data-name="Layer 2"><g id="Layer_1-2" data-name="Layer 1"><path class="cls-1" d="M16.39,13.66a1.19,1.19,0,1,1-1.19-1.19A1.19,1.19,0,0,1,16.39,13.66Z"/><path class="cls-1" d="M13.65,19.58h1.4s1.26-3.69,3.54-4.4a13,13,0,0,1,5.5,0c-.83-2.71-3.5-3.21-7.11-2.39H14.76Z"/><polygon class="cls-2" points="21.82 26.69 22.59 28.47 22.59 30.89 24.72 34.99 27.24 34.99 27.24 26.69 21.82 26.69"/><polygon class="cls-3" points="32.66 26.69 31.9 28.47 31.9 30.89 29.76 34.99 27.24 34.99 27.24 26.69 32.66 26.69"/><polygon class="cls-4" points="22.59 30.89 24.06 28.5 25.86 28.5 27.24 30.89 27.24 26.69 21.82 26.69 22.59 28.47 22.59 30.89"/><polygon class="cls-5" points="31.9 30.89 30.42 28.5 28.62 28.5 27.24 30.89 27.24 26.69 32.66 26.69 31.9 28.47 31.9 30.89"/><path class="cls-6" d="M11.62,8.61h-.73s-2.71,1.68-2.8,3.86h3.53Z"/><path class="cls-7" d="M11.62,8.61h.73s2.71,1.68,2.8,3.86H11.62Z"/><rect class="cls-1" x="10.89" y="5.66" width="1.46" height="2.95"/><path class="cls-8" d="M12.85,6.24A1.23,1.23,0,1,1,11.62,5,1.23,1.23,0,0,1,12.85,6.24Z"/><rect class="cls-7" x="11.43" y="3.91" width="0.38" height="1.11"/><path class="cls-4" d="M12.35,2.77c0,1.26-.33,1.78-.73,1.78S10.9,4,10.9,2.77A7.81,7.81,0,0,1,11.62,0,7.73,7.73,0,0,1,12.35,2.77Z"/><path class="cls-7" d="M1.45,22.33A10.3,10.3,0,0,1,.14,19.11a5.6,5.6,0,0,1,1.77-5.58c2.14-1.87,7.21-.88,7.43-.83l-.2,1c-1.33-.27-5.1-.68-6.57.61-3.2,2.79-.3,7.46-.28,7.51Zm7.69-8.65h0l.1-.49Z"/><path class="cls-1" d="M8.09,12.47S10.32,25.19,2.87,29.3h8.78V12.47Z"/><path class="cls-6" d="M15.2,12.47S13,25.19,20.42,29.3H11.65V12.47Z"/><path class="cls-6" d="M2.87,29.3c.18,2.13,2.19,4.78,8.78,4.78V29.3Z"/><path class="cls-7" d="M20.42,29.3c-.44,5.43-9.4,4.78-8.77,4.78V29.3Z"/><path class="cls-6" d="M11.65,33.52H8.9a.81.81,0,1,0,0,1.61h2.75Z"/><path class="cls-7" d="M11.65,33.52H14.4a.81.81,0,0,1,0,1.61H11.65Z"/><path class="cls-4" d="M2.56,21.29.74,22.46c4,4.09,1.75,6.63,1,7C5.63,29.41,5,24.19,2.56,21.29Z"/><path class="cls-9" d="M24,27.69a.42.42,0,0,1-.83,0,.42.42,0,1,1,.83,0Z"/><path class="cls-9" d="M25.47,27.69a.41.41,0,0,1-.42.41.41.41,0,0,1-.41-.41.41.41,0,0,1,.41-.42A.42.42,0,0,1,25.47,27.69Z"/><path class="cls-9" d="M26.93,27.69a.41.41,0,0,1-.42.41.41.41,0,0,1-.41-.41.41.41,0,0,1,.41-.42A.42.42,0,0,1,26.93,27.69Z"/><path class="cls-9" d="M28.38,27.69a.41.41,0,1,1-.82,0,.41.41,0,1,1,.82,0Z"/><path class="cls-9" d="M29.84,27.69a.41.41,0,1,1-.82,0,.41.41,0,1,1,.82,0Z"/><path class="cls-9" d="M31.3,27.69a.41.41,0,1,1-.82,0,.41.41,0,1,1,.82,0Z"/></g></g></svg>