<svg xmlns="http://www.w3.org/2000/svg" viewBox="0 0 2000 1892.57"><defs><style>.cls-1{fill:#d8b38b;}.cls-2{fill:#fff;}</style></defs><g id="Layer_2" data-name="Layer 2"><g id="Layer_1-2" data-name="Layer 1"><rect class="cls-1" width="793.99" height="793.99" rx="20"/><path class="cls-2" d="M391,314.24h-.6L356.3,332.63l-5.12-20.2L394,289.52h22.6v196H391Z"/><rect class="cls-1" y="1098.58" width="793.99" height="793.99" rx="20"/><path class="cls-2" d="M339.72,1553.6c7.54,4.82,25,12.36,43.41,12.36,34.07,0,44.62-21.71,44.32-38-.31-27.43-25-39.19-50.65-39.19H362v-19.89H376.8c19.3,0,43.71-10,43.71-33.16,0-15.68-9.94-29.54-34.36-29.54-15.68,0-30.75,6.93-39.19,13L340,1399.86c10.25-7.54,30.15-15.08,51.25-15.08,38.59,0,56.07,22.91,56.07,46.73,0,20.2-12.06,37.38-36.17,46.12v.6c24.11,4.83,43.71,22.91,43.71,50.35,0,31.35-24.42,58.78-71.45,58.78-22,0-41.3-6.93-50.94-13.26Z"/><rect class="cls-1" x="1206.01" y="1098.58" width="793.99" height="793.99" rx="20"/><path class="cls-2" d="M1621.4,1584v-53.35h-91V1513.2l87.42-125.1h28.64v121.79h27.43v20.8h-27.43V1584Zm0-74.15v-65.42q0-15.37.91-30.75h-.91c-6,11.46-10.85,19.9-16.28,28.94l-47.93,66.62v.61Z"/><rect class="cls-1" x="1206.01" width="793.99" height="793.99" rx="20"/><path class="cls-2" d="M1539.4,485.47V469.19l20.81-20.2c50-47.63,72.64-72.95,73-102.49,0-19.9-9.65-38.29-38.89-38.29-17.79,0-32.56,9-41.6,16.58l-8.44-18.69a86,86,0,0,1,55.47-19.9c42.2,0,60,28.94,60,57,0,36.17-26.23,65.42-67.53,105.21l-15.68,14.47v.6h88v22Z"/></g></g></svg>