<svg xmlns="http://www.w3.org/2000/svg" width="566.951" height="180.958" viewBox="0 0 566.951 180.958">
  <g id="Group_28" data-name="Group 28" transform="translate(-697.525 -198.765)">
    <g id="Group_2" data-name="Group 2" transform="translate(697.525 200.34)">
      <path id="Path_1" data-name="Path 1" d="M3908.016,623.225h-37.845a10.115,10.115,0,0,1-10.115-10.115h0V604.3a10.115,10.115,0,0,0-10.116-10.115h-8.809a10.114,10.114,0,0,1-10.115-10.113V546.224a10.115,10.115,0,0,1,10.115-10.115h66.885a10.115,10.115,0,0,1,10.116,10.115h0v66.885A10.115,10.115,0,0,1,3908.016,623.225Z" transform="translate(-3736.93 -536.109)" fill="#9B7564"/>
      <path id="Path_2" data-name="Path 2" d="M3798.308,594.185h-8.8a10.115,10.115,0,0,1-10.116-10.116h0v-8.8a10.115,10.115,0,0,1,10.116-10.116h8.8a10.115,10.115,0,0,1,10.115,10.116h0v8.8a10.115,10.115,0,0,0,10.116,10.116h8.81a10.115,10.115,0,0,0,10.116-10.116h0V546.224a10.115,10.115,0,0,0-10.116-10.115h-66.886a10.115,10.115,0,0,0-10.115,10.115h0v66.885a10.115,10.115,0,0,0,10.115,10.115h37.845a10.117,10.117,0,0,0,10.117-10.115h0V604.3a10.116,10.116,0,0,0-10.116-10.115Z" transform="translate(-3750.347 -536.109)" fill="#9B7564"/>
      <g id="Group_1" data-name="Group 1" transform="translate(94.087 92.263)">
        <path id="Path_3" data-name="Path 3" d="M3908.015,644.259h-8.807a10.115,10.115,0,0,1-10.116-10.112V625.33a10.116,10.116,0,0,0-10.115-10.115h-8.807a10.117,10.117,0,0,0-10.115,10.115v8.813a10.113,10.113,0,0,1-10.111,10.115h-8.811a10.115,10.115,0,0,0-10.117,10.112v37.848a10.1,10.1,0,0,0,10.117,10.115h66.881a10.1,10.1,0,0,0,10.116-10.115V654.374a10.114,10.114,0,0,0-10.111-10.115Z" transform="translate(-3831.017 -615.215)" fill="#9B7564"/>
      </g>
      <path id="Path_4" data-name="Path 4" d="M3837.464,654.372v37.845a10.116,10.116,0,0,1-10.116,10.115H3789.5a10.115,10.115,0,0,1-10.115-10.115h0v-8.809a10.115,10.115,0,0,0-10.113-10.116h-8.812a10.116,10.116,0,0,1-10.116-10.115h0V625.332a10.116,10.116,0,0,1,10.116-10.114h37.845a10.115,10.115,0,0,1,10.116,10.114v8.809a10.115,10.115,0,0,0,10.115,10.116h8.811a10.116,10.116,0,0,1,10.116,10.115Z" transform="translate(-3750.347 -522.951)" fill="#9B7564"/>
    </g>
    <g id="Hide_and_Reveal" data-name="Hide and Reveal" transform="translate(915.476 198.765)" style="isolation: isolate">
      <text id="Hide_and" data-name="Hide and" transform="translate(0 71)" fill="#fff" font-size="73" font-family="Montserrat-ExtraBold, Montserrat" font-weight="800" style="isolation: isolate"><tspan x="0" y="0">Hide and</tspan></text>
      <text id="Reveal" transform="translate(0 158.474)" fill="#fff" font-size="73" font-family="Montserrat-ExtraBold, Montserrat" font-weight="800" style="isolation: isolate"><tspan x="0" y="0">Reveal</tspan></text>
    </g>
  </g>
</svg>
