<svg xmlns="http://www.w3.org/2000/svg" viewBox="0 0 17.33 36.99"><defs><style>.cls-1{isolation:isolate;}.cls-2,.cls-3{fill:#9f2925;}.cls-3{opacity:0.6;}.cls-11,.cls-20,.cls-24,.cls-26,.cls-3,.cls-4,.cls-5,.cls-8{mix-blend-mode:multiply;}.cls-4,.cls-5{fill:#f4ba92;}.cls-5{opacity:0.4;}.cls-6{fill:#f4d9bf;}.cls-7,.cls-8{fill:#ec4c54;}.cls-9{fill:#474747;}.cls-10{fill:#232323;}.cls-11{fill:#7a3a00;}.cls-12{fill:#fff;}.cls-13{fill:#b5c0c6;}.cls-14{fill:#8a9397;}.cls-15{fill:#efcaa6;}.cls-16{fill:#c39368;}.cls-17{fill:#eaae7d;}.cls-18{fill:#474746;}.cls-19{fill:#e7363a;}.cls-20{opacity:0.7;}.cls-21{fill:#ccd8df;}.cls-22{fill:#a02d33;}.cls-23,.cls-24{fill:#313130;}.cls-25,.cls-26{fill:#4a4a49;}</style></defs><g class="cls-1"><g id="Layer_2" data-name="Layer 2"><g id="Layer_1-2" data-name="Layer 1"><path class="cls-2" d="M2.26,15.52A6.13,6.13,0,0,0,5.36,20c2.73,1.36,8.77.28,9.67-4.05A24.35,24.35,0,0,0,14.56,11c-.48-1.81-2.25-5.9-2.25-5.9L4.18,6.24S1.59,11.84,2.26,15.52Z"/><path class="cls-3" d="M14.28,9.25a39.25,39.25,0,0,0-2.15-4.12l-7.74.78S1.92,9.82,2.56,12.39a3.32,3.32,0,0,0,.32.89,10.53,10.53,0,0,1,1-4.15S4,9,4,9.07a7.41,7.41,0,0,0,1.62,1.86c.07.05,0,.14,0,.17a6.26,6.26,0,0,0-2.14,2.55l-.16.3a4.85,4.85,0,0,0,2.19,1.54c2.1.76,6.22.42,8.21-1.31a8.85,8.85,0,0,0-2.84-3.1c-.07,0,0-.13,0-.16a5.21,5.21,0,0,0,2-1.41s.12-.1.16,0a10.19,10.19,0,0,1,1.34,3.94,2.83,2.83,0,0,0,.34-.75A12.54,12.54,0,0,0,14.28,9.25Z"/><path class="cls-4" d="M16,21.49s-.21-.8-.3-.71l-1,.3c.07.23.22.73.22.78a6.82,6.82,0,0,0-.42.93c-.12.39-.11.84,0,.92s.32-.57.58-.81a9.27,9.27,0,0,1,.15,1.18c0,.31,0,.57.19.52s.34-.51.19-1.65c0,0,.18.56.33,1.14s.46.46.34-.14-.26-1.18-.26-1.18a4.08,4.08,0,0,1,.41.92c.13.46.41.56.36,0a3.72,3.72,0,0,0-.26-1,4.88,4.88,0,0,0,.5.8c.18.22.38.24.13-.42C17,22.57,16.7,21.76,16,21.49Z"/><path class="cls-5" d="M14.67,22.42c.59-.2,1.16-.46,1.74-.7a1.54,1.54,0,0,0-.37-.23s-.21-.8-.3-.71l-1,.3c.07.23.22.73.22.78S14.8,22.12,14.67,22.42Z"/><path class="cls-4" d="M1.29,21.49s.2-.8.3-.71l1,.3c-.08.23-.22.73-.23.78a5.71,5.71,0,0,1,.42.93c.13.39.12.84,0,.92s-.32-.57-.58-.81A10.93,10.93,0,0,0,2,24.08c0,.31,0,.57-.18.52s-.34-.51-.19-1.65c0,0-.18.56-.33,1.14S.88,24.55,1,24s.26-1.18.26-1.18a4.4,4.4,0,0,0-.42.92c-.12.46-.4.56-.36,0a3.72,3.72,0,0,1,.26-1,5.29,5.29,0,0,1-.49.8c-.18.22-.39.24-.13-.42A2.58,2.58,0,0,1,1.29,21.49Z"/><path class="cls-5" d="M2.52,22.12l-.14-.26c0-.05.15-.55.23-.78l-1-.3c-.1-.09-.3.71-.3.71a1.23,1.23,0,0,0-.38.24C1.44,21.89,2,22,2.52,22.12Z"/><path class="cls-6" d="M8.15,32.25C8.07,29.89,8,26.13,8,26.13l-1.5-.33.29,6.45A10.64,10.64,0,0,0,8.15,32.25Z"/><path class="cls-7" d="M8.15,32.25a10.64,10.64,0,0,1-1.39,0l.1,2.13h0a.56.56,0,0,1,.64.46,2.31,2.31,0,0,0,.75-.06q0-.41-.06-.9C8.2,33.56,8.18,33,8.15,32.25Z"/><path class="cls-8" d="M8.22,33.87c0-.31,0-.9-.07-1.62l-.39,0a3.52,3.52,0,0,1,0,1.37.74.74,0,0,1-.32.5,1.15,1.15,0,0,1-.63.14v.1h0a.56.56,0,0,1,.64.46,2.31,2.31,0,0,0,.75-.06Q8.25,34.36,8.22,33.87Z"/><path class="cls-9" d="M6.06,36.74a5.78,5.78,0,0,1-2.43-.41c0,.41.43.61,1.83.66s2.75-.36,2.84-.63a.64.64,0,0,0,0-.07A5.44,5.44,0,0,1,6.06,36.74Z"/><path class="cls-10" d="M6.06,36.74a5.44,5.44,0,0,0,2.26-.45,9.44,9.44,0,0,0,0-1.52,2.31,2.31,0,0,1-.75.06.56.56,0,0,0-.64-.46h0a.9.9,0,0,0-.55.38C6,35,5.68,35,4.49,35.3a1,1,0,0,0-.87,1v0A5.78,5.78,0,0,0,6.06,36.74Z"/><path class="cls-11" d="M8.32,35.44c0-.19,0-.42,0-.67a2.31,2.31,0,0,1-.75.06.56.56,0,0,0-.64-.46h0a.9.9,0,0,0-.55.38,2,2,0,0,1-.83.31A12,12,0,0,0,8.32,35.44Z"/><path class="cls-6" d="M9.87,32.25c.08-2.36.18-6.12.18-6.12l1.5-.33-.29,6.45A10.64,10.64,0,0,1,9.87,32.25Z"/><path class="cls-7" d="M9.87,32.25a10.64,10.64,0,0,0,1.39,0l-.1,2.13h0a.56.56,0,0,0-.64.46,2.31,2.31,0,0,1-.75-.06q0-.41.06-.9C9.82,33.56,9.84,33,9.87,32.25Z"/><path class="cls-8" d="M9.8,33.87c0-.31,0-.9.07-1.62l.39,0a3.52,3.52,0,0,0,0,1.37.74.74,0,0,0,.32.5,1.15,1.15,0,0,0,.63.14v.1h0a.56.56,0,0,0-.64.46,2.31,2.31,0,0,1-.75-.06Q9.77,34.36,9.8,33.87Z"/><path class="cls-9" d="M12,36.74a5.78,5.78,0,0,0,2.43-.41c0,.41-.43.61-1.83.66s-2.75-.36-2.84-.63a.64.64,0,0,1,0-.07A5.49,5.49,0,0,0,12,36.74Z"/><path class="cls-10" d="M12,36.74a5.49,5.49,0,0,1-2.26-.45,9.44,9.44,0,0,1,0-1.52,2.31,2.31,0,0,0,.75.06.56.56,0,0,1,.64-.46h0a.9.9,0,0,1,.55.38c.29.23.63.25,1.82.54a.94.94,0,0,1,.87,1v0A5.78,5.78,0,0,1,12,36.74Z"/><path class="cls-11" d="M9.84,35.43a17.51,17.51,0,0,0,2.89-.32,2.41,2.41,0,0,1-1-.35.9.9,0,0,0-.55-.38h0a.56.56,0,0,0-.64.46,2.31,2.31,0,0,1-.75-.06c0,.25,0,.47,0,.66Z"/><path class="cls-12" d="M14.45,21.8,17,20.93a18.85,18.85,0,0,0-2.48-5.67,8.67,8.67,0,0,0-3-3.29,6.57,6.57,0,0,0-4-.6C5,11.65,3,15.12,3,15.12s-1.34,1.61-2.44,6l2.58.77a22.29,22.29,0,0,1,1.5-5.07A96.28,96.28,0,0,0,2.91,34.1a18,18,0,0,0,10.92.29A13.05,13.05,0,0,0,15.2,34a95.86,95.86,0,0,0-2.45-17.15A22.06,22.06,0,0,1,14.45,21.8Z"/><path class="cls-13" d="M6.86,10.64l-.16.92a3.91,3.91,0,0,0,3.43-.09L10,10.61l-1.34.16-.22.17-.14-.16Z"/><path class="cls-14" d="M8.5,11.23a.79.79,0,0,1,.24-.47H8.62l-.22.17-.14-.16H8.14a2.27,2.27,0,0,1,.31,1.14h.07A2.23,2.23,0,0,1,8.5,11.23Z"/><path class="cls-15" d="M13.58,6.75c-.36-.18-.61.08-.8.29a0,0,0,0,0,0,0,1,1,0,0,0-.23.85c.05.28.27.43.63.35a.91.91,0,0,0,.63-.79A.62.62,0,0,0,13.58,6.75Z"/><path class="cls-16" d="M13.45,7.36c-.09-.11-.29-.06-.4,0a.67.67,0,0,0-.16.12l-.06.07a.64.64,0,0,1,0,.07s0,0,0,0l0,0A.43.43,0,0,1,13,7.5a.38.38,0,0,1,.38-.09S13.48,7.39,13.45,7.36Z"/><path class="cls-15" d="M4.5,7.27c0-.19,0-.47-.16-.63a.41.41,0,0,0-.13-.08.49.49,0,0,0-.73.07,1,1,0,0,0,.4,1.17C4.39,8.08,4.52,7.57,4.5,7.27Z"/><path class="cls-16" d="M4.17,7a.38.38,0,0,0-.41,0A0,0,0,0,0,3.8,7a.47.47,0,0,1,.31,0,.46.46,0,0,1,.2.26h.05C4.39,7.17,4.28,7,4.17,7Z"/><path class="cls-17" d="M13.2,3.23,8.68,3.3,4.16,3.23c0,.47.07,2.56.08,3a9.53,9.53,0,0,0,.08,1.41,3.19,3.19,0,0,0,.27.88,4.47,4.47,0,0,0,2.11,2,3.41,3.41,0,0,0,1.12.35,6.52,6.52,0,0,0,1.4,0h.32a3.43,3.43,0,0,0,1.11-.35,4.54,4.54,0,0,0,2.12-2A3.16,3.16,0,0,0,13,7.67a8.34,8.34,0,0,0,.08-1.41C13.12,5.79,13.23,3.7,13.2,3.23Z"/><path class="cls-18" d="M10.91,8.73c-.39-.86-1.23-1-2.08-.88S7,7.56,6.32,8.06a2,2,0,0,0-.58.74,2.3,2.3,0,0,0-.14.42c0,.08-.12.49,0,.55a5.6,5.6,0,0,0,.85.59A2,2,0,0,1,6.4,9c.25-.75,1.09-.64,1.71-.59s1.05-.21,1.58,0,.64.92.54,1.45a3.69,3.69,0,0,1-.35,1,3.72,3.72,0,0,0,.77-.29,4.16,4.16,0,0,0,.51-.28l0-.15A3.45,3.45,0,0,0,10.91,8.73Z"/><path class="cls-19" d="M12.92,2.53a3.52,3.52,0,0,0-.54-.82A5.07,5.07,0,0,0,9.94.2,4.8,4.8,0,0,0,6.28.55,5.17,5.17,0,0,0,4.73,2a6.58,6.58,0,0,0-1.05,2.8c-.35,3-2.13,4.7-1.11,7.77l.07-.23A10.5,10.5,0,0,1,3.69,9,21.47,21.47,0,0,0,5.14,4.47h6.58a18.43,18.43,0,0,0,1.53,4.2,16.22,16.22,0,0,1,1.42,3.66l.06.33a8.91,8.91,0,0,0-.16-3.25,34.57,34.57,0,0,1-1.21-4.89A5.85,5.85,0,0,0,12.92,2.53Z"/><path class="cls-14" d="M8.25,15.22a1.54,1.54,0,0,1,.68,0l-.25-.09-.17-3.19H8.43l.1,3.13A.59.59,0,0,0,8.25,15.22Z"/><g class="cls-20"><path class="cls-21" d="M16.14,21.23l.86-.3a18.85,18.85,0,0,0-2.48-5.67,8.67,8.67,0,0,0-3-3.29l-.37-.19C14,14,15.68,19.58,16.14,21.23Z"/><path class="cls-21" d="M2.07,21.6l1.1.33a23.36,23.36,0,0,1,1.4-4.87c.33-1,.81-2.82.81-2.82C3.47,16.2,2.41,20.13,2.07,21.6Z"/><path class="cls-21" d="M12.53,34.73a13.14,13.14,0,0,0,1.3-.34A13.05,13.05,0,0,0,15.2,34a95.86,95.86,0,0,0-2.45-17.15,15.4,15.4,0,0,0-1.45-3.17S13.08,26.83,12.53,34.73Z"/></g><path class="cls-22" d="M14.57,9.41a34.57,34.57,0,0,1-1.21-4.89,5.85,5.85,0,0,0-.44-2,3.52,3.52,0,0,0-.54-.82A5.07,5.07,0,0,0,9.94.2,5.56,5.56,0,0,0,7.44.1l.5,0A5.57,5.57,0,0,1,10,.88c.13.08,1.08.7.69.88a.78.78,0,0,1-.34,0H9.86c-.46,0-.91,0-1.36,0-.88.07-1.76.2-2.63.34a8,8,0,0,0-1.46.38,6.85,6.85,0,0,0-.55,1.38c.19,0,.51-.11.63.08s0,.29,0,.41,0,.42,0,.64A7.14,7.14,0,0,1,4.09,6.6c-.63,1.71-1.7,3.4-1.71,5.22.05.23.11.47.19.73l.07-.23A10.5,10.5,0,0,1,3.69,9,21.47,21.47,0,0,0,5.14,4.47h6.58a18.43,18.43,0,0,0,1.53,4.2,16.22,16.22,0,0,1,1.42,3.66l.06.33A8.91,8.91,0,0,0,14.57,9.41ZM11.13,4.1a11.8,11.8,0,0,1-1.88,0c-.65,0-1.3,0-1.94,0l-1.06,0c-.23,0-.45,0-.68.07s-.25,0-.33-.11,0-.19,0-.29c0-.31.47-.43.71-.48a7.8,7.8,0,0,1,1.93-.1,12.79,12.79,0,0,1,2.14.28c.34.08.91.18,1.12.49C11.21,4.06,11.17,4.1,11.13,4.1Zm3,6.2a20.07,20.07,0,0,0-1.24-2.9,23.33,23.33,0,0,1-1-3.15v0l0-.06s.08-.11.1-.06a7.56,7.56,0,0,0,.72,1.52A15,15,0,0,1,13.45,7a8.35,8.35,0,0,1,.83,3.24S14.19,10.35,14.18,10.3Z"/><path class="cls-19" d="M5.25,2.82A7.63,7.63,0,0,0,4.11,5.24s6.67-.57,8.9,0a10.25,10.25,0,0,0-1.16-2.43C11.22,2,6,2.3,5.25,2.82Z"/><path class="cls-22" d="M11.94,2.73c-.63-.85-6-.54-6.68,0a6,6,0,0,0-.51.87l.42-.07a11,11,0,0,1,2.22-.14,9.15,9.15,0,0,1,2.27.39c.38.13,1,.29,1.18.74,0,0,0,.08-.07.07a17.2,17.2,0,0,0-3.51.14,19.29,19.29,0,0,0-2.81.52c1.41-.11,6.72-.48,8.67,0A10.72,10.72,0,0,0,11.94,2.73Z"/><path class="cls-23" d="M4.36,2.2s-.18-.18.1-.34A27.89,27.89,0,0,1,9,1.6c2.11-.09,3.93.13,3.88.57,0,0,0,.13-.15.08S10.25,1.63,4.36,2.2Z"/><path class="cls-24" d="M12,1.72h0a.82.82,0,0,1-.53.12c-.44,0-.87,0-1.3,0l-1.38,0c-1.46.07-3.09-.17-4.43.37h0c5.89-.57,8.27-.1,8.37,0s.15-.08.15-.08C12.9,2,12.56,1.82,12,1.72Z"/><path class="cls-25" d="M4.64,2.05s-.38.05-.48.31,0,.41.42.31a23.31,23.31,0,0,1,3.94-.41c1.68,0,4,.38,4.25.28s.16-.28-.1-.37S9.91,1.68,4.64,2.05Z"/><path class="cls-26" d="M12.67,2.17c-.21-.13-1.77-.39-5-.27h.07c.53,0,1.07,0,1.59.07l.75.07a2,2,0,0,1,.49.07s0,.06,0,.07c-1,0-2,.06-3,.12l1,0c1.68,0,4,.38,4.25.28S12.93,2.26,12.67,2.17Z"/><path class="cls-26" d="M4.43,2.69l.15,0A20.62,20.62,0,0,1,7.51,2.3,19.8,19.8,0,0,0,4.43,2.69Z"/></g></g></g></svg>