<svg xmlns="http://www.w3.org/2000/svg" viewBox="0 0 189.47 189.47">
	<defs>
		<style>
			.cls-1{isolation:isolate;}.cls-2{fill:#f2d0a7;}.cls-3{fill:#73604f;}.cls-12,.cls-4,.cls-5,.cls-6,.cls-8,.cls-9{fill:#86705c;}.cls-4{opacity:0.3;}.cls-10,.cls-12,.cls-4,.cls-6,.cls-7,.cls-9{mix-blend-mode:multiply;}.cls-6,.cls-8{opacity:0.4;}.cls-7{fill:#91624c;}.cls-12,.cls-7{opacity:0.6;}.cls-8{mix-blend-mode:screen;}.cls-9{opacity:0.5;}.cls-10{fill:#b99a7e;opacity:0.7;}.cls-11{fill:#937b65;}
		</style>
	</defs>
	<g class="cls-1">
		<g id="Layer_1" data-name="Layer 1">
			<path class="cls-2" d="M126.31,85.16v19.15a22,22,0,0,1-22,22H85.16a22,22,0,0,1-22-22V85.16a22,22,0,0,1,22-22h19.15a22,22,0,0,0,22-22V22a22,22,0,0,0-22-22H22A22,22,0,0,0,0,22V167.47a22,22,0,0,0,22,22H167.47a22,22,0,0,0,22-22V85.16a22,22,0,0,0-22-22H148.31A22,22,0,0,0,126.31,85.16Z" />
			<path class="cls-3" d="M162.65,159.86c4.14.4,8.27.74,12.35,1.49,2.71.49,5.41,1.06,8.12,1.52-9.14-5.81-28.5-24.15-37-28.24-4.37-2.1-8.79-3.28-13.64-2.71-2.93.35-5.82,1.1-8.71,1.64a46.14,46.14,0,0,1-8.62.69c-5.37,0-10.7-.52-16.08-.48-4.24,0-9.53-.67-13.38,1.54s-6,6.52-8.53,9.9c-1.61,2.18-9.73,6.49-11.15,8,4.1.39,8.22.39,12.33.61,11.25.14,29,.63,46.69,2.11,10,.84,19.91,2,28.73,3.18C156.71,159.39,159.69,159.57,162.65,159.86Z" />
			<path class="cls-4" d="M162.65,159.86c4.14.4,8.27.74,12.35,1.49,2.71.49,5.41,1.06,8.12,1.52-9.14-5.81-28.5-24.15-37-28.24-4.37-2.1-8.79-3.28-13.64-2.71-2.93.35-5.82,1.1-8.71,1.64a46.14,46.14,0,0,1-8.62.69c-5.37,0-10.7-.52-16.08-.48-4.07,0-9.1-.6-12.91,1.3l.45-.16c1-.31,2.48-.73,3.11.46a4.44,4.44,0,0,1,.41,1.08,4.75,4.75,0,0,1,.4,2.94l0,.22a31.71,31.71,0,0,1,4.7-3.87.34.34,0,0,1,.5.28c-.37,5.58-5.32,10-9.17,13.55a.33.33,0,0,1-.55-.14,4.81,4.81,0,0,1,.15-3A30.85,30.85,0,0,1,81,149.71c-1.66.84-3.53,2-5.47,1.91a.33.33,0,0,1-.33-.33,17.74,17.74,0,0,1,1.47-5.55c-2.32,2.28-9.37,6.08-10.69,7.5,4.11.39,8.23.39,12.34.61,11.25.14,29,.63,46.69,2.11,10,.84,19.91,2,28.73,3.18C156.71,159.39,159.69,159.57,162.65,159.86Zm-70.56-7a.33.33,0,0,1-.41-.4c.1-.27.21-.52.32-.77a.25.25,0,0,1-.1-.34,30.93,30.93,0,0,1,12.42-14.75.34.34,0,0,1,.5.28,17.81,17.81,0,0,1-3.1,9.72C99.53,149.73,95.58,151.46,92.09,152.82Zm41.36-19.43a22.3,22.3,0,0,1-2.89,3.89c-1.13,1.38-2.09,2.89-3.1,4.35a27.78,27.78,0,0,1-5.71,6.52,13.7,13.7,0,0,1-7.32,3c-2.84.23-5.68,0-8.52.28a.33.33,0,0,1-.29-.5,23.67,23.67,0,0,1,2.61-3.49,23.39,23.39,0,0,1-3.13,1.34.35.35,0,0,1-.42-.41c.51-2.75,1.08-5.52,3.26-7.42,1.64-1.43,3.69-3.29,5.93-3.6.28,0,.37.3.29.5a29.88,29.88,0,0,1-4.31,7.88l.1-.07c2.21-2.16,4.65-4.12,6.79-6.35s5.05-3.48,8-4.5a15.25,15.25,0,0,1,8.44-1.9A.33.33,0,0,1,133.45,133.39Z" />
			<path class="cls-4" d="M78.26,153.84h.08l3.19.05c1.4-2.07,2.77-4.15,4-6.34A59.64,59.64,0,0,1,78.26,153.84Z" />
			<path class="cls-4" d="M99.3,140.42C94.65,144.17,91,149,87.75,154l2.81.08A41.24,41.24,0,0,1,94.65,146l0,0A31.18,31.18,0,0,1,99.3,140.42Z" />
			<path class="cls-4" d="M162.65,159.86c4.14.4,8.27.74,12.35,1.49,2.71.49,5.41,1.06,8.12,1.52-9.14-5.81-28.5-24.15-37-28.24a27.28,27.28,0,0,0-8.82-2.71c-1.79,1.19-3.54,2.44-5.31,3.66-.46.57-.95,1.12-1.42,1.7-1.13,1.38-2.09,2.89-3.1,4.35-.5.73-1,1.46-1.56,2.17-2.61,4-5.49,7.81-8.41,11.59q3.75.26,7.53.57c10,.84,19.91,2,28.73,3.18C156.71,159.39,159.69,159.57,162.65,159.86Zm-38.89-7.09c-.31.09-.49-.23-.38-.49a62.68,62.68,0,0,1,6-10.45c1.51-3.3,3.38-6.94,7-8.09a.34.34,0,0,1,.41.23,4.92,4.92,0,0,1-.06,2.35,24.84,24.84,0,0,0-.58,3.85c-.16,2.1-.32,4.54-1.45,6.39a8.61,8.61,0,0,1-4.13,3.37A61.45,61.45,0,0,1,123.76,152.77Zm16.36-10.24a8.83,8.83,0,0,1-1.13,4.08,16.9,16.9,0,0,1-5.88,6.31.34.34,0,0,1-.49-.37,39.1,39.1,0,0,1,3.73-8A29.13,29.13,0,0,1,140,136a.33.33,0,0,1,.61.16C140.67,138.28,140.26,140.43,140.12,142.53ZM142,155.09c-.2.1-.53,0-.5-.28a15,15,0,0,1,.75-3.12c.8-4.15,3.17-7.83,5.49-11.33a.33.33,0,0,1,.6.07,27.07,27.07,0,0,1,.83,5.88,12.59,12.59,0,0,1,0,4.58C148.52,153.42,144,154.14,142,155.09Zm7.39,1.81a18.5,18.5,0,0,1,2.34-5.16c.56-1.13,1.26-2.18,1.86-3.31a.33.33,0,0,1,.57,0c2,2.94-1.21,8.17-4.36,8.88A.34.34,0,0,1,149.38,156.9Z" />
			<path class="cls-4" d="M113,140.62a23,23,0,0,1-3.1,5.09l.1-.07c1.73-1.69,3.59-3.26,5.35-4.93.72-1.14,1.44-2.28,2.17-3.42A33.75,33.75,0,0,0,113,140.62Z" />
			<path class="cls-5" d="M83.47,152.22a3.9,3.9,0,0,0-1-.38,5.94,5.94,0,0,0-1.18-.14l-.47.18a6.55,6.55,0,0,0-1.14.67,8.36,8.36,0,0,0-.75.53c.25.24.52.47.79.69a16.47,16.47,0,0,0,1.71.16c.4,0,.8,0,1.2,0h.15l.2-.2.12-.2c.19-.34.37-.67.53-1a.91.91,0,0,1,.07-.14Z" />
			<path class="cls-6" d="M83.47,152.22a3.9,3.9,0,0,0-1-.38,5.73,5.73,0,0,0-1-.14h0c.21.15.38.33.57.49s.25.18.2.3-.11.1-.16.13l-.19.11a3.92,3.92,0,0,1-.7.44,1.39,1.39,0,0,1-.7.09c-.29,0-.57-.09-.86-.12s-.45,0-.68,0c.25.24.51.45.76.66a16.47,16.47,0,0,0,1.71.16c.4,0,.8,0,1.2,0h.15l.2-.2.12-.2c.19-.34.37-.67.53-1a.91.91,0,0,1,.07-.14Z" />
			<path class="cls-7" d="M80,153.75a6.08,6.08,0,0,1-.74-.42l.52.44.32,0Z" />
			<path class="cls-6" d="M83.47,152.22a3.9,3.9,0,0,0-1-.38c-.23-.05-.47-.09-.71-.12.17.12.35.21.52.32s.27.18.4.27a2.94,2.94,0,0,1,.39.4s0,0,0,0a2,2,0,0,1-.48-.18l-.28-.09.21.16c.11.08.28.13.37.25s-.19.81-.21.8c-.29-.07-.58-.22-.88-.29a6.29,6.29,0,0,1-.62-.17l.27.13c.17.07.33.17.5.25l.69.31h.16l.2-.2.12-.2c.19-.34.37-.67.53-1a.91.91,0,0,1,.07-.14Z" />
			<path class="cls-8" d="M79.18,153.16a2.51,2.51,0,0,0,.82.06l-.2-.05a3.47,3.47,0,0,1-.63-.11s0,0,0,0c.27-.16.53-.34.79-.51s.51-.3.76-.45a2.16,2.16,0,0,1,.36-.22.55.55,0,0,1,.28-.09c.18,0,.3.16.45.24-.08-.13-.28-.21-.38-.29h-.12l-.47.18a6.55,6.55,0,0,0-1.14.67,8.36,8.36,0,0,0-.75.53l.39.36-.2-.25S79.15,153.15,79.18,153.16Z" />
			<path class="cls-5" d="M64.72,152.25a3.51,3.51,0,0,0-.68-.32,4.75,4.75,0,0,0-.82-.16l-.34.11a4.35,4.35,0,0,0-.84.41,6.32,6.32,0,0,0-.56.33c.17.19.35.36.53.53a9.53,9.53,0,0,0,1.19.2c.28,0,.56.05.85.06h.11a.86.86,0,0,1,.14-.13l.1-.14c.15-.22.29-.45.43-.69l0-.09Z" />
			<path class="cls-6" d="M64.72,152.25a3.51,3.51,0,0,0-.68-.32,3.38,3.38,0,0,0-.69-.14h0c.14.12.25.25.38.38s.16.14.12.22-.08.06-.11.08l-.15.07a2.49,2.49,0,0,1-.51.27,1,1,0,0,1-.5,0l-.6-.13-.48-.06c.16.17.34.34.51.5a9.53,9.53,0,0,0,1.19.2c.28,0,.56.05.85.06h.11a.86.86,0,0,1,.14-.13l.1-.14c.15-.22.29-.45.43-.69l0-.09Z" />
			<path class="cls-7" d="M62.16,153.15c-.16-.11-.34-.21-.5-.33l.35.33.22,0Z" />
			<path class="cls-6" d="M64.72,152.25a3.51,3.51,0,0,0-.68-.32,4.31,4.31,0,0,0-.49-.11c.11.09.24.16.35.24l.27.22a2.48,2.48,0,0,1,.25.3s0,0,0,0a2,2,0,0,1-.33-.16l-.19-.07.14.12a1.18,1.18,0,0,1,.25.19c0,.07-.18.56-.19.56-.21-.07-.39-.19-.6-.25l-.43-.15.18.1c.12.06.23.14.34.2l.47.26h.12a.86.86,0,0,1,.14-.13l.1-.14c.15-.22.29-.45.43-.69l0-.09Z" />
			<path class="cls-8" d="M61.64,152.69a1.6,1.6,0,0,0,.58.08l-.14,0a2.18,2.18,0,0,1-.44-.11s0,0,0,0l.59-.32.55-.28.27-.13a.46.46,0,0,1,.2-.05c.12,0,.2.13.3.19,0-.09-.18-.16-.25-.22h-.08l-.34.11a4.35,4.35,0,0,0-.84.41,6.32,6.32,0,0,0-.56.33l.26.28a1.27,1.27,0,0,0-.13-.19S61.62,152.68,61.64,152.69Z" />
			<path class="cls-5" d="M73.76,153.71c.27-.05.65-.18.48-.43a.41.41,0,0,0,0-.09l-.07-.06a4.24,4.24,0,0,0-1.15-.82,3.56,3.56,0,0,0-1.09-.24,2,2,0,0,0-1.31.58.71.71,0,0,0-.23.49c0,.18.28.17.38.18.73.06,1.45.22,2.18.3C73.18,153.65,73.47,153.69,73.76,153.71Z" />
			<path class="cls-8" d="M70.77,152.62a1.77,1.77,0,0,1,.73-.38,6.53,6.53,0,0,1,1.53.1l-.06,0a3.56,3.56,0,0,0-1.09-.24,2,2,0,0,0-1.31.58.85.85,0,0,0-.17.23A2.45,2.45,0,0,1,70.77,152.62Z" />
			<path class="cls-6" d="M74.24,153.28a.41.41,0,0,0,0-.09l-.07-.06a4.39,4.39,0,0,0-1-.77l.31.25a.08.08,0,0,1,0,.12,3.81,3.81,0,0,1-1.12.34,9.32,9.32,0,0,1-1.18,0c-.13,0-.57,0-.67-.07h0a.59.59,0,0,0,0,.2c0,.18.28.17.38.18.73.06,1.45.22,2.18.3.28,0,.57.07.86.09S74.41,153.53,74.24,153.28Z" />
			<path class="cls-6" d="M74.24,153.28a.41.41,0,0,0,0-.09l-.07-.06a4.39,4.39,0,0,0-1-.77l.31.25a.08.08,0,0,1,0,.12h0a5.25,5.25,0,0,0,.36.66,2.75,2.75,0,0,1,.19.28C74.14,153.61,74.38,153.49,74.24,153.28Z" />
			<path class="cls-6" d="M72.39,153.05h0c0,.07,0,.15,0,.23a2.11,2.11,0,0,1,0,.25l.37.05C72.6,153.42,72.5,153.24,72.39,153.05Z" />
			<path class="cls-5" d="M180.26,160.9a5.85,5.85,0,0,0-1-1.17,8.18,8.18,0,0,0-1.41-1l-.72-.09a9.59,9.59,0,0,0-1.93.06c-.44,0-.9.08-1.34.16.16.49.35,1,.55,1.44.67.5,1.36,1,2.07,1.39.5.29,1,.57,1.54.82l.21.09.39-.12.29-.18c.48-.29.94-.6,1.39-.93l.18-.13C180.41,161.13,180.34,161,180.26,160.9Z" />
			<path class="cls-9" d="M180.26,160.9a5.85,5.85,0,0,0-1-1.17,9,9,0,0,0-1.18-.87v0c.16.33.26.68.39,1,.05.14.19.41,0,.53a.56.56,0,0,1-.29,0h-.31a6.16,6.16,0,0,1-1.21.08,2,2,0,0,1-1-.38c-.35-.24-.68-.5-1-.74s-.57-.34-.84-.52c.15.46.34.92.52,1.37.67.5,1.36,1,2.07,1.39.5.29,1,.57,1.54.82l.21.09.39-.12.29-.18c.48-.29.94-.6,1.39-.93l.18-.13C180.41,161.13,180.34,161,180.26,160.9Z" />
			<path class="cls-7" d="M174.69,160.42c-.2-.34-.46-.68-.65-1,.12.32.24.62.37.93l.37.27Z" />
			<path class="cls-6" d="M180.26,160.9a5.85,5.85,0,0,0-1-1.17,8.13,8.13,0,0,0-.82-.63c.13.26.3.5.45.75s.22.42.32.64a4,4,0,0,1,.22.77s0,.06-.06,0a3.71,3.71,0,0,1-.49-.56c-.09-.11-.19-.21-.28-.31,0,.11.09.23.14.35a2.63,2.63,0,0,1,.31.57c0,.16-.81.9-.82.89-.33-.31-.59-.68-.93-1s-.46-.41-.68-.64l.26.34c.17.22.3.46.47.68s.43.59.67.87h0l.21.09.39-.12.29-.18c.48-.29.94-.6,1.39-.93l.18-.13C180.41,161.13,180.34,161,180.26,160.9Z" />
			<path class="cls-8" d="M174.1,159.12a4,4,0,0,0,1,.65,1.5,1.5,0,0,0-.23-.2,5.71,5.71,0,0,1-.72-.58s0-.06,0-.06a12.26,12.26,0,0,0,1.36-.1c.43,0,.86,0,1.28-.05a4.28,4.28,0,0,1,.62,0,.87.87,0,0,1,.42.07c.22.15.27.42.41.62a2,2,0,0,0-.29-.63l-.15-.09-.72-.09a9.59,9.59,0,0,0-1.93.06c-.44,0-.9.08-1.34.16.09.25.17.49.27.73l-.09-.45S174.08,159.09,174.1,159.12Z" />
			<path class="cls-5" d="M173.72,157.65a7.26,7.26,0,0,0-1.8-.27,9.84,9.84,0,0,0-2,.19c-.24.16-.48.31-.71.48a11.13,11.13,0,0,0-1.68,1.54c-.36.38-.74.76-1.07,1.17.51.32,1,.59,1.59.86a28.38,28.38,0,0,0,2.92-.35,19.51,19.51,0,0,0,2-.46l.26-.07.25-.41c0-.13.09-.26.13-.38.2-.63.38-1.26.53-1.91,0-.08,0-.16,0-.25Z" />
			<path class="cls-9" d="M173.72,157.65a7.26,7.26,0,0,0-1.8-.27,9,9,0,0,0-1.72.14h0a11.12,11.12,0,0,1,1.13.61c.15.08.48.21.45.43s-.14.2-.22.27l-.28.26a8,8,0,0,1-1,1,2.21,2.21,0,0,1-1.14.4c-.49.06-1,.08-1.48.13s-.77.13-1.16.18c.5.3,1,.56,1.52.82a28.38,28.38,0,0,0,2.92-.35,19.51,19.51,0,0,0,2-.46l.26-.07.25-.41c0-.13.09-.26.13-.38.2-.63.38-1.26.53-1.91,0-.08,0-.16,0-.25Z" />
			<path class="cls-7" d="M168.37,161.51c-.44-.14-.94-.24-1.38-.43.34.19.69.37,1,.54l.55,0Z" />
			<path class="cls-6" d="M173.72,157.65a7.26,7.26,0,0,0-1.8-.27,8.24,8.24,0,0,0-1.22.07c.32.13.66.21,1,.33s.52.21.77.32a3.86,3.86,0,0,1,.79.52s0,.08,0,.08a4.35,4.35,0,0,1-.88-.13l-.49,0,.41.19c.21.1.52.12.7.28s0,1.43,0,1.43c-.53,0-1.05-.16-1.59-.17-.37,0-.73,0-1.1-.06a4.85,4.85,0,0,0,.49.11c.32.08.63.18,1,.25s.84.19,1.26.27h0l.26-.07.25-.41c0-.13.09-.26.13-.38.2-.63.38-1.26.53-1.91,0-.08,0-.16,0-.25Z" />
			<path class="cls-8" d="M166.84,160.8a4.07,4.07,0,0,0,1.42-.2h-.36a5.76,5.76,0,0,1-1.1,0,0,0,0,0,1,0-.06c.4-.36.78-.76,1.15-1.14s.74-.69,1.1-1a6.15,6.15,0,0,1,.53-.49.92.92,0,0,1,.44-.25c.3-.05.55.16.84.23a2.44,2.44,0,0,0-.75-.35l-.2,0c-.24.16-.48.31-.71.48a11.13,11.13,0,0,0-1.68,1.54c-.36.38-.74.76-1.07,1.17.26.16.53.31.8.45l-.43-.33S166.8,160.8,166.84,160.8Z" />
			<path class="cls-5" d="M176.13,162.78c.51-.05,1.24-.2,1-.71l-.09-.16a.71.71,0,0,1-.1-.14,8.36,8.36,0,0,0-2-1.77,7,7,0,0,0-2-.67,3.78,3.78,0,0,0-2.56.82,1.24,1.24,0,0,0-.52.85c0,.33.47.38.66.41,1.34.28,2.65.72,4,1C175.06,162.55,175.6,162.68,176.13,162.78Z" />
			<path class="cls-8" d="M170.79,160.12a3.11,3.11,0,0,1,1.44-.55,12.57,12.57,0,0,1,2.83.51L175,160a7,7,0,0,0-2-.67,3.78,3.78,0,0,0-2.56.82,1.64,1.64,0,0,0-.36.39A4.15,4.15,0,0,1,170.79,160.12Z" />
			<path class="cls-9" d="M177.12,162.07l-.09-.16a.71.71,0,0,1-.1-.14,8.2,8.2,0,0,0-1.79-1.64c.18.17.36.35.52.53a.15.15,0,0,1-.07.22,7.7,7.7,0,0,1-2.17.4,15.68,15.68,0,0,1-2.16-.35c-.25-.05-1.08,0-1.24-.26,0,0,0,0,0,0a1.07,1.07,0,0,0-.12.37c0,.33.47.38.66.41,1.34.28,2.65.72,4,1,.52.12,1.06.25,1.59.35C176.64,162.73,177.37,162.58,177.12,162.07Z" />
			<path class="cls-6" d="M177.12,162.07l-.09-.16a.71.71,0,0,1-.1-.14,8.2,8.2,0,0,0-1.79-1.64c.18.17.36.35.52.53a.15.15,0,0,1-.07.22h0a8.38,8.38,0,0,0,.54,1.31c.1.19.21.37.3.56C176.85,162.67,177.33,162.5,177.12,162.07Z" />
			<path class="cls-6" d="M173.72,161.27h0c0,.15-.05.29-.07.43s-.06.32-.1.47c.23.07.46.12.69.17C174,162,173.88,161.63,173.72,161.27Z" />
			<path class="cls-4" d="M31.6,166.15A33.22,33.22,0,0,0,33.54,162c-1.71,2.37-3.57,4.63-5.28,7l-2,2.73c1-.13,1.93-.29,2.88-.46A28.21,28.21,0,0,1,31.6,166.15Z" />
			<path class="cls-10" d="M26.39,172.74c1.34-.51-.28.36-.53.76a2.57,2.57,0,0,0-.46,1.16c.76-.15,1.53-.46,2.21-.66,1.42-.42,2.89-.64,4.34-.92,3.15-.63,6.27-1.43,9.39-2.2,6.31-1.56,12.66-3,19-4.51,6.47-1.59,12.93-3.14,19.28-5.15,5.36-1.7,11.55-3.12,16-6.73a97.29,97.29,0,0,0-13.57-.92,191.19,191.19,0,0,0-25.36,3.15c-7.37,1.46-14.74,2.51-22,4.59-3.84,1.11-7.58,2.49-11.33,3.86-3.09,1.12-19.62,8.92-15.2,9.16,2.64.14,12.66,0,16.13-1Z" />
			<path class="cls-11" d="M34,170.35c7-1.53,13.79-3.51,20.75-5,6.79-1.45,13.65-2.63,20.37-4.37,3.34-.87,6.64-1.87,9.88-3.07,2.48-.92,4.88-2.06,7.4-2.84a13.23,13.23,0,0,1-2.15-2.65c-1.31-2.13-2.16-4.52-3.49-6.65-2.76-4.4-7.68-5.55-12-7.66s-8.56-5-13.43-4.55c-4.35.41-8.19,4-11.51,6.65-2.05,1.64-4.12,3.28-6.21,4.84a73.12,73.12,0,0,1-6.49,4,31.48,31.48,0,0,0-10,9.6c-1.88,2.82-6.25,8.77-9.68,13.33C23,172.61,28.63,171.52,34,170.35Z" />
			<path class="cls-6" d="M90.22,152.42c-1.31-2.13-2.16-4.52-3.49-6.65-2.76-4.4-7.68-5.55-12-7.66s-8.56-5-13.43-4.55c-4.35.41-8.19,4-11.51,6.65-2.05,1.64-4.12,3.28-6.21,4.84a73.12,73.12,0,0,1-6.49,4q-.54.33-1.08.69c.47,0,.82.37,1,1.11a13,13,0,0,1-.55,5.29,14.82,14.82,0,0,1-2.28,5c-1.88,2.7-4,5.22-5.93,7.89l-2,2.73c2.59-.34,5.16-.87,7.66-1.42,7-1.53,13.79-3.51,20.75-5,6.79-1.45,13.65-2.63,20.37-4.37,3.34-.87,6.64-1.87,9.88-3.07,2.48-.92,4.88-2.06,7.4-2.84A13.23,13.23,0,0,1,90.22,152.42Zm-26.17-1.87c-.41,4-3.53,6.49-6.74,8.47-1.42.88-3.22,2.08-5,2.13-1,0-2.23-.21-2-1.44A31.41,31.41,0,0,1,53,152.32c-2.12,2.91-4.54,5.62-6.25,8.82-.15.29-.57.08-.51-.22.26-1.28.58-2.54.94-3.79a25.75,25.75,0,0,1-4.38,3.3,59,59,0,0,1-8.37,4.74.29.29,0,0,1-.43-.24c-.18-2,.74-4,1.6-5.67,1-2,2.22-4,3.05-6.07,1.73-4.39,4.95-7.05,8.5-10a.27.27,0,0,1,.27,0c2.94-2.58,6-5,9.84-6.07a.28.28,0,0,1,.34.35c-.23.64-.46,1.28-.7,1.92,0,.84-.06,1.67-.1,2.51a35.64,35.64,0,0,1,4.41-6.53.28.28,0,0,1,.44.06c1.07,2.41.79,5.21,1.41,7.76S64.31,148,64.05,150.55Zm8.44,2.15c-.23,1.76-1.66,3.23-2.26,4.86a.29.29,0,0,1-.55,0,39.73,39.73,0,0,1-1-9.34c-.83-3.22-.57-6.68-.45-10a.28.28,0,0,1,.52-.14c1.91,2.67,3.78,4.93,3.71,8.38A61.64,61.64,0,0,1,72.49,152.7Z" />
			<path class="cls-4" d="M40.89,168.7l1.72-.43c1-3.42,3.08-6.48,4.21-9.87l.14-.53c-1.2,1.25-1.91,3.16-2.9,4.48C42.63,164.28,41.91,166.56,40.89,168.7Z" />
			<path class="cls-4" d="M59.88,164.29l2.62-.53c.31-1.4.15-2.95.36-4.35s.53-2.86.63-4.3C62.4,158.21,60.85,161.14,59.88,164.29Z" />
			<path class="cls-6" d="M90.22,152.42c-1.31-2.13-2.16-4.52-3.49-6.65-2.76-4.4-7.68-5.55-12-7.66-3.06-1.5-6.16-3.44-9.47-4.23,0,.44,0,.87,0,1.23a17.49,17.49,0,0,0,.43,5.94c.76,2.48,1.4,4.92,1.94,7.45.31,1.47.8,2.88,1.24,4.3-.13-1.52-.18-3.05-.19-4.58-.83-3.22-.57-6.68-.45-10,0-.29,1.36,1,1.75,1.57,2.39,1.48,3.48,4.91,4.13,7.46.93,3.66-.28,11.54-.34,11.28a24.61,24.61,0,0,0-1-3.27c-.44,1.93-.74,3.8-2.46,5.1a37.81,37.81,0,0,0-3.51,2.5c2.75-.58,5.51-1.19,8.23-1.89,3.34-.87,6.64-1.87,9.88-3.07,2.48-.92,4.88-2.06,7.4-2.84A13.23,13.23,0,0,1,90.22,152.42Z" />
			<path class="cls-8" d="M42,149.43c-2.89,4.27-4.59,9-6.61,13.73,3.44-3.06,4.39-8.07,6.43-12a27.22,27.22,0,0,1,4.1-6.27,20.15,20.15,0,0,1,1.51-1.42A26.11,26.11,0,0,0,42,149.43Z" />
			<path class="cls-8" d="M51.92,158.72c3-3.72,3.76-8.73,4.39-13.45-.66,1.88-1.2,3.8-1.89,5.67C53.48,153.48,52.11,156,51.92,158.72Z" />
			<path class="cls-8" d="M69.73,148l0,.21a.25.25,0,0,1,.12.21,33,33,0,0,0,.73,5.6C71.39,152,71.5,149.43,69.73,148Z" />
			<path class="cls-8" d="M21.89,167.06c1.53-2,2.86-4.07,4.32-6.11a49.85,49.85,0,0,1,9.45-10.17c1.9-1.52,4-2.76,5.85-4.31-1.43.89-2.9,1.68-4.37,2.55a31.48,31.48,0,0,0-10,9.6c-1.88,2.82-6.25,8.77-9.68,13.33h.06A24.84,24.84,0,0,0,21.89,167.06Z" />
			<path class="cls-5" d="M22.68,168.93a9.67,9.67,0,0,0-2.22-1.07,13.2,13.2,0,0,0-2.71-.57l-1.11.33A16.21,16.21,0,0,0,13.85,169c-.62.35-1.26.68-1.85,1.09.54.62,1.13,1.19,1.72,1.75a35,35,0,0,0,3.92.71c.92.11,1.85.19,2.78.22h.37l.49-.43c.11-.15.21-.3.32-.44.51-.73,1-1.49,1.44-2.26.05-.1.12-.2.18-.3C23,169.17,22.86,169,22.68,168.93Z" />
			<path class="cls-12" d="M22.68,168.93a9.67,9.67,0,0,0-2.22-1.07,12,12,0,0,0-2.29-.51l0,0a14.28,14.28,0,0,1,1.22,1.24c.16.16.54.47.41.74a.79.79,0,0,1-.39.26l-.47.22a11.1,11.1,0,0,1-1.71.89,3.19,3.19,0,0,1-1.65.06c-.66-.13-1.31-.3-2-.43-.51-.11-1-.13-1.56-.23.52.59,1.08,1.13,1.64,1.67a35,35,0,0,0,3.92.71c.92.11,1.85.19,2.78.22h.37l.49-.43c.11-.15.21-.3.32-.44.51-.73,1-1.49,1.44-2.26.05-.1.12-.2.18-.3C23,169.17,22.86,169,22.68,168.93Z" />
			<path class="cls-7" d="M14.21,171.79c-.51-.36-1.11-.69-1.62-1.11.37.38.75.75,1.13,1.11l.72.16Z" />
			<path class="cls-12" d="M22.68,168.93a9.67,9.67,0,0,0-2.22-1.07,11.52,11.52,0,0,0-1.61-.41c.36.3.77.55,1.14.82s.59.48.87.73a6.44,6.44,0,0,1,.82,1s0,.11-.05.1a6.4,6.4,0,0,1-1.09-.52l-.61-.27.44.42c.25.21.63.37.81.64s-.6,1.85-.62,1.84c-.69-.24-1.31-.63-2-.86-.47-.16-.94-.31-1.4-.51l.6.34c.38.22.74.48,1.12.69l1.53.86h.38l.49-.43c.11-.15.21-.3.32-.44.51-.73,1-1.49,1.44-2.26.05-.1.12-.2.18-.3C23,169.17,22.86,169,22.68,168.93Z" />
			<path class="cls-8" d="M12.52,170.26a5.54,5.54,0,0,0,1.91.3l-.46-.14a9,9,0,0,1-1.44-.39.06.06,0,0,1,0-.1c.67-.3,1.3-.67,2-1s1.22-.59,1.83-.9a9.13,9.13,0,0,1,.89-.43,1.49,1.49,0,0,1,.66-.15c.41.07.66.43,1,.64a3.29,3.29,0,0,0-.83-.75l-.28,0-1.11.33A16.21,16.21,0,0,0,13.85,169c-.62.35-1.26.68-1.85,1.09.28.31.56.61.85.91-.13-.21-.27-.41-.42-.61S12.47,170.24,12.52,170.26Z" />
			<path class="cls-5" d="M28.25,170.47a5.83,5.83,0,0,0-1.21-.95,8.35,8.35,0,0,0-1.59-.7l-.72.05a10.07,10.07,0,0,0-1.88.44c-.42.13-.86.26-1.28.43.25.44.54.87.83,1.29a24.27,24.27,0,0,0,2.3,1c.55.19,1.11.36,1.67.5l.23,0,.36-.2.25-.23c.4-.38.8-.77,1.17-1.19l.16-.16Z" />
			<path class="cls-12" d="M28.25,170.47a5.83,5.83,0,0,0-1.21-.95,7.58,7.58,0,0,0-1.33-.61h0c.22.29.39.61.58.92.08.13.27.36.15.51s-.19.09-.27.11a1.77,1.77,0,0,0-.31.08,7.75,7.75,0,0,1-1.17.31,2,2,0,0,1-1-.19c-.38-.16-.76-.35-1.14-.52s-.62-.22-.93-.34c.24.42.51.83.79,1.23a24.27,24.27,0,0,0,2.3,1c.55.19,1.11.36,1.67.5l.23,0,.36-.2.25-.23c.4-.38.8-.77,1.17-1.19l.16-.16Z" />
			<path class="cls-7" d="M22.7,171.1c-.27-.29-.59-.57-.85-.9.18.29.36.56.55.83l.42.2Z" />
			<path class="cls-12" d="M28.25,170.47a5.83,5.83,0,0,0-1.21-.95,8.91,8.91,0,0,0-.93-.46c.18.23.4.43.58.65s.3.37.45.56a4.84,4.84,0,0,1,.36.72s0,.06,0,0a3.33,3.33,0,0,1-.59-.46l-.35-.25.22.32c.12.16.34.31.41.5s-.61,1-.63,1c-.38-.24-.71-.56-1.1-.79a8.09,8.09,0,0,1-.79-.5l.32.29c.2.18.38.39.59.57s.54.49.83.73h0l.23,0,.36-.2.25-.23c.4-.38.8-.77,1.17-1.19l.16-.16Z" />
			<path class="cls-8" d="M21.86,169.94a3.46,3.46,0,0,0,1.13.44,2.2,2.2,0,0,0-.26-.15,5,5,0,0,1-.83-.43,0,0,0,0,1,0-.06c.45-.1.88-.24,1.32-.37s.83-.19,1.24-.31c.2-.05.4-.11.6-.14a.79.79,0,0,1,.43,0c.24.09.34.35.52.52a2.12,2.12,0,0,0-.41-.57l-.17-.05-.72.05a10.07,10.07,0,0,0-1.88.44c-.42.13-.86.26-1.28.43.13.22.26.44.41.66L21.8,170A0,0,0,0,1,21.86,169.94Z" />
			<path class="cls-5" d="M25.31,173c.38-.11.93-.34.65-.7l-.09-.11-.1-.09A6.47,6.47,0,0,0,24,171.08a5.11,5.11,0,0,0-1.63-.21,3,3,0,0,0-1.86,1,1.06,1.06,0,0,0-.27.74c0,.26.43.21.58.21,1.08,0,2.16.14,3.24.17Z" />
			<path class="cls-8" d="M20.76,171.82a2.64,2.64,0,0,1,1-.66,10.75,10.75,0,0,1,2.27,0l-.1,0a5.11,5.11,0,0,0-1.63-.21,3,3,0,0,0-1.86,1,1.21,1.21,0,0,0-.21.36A3,3,0,0,1,20.76,171.82Z" />
			<path class="cls-12" d="M26,172.34l-.09-.11-.1-.09a6.24,6.24,0,0,0-1.64-1,5.25,5.25,0,0,1,.49.33.11.11,0,0,1,0,.17,5.91,5.91,0,0,1-1.61.65,12.45,12.45,0,0,1-1.73.07c-.2,0-.84.15-1,0,0,0,0,0,0,0a1,1,0,0,0,0,.3c0,.26.43.21.58.21,1.08,0,2.16.14,3.24.17l1.29,0C25.69,172.93,26.24,172.7,26,172.34Z" />
			<path class="cls-12" d="M26,172.34l-.09-.11-.1-.09a6.24,6.24,0,0,0-1.64-1,5.25,5.25,0,0,1,.49.33.11.11,0,0,1,0,.17h0a5.79,5.79,0,0,0,.62.93l.31.38C25.85,172.84,26.19,172.64,26,172.34Z" />
			<path class="cls-12" d="M23.21,172.25h0c0,.11,0,.22,0,.34V173l.55,0C23.56,172.76,23.39,172.51,23.21,172.25Z" />
			<path class="cls-5" d="M96.7,155a5.89,5.89,0,0,0-1.22-.95,8.26,8.26,0,0,0-1.58-.7l-.72.05a10.07,10.07,0,0,0-1.88.44c-.43.13-.86.26-1.28.43.25.44.53.87.82,1.3.76.35,1.52.67,2.31.95.55.19,1.1.36,1.67.5l.22.05.36-.2.25-.23a16.56,16.56,0,0,0,1.18-1.19l.15-.16Z" />
			<path class="cls-9" d="M96.7,155a5.89,5.89,0,0,0-1.22-.95,7.27,7.27,0,0,0-1.33-.61h0c.22.29.39.62.58.92.07.13.27.36.15.51a.54.54,0,0,1-.27.11,1.57,1.57,0,0,0-.31.08,8.43,8.43,0,0,1-1.17.31,2,2,0,0,1-1-.19c-.38-.16-.76-.35-1.14-.52s-.63-.22-.93-.34c.24.42.51.83.78,1.24.76.35,1.52.67,2.31.95.55.19,1.1.36,1.67.5l.22.05.36-.2.25-.23a16.56,16.56,0,0,0,1.18-1.19l.15-.16Z" />
			<path class="cls-7" d="M91.14,155.67c-.26-.29-.59-.57-.84-.9.17.29.36.56.54.84l.42.19Z" />
			<path class="cls-6" d="M96.7,155a5.89,5.89,0,0,0-1.22-.95,7.31,7.31,0,0,0-.93-.46c.18.23.4.43.59.65s.3.37.44.56a4.08,4.08,0,0,1,.37.72s0,.06,0,.05a3.74,3.74,0,0,1-.59-.46L95,154.9a3.62,3.62,0,0,0,.22.32c.11.16.33.31.41.5s-.62,1.05-.63,1c-.39-.24-.72-.56-1.11-.79s-.54-.31-.79-.5l.33.29c.2.18.38.39.59.57l.82.73h0l.22.05.36-.2.25-.23a16.56,16.56,0,0,0,1.18-1.19l.15-.16Z" />
			<path class="cls-8" d="M90.31,154.51a3.46,3.46,0,0,0,1.13.44,2.34,2.34,0,0,0-.27-.15,6.52,6.52,0,0,1-.83-.43s0-.06,0-.06c.45-.1.89-.24,1.32-.37s.83-.2,1.25-.31a5.63,5.63,0,0,1,.59-.14.79.79,0,0,1,.43,0c.25.09.35.35.53.52-.06-.21-.3-.41-.41-.56a.58.58,0,0,0-.17-.06l-.72.05a10.07,10.07,0,0,0-1.88.44c-.43.13-.86.26-1.28.43.13.22.26.44.4.66l-.17-.42A0,0,0,0,1,90.31,154.51Z" />
			<path class="cls-5" d="M89.64,153.15a7.42,7.42,0,0,0-1.82.09,10.2,10.2,0,0,0-1.95.59c-.21.2-.41.4-.6.61a11.6,11.6,0,0,0-1.35,1.84c-.27.44-.57.89-.81,1.36.57.21,1.15.37,1.73.53a26.07,26.07,0,0,0,2.79-.93c.64-.25,1.27-.53,1.88-.84l.24-.12c.06-.15.11-.3.17-.46s0-.26,0-.4c.07-.65.12-1.3.14-2v-.27Z" />
			<path class="cls-9" d="M89.64,153.15a7.42,7.42,0,0,0-1.82.09,10.49,10.49,0,0,0-1.66.47h0c.42.09.82.25,1.23.37.16,0,.51.12.52.34a.62.62,0,0,1-.16.31,2.18,2.18,0,0,0-.22.31,8.63,8.63,0,0,1-.8,1.17,2.22,2.22,0,0,1-1.05.62c-.47.15-.95.27-1.43.42s-.72.28-1.09.4c.54.2,1.1.36,1.65.51a26.07,26.07,0,0,0,2.79-.93c.64-.25,1.27-.53,1.88-.84l.24-.12c.06-.15.11-.3.17-.46s0-.26,0-.4c.07-.65.12-1.3.14-2v-.27Z" />
			<path class="cls-7" d="M85.16,158a14.36,14.36,0,0,1-1.44-.15c.37.12.75.23,1.12.33l.53-.15Z" />
			<path class="cls-6" d="M89.64,153.15a7.42,7.42,0,0,0-1.82.09,7.87,7.87,0,0,0-1.18.31c.34.06.69.08,1,.13s.56.1.83.16a4.75,4.75,0,0,1,.88.35s0,.07,0,.08a4.43,4.43,0,0,1-.89,0l-.49.05.43.11a2.62,2.62,0,0,1,.75.13c.18.09.27,1.4.25,1.41-.53.08-1.07,0-1.6.14a9.89,9.89,0,0,1-1.09.17h.51c.33,0,.65,0,1,0l1.3,0h0l.24-.12c.06-.15.11-.3.17-.46s0-.26,0-.4c.07-.65.12-1.3.14-2v-.27Z" />
			<path class="cls-8" d="M83.52,157.6a4.2,4.2,0,0,0,1.35-.48l-.35.07a6.4,6.4,0,0,1-1.07.25s0,0,0-.06c.32-.43.61-.89.9-1.35s.59-.81.87-1.23c.13-.2.27-.4.42-.59a1.11,1.11,0,0,1,.38-.33c.29-.1.58.05.87.06a2.52,2.52,0,0,0-.8-.19l-.19.08c-.21.2-.41.4-.6.61a11.6,11.6,0,0,0-1.35,1.84c-.27.44-.57.89-.81,1.36.29.1.58.2.87.28l-.48-.24S83.49,157.61,83.52,157.6Z" />
			<path class="cls-5" d="M93,157.7c.48-.15,1.17-.44.83-.89l-.12-.14-.13-.12a8.35,8.35,0,0,0-2.29-1.34,7.06,7.06,0,0,0-2.07-.27,3.86,3.86,0,0,0-2.36,1.31,1.36,1.36,0,0,0-.33.94c0,.33.54.27.73.27,1.37,0,2.74.18,4.11.21C91.93,157.68,92.48,157.71,93,157.7Z" />
			<path class="cls-8" d="M87.26,156.15a3.15,3.15,0,0,1,1.3-.83,13.76,13.76,0,0,1,2.87-.06l-.12,0a7.06,7.06,0,0,0-2.07-.27,3.86,3.86,0,0,0-2.36,1.31,2,2,0,0,0-.27.46A4.93,4.93,0,0,1,87.26,156.15Z" />
			<path class="cls-9" d="M93.85,156.81l-.12-.14-.13-.12a8,8,0,0,0-2.08-1.25,6.74,6.74,0,0,1,.62.42.14.14,0,0,1,0,.22,7.65,7.65,0,0,1-2,.82,16,16,0,0,1-2.19.09c-.26,0-1.07.19-1.27,0l0,0a1.17,1.17,0,0,0,0,.38c0,.33.54.27.73.27,1.37,0,2.74.18,4.11.21.54,0,1.09,0,1.63,0S94.19,157.26,93.85,156.81Z" />
			<path class="cls-6" d="M93.85,156.81l-.12-.14-.13-.12a8,8,0,0,0-2.08-1.25,6.74,6.74,0,0,1,.62.42.14.14,0,0,1,0,.22h0a7.83,7.83,0,0,0,.79,1.18c.13.16.27.32.4.49C93.7,157.45,94.14,157.19,93.85,156.81Z" />
			<path class="cls-6" d="M90.35,156.7h0c0,.14,0,.28,0,.43v.48l.71,0C90.8,157.35,90.58,157,90.35,156.7Z" />
			<path class="cls-5" d="M67.14,161.8a4.59,4.59,0,0,0-1-.15,5.92,5.92,0,0,0-1.18.13l-.41.28a7,7,0,0,0-1,.92,6.68,6.68,0,0,0-.61.69,10.2,10.2,0,0,0,.93.48,13.89,13.89,0,0,0,1.7-.23,9.33,9.33,0,0,0,1.16-.28l.15,0,.15-.25c0-.07,0-.14.07-.22a10,10,0,0,0,.28-1.11.83.83,0,0,0,0-.15Z" />
			<path class="cls-6" d="M67.14,161.8a4.59,4.59,0,0,0-1-.15,5.65,5.65,0,0,0-1,.1h0c.23.1.44.23.66.35s.28.12.26.25-.08.12-.12.16-.11.09-.16.15a5.48,5.48,0,0,1-.59.59,1.39,1.39,0,0,1-.66.24l-.86.08c-.23,0-.45.09-.67.12.29.17.59.32.89.46a13.89,13.89,0,0,0,1.7-.23,9.33,9.33,0,0,0,1.16-.28l.15,0,.15-.25c0-.07,0-.14.07-.22a10,10,0,0,0,.28-1.11.83.83,0,0,0,0-.15Z" />
			<path class="cls-7" d="M64.06,164.09c-.25-.08-.54-.14-.81-.24l.61.3.32,0Z" />
			<path class="cls-6" d="M67.14,161.8a4.59,4.59,0,0,0-1-.15,5.78,5.78,0,0,0-.71,0c.19.08.39.12.58.19l.45.18a2.39,2.39,0,0,1,.46.29s0,0,0,0a2.16,2.16,0,0,1-.51-.07l-.29,0,.24.12a1.56,1.56,0,0,1,.41.15c.09.07,0,.83,0,.83-.31,0-.62-.08-.93-.08s-.43,0-.64,0l.29.06c.18,0,.36.09.55.13l.74.14h0l.15,0,.15-.25c0-.07,0-.14.07-.22a10,10,0,0,0,.28-1.11.83.83,0,0,0,0-.15Z" />
			<path class="cls-8" d="M63.17,163.69a2.56,2.56,0,0,0,.82-.13h-.21a3.39,3.39,0,0,1-.64,0s0,0,0,0c.23-.21.44-.45.66-.67s.42-.41.63-.62l.3-.29a.84.84,0,0,1,.26-.15c.17,0,.32.09.49.13a1.54,1.54,0,0,0-.44-.19l-.12,0-.41.28a7,7,0,0,0-1,.92,6.68,6.68,0,0,0-.61.69c.15.09.31.17.47.25l-.26-.19S63.14,163.69,63.17,163.69Z" />
			<path class="cls-5" d="M48.88,166.08a3.08,3.08,0,0,0-.73-.16,4.72,4.72,0,0,0-.84,0l-.31.18a5.79,5.79,0,0,0-.72.59c-.16.15-.32.29-.47.46.21.14.42.27.64.39.4,0,.8,0,1.2-.07s.56-.08.84-.14l.11,0a1.63,1.63,0,0,1,.11-.17l.06-.15a7,7,0,0,0,.26-.77l0-.1Z" />
			<path class="cls-6" d="M48.88,166.08a3.08,3.08,0,0,0-.73-.16,4.18,4.18,0,0,0-.71,0h0c.16.08.3.19.45.28s.19.1.17.19-.06.08-.1.11l-.12.09a3.23,3.23,0,0,1-.44.39.89.89,0,0,1-.48.13l-.61,0c-.16,0-.32,0-.48,0,.2.14.4.26.61.38.4,0,.8,0,1.2-.07s.56-.08.84-.14l.11,0a1.63,1.63,0,0,1,.11-.17l.06-.15a7,7,0,0,0,.26-.77l0-.1Z" />
			<path class="cls-7" d="M46.59,167.53c-.18-.07-.38-.12-.56-.21l.42.25h.22Z" />
			<path class="cls-6" d="M48.88,166.08a3.08,3.08,0,0,0-.73-.16h-.51l.4.16.31.15a1.83,1.83,0,0,1,.31.24s0,0,0,0a1.37,1.37,0,0,1-.35-.08l-.2,0,.16.09a1,1,0,0,1,.28.13c.06.06,0,.59,0,.59-.22,0-.43-.09-.65-.11l-.45-.05.2.06c.13,0,.25.08.38.12l.52.14h0l.11,0a1.63,1.63,0,0,1,.11-.17l.06-.15a7,7,0,0,0,.26-.77l0-.1Z" />
			<path class="cls-8" d="M46,167.21a2,2,0,0,0,.59-.05h-.15a2.26,2.26,0,0,1-.45,0s0,0,0,0c.18-.14.34-.29.5-.44l.48-.4a1.45,1.45,0,0,1,.23-.19.31.31,0,0,1,.18-.09c.13,0,.23.08.34.11a.87.87,0,0,0-.3-.16h-.08l-.31.18a5.79,5.79,0,0,0-.72.59c-.16.15-.32.29-.47.46l.32.2-.17-.15S46,167.2,46,167.21Z" />
			<path class="cls-5" d="M58,165.45c.25-.11.59-.32.37-.53l-.07-.07-.08,0a4.7,4.7,0,0,0-1.31-.54,3.81,3.81,0,0,0-1.12,0,2,2,0,0,0-1.14.87.68.68,0,0,0-.11.52c0,.17.31.1.41.09.72-.1,1.46-.11,2.19-.2C57.44,165.53,57.74,165.5,58,165.45Z" />
			<path class="cls-8" d="M54.86,165.06c.18-.18.36-.45.63-.53a6.91,6.91,0,0,1,1.51-.25l-.07,0a3.81,3.81,0,0,0-1.12,0,2,2,0,0,0-1.14.87.73.73,0,0,0-.11.26A2,2,0,0,1,54.86,165.06Z" />
			<path class="cls-6" d="M58.39,164.92l-.07-.07-.08,0a4.3,4.3,0,0,0-1.19-.5,2.92,2.92,0,0,1,.36.17.07.07,0,0,1,0,.12,4.17,4.17,0,0,1-1,.59,8.94,8.94,0,0,1-1.15.21c-.14,0-.55.18-.67.09l0,0a.5.5,0,0,0,0,.21c0,.17.31.1.41.09.72-.1,1.46-.11,2.19-.2.28,0,.58-.06.86-.11S58.61,165.13,58.39,164.92Z" />
			<path class="cls-6" d="M58.39,164.92l-.07-.07-.08,0a4.3,4.3,0,0,0-1.19-.5,2.92,2.92,0,0,1,.36.17.07.07,0,0,1,0,.12h0a4.44,4.44,0,0,0,.5.56l.25.23C58.37,165.27,58.57,165.1,58.39,164.92Z" />
			<path class="cls-6" d="M56.54,165.12h0a1.57,1.57,0,0,1,0,.23c0,.08,0,.17,0,.25l.37,0C56.82,165.43,56.68,165.28,56.54,165.12Z" />
			<path class="cls-10" d="M161.19,167.45c-8.9-3.27-17.85-2.49-26.87-3.15a86.67,86.67,0,0,1-13.73-1.89,21.85,21.85,0,0,0-6.58-.93c-1.61.1-3.19.42-4.79.64A55.65,55.65,0,0,0,97.61,162c-2,.16-4,.42-6,.71a4.42,4.42,0,0,0-3.23,1.53.91.91,0,0,0-.16.74c.73,1.84,3.67,1.82,5,2,3.18.52,6.36,1.11,9.53,1.73s6.08,1.6,9.12,2.37c3.49.89,7,.78,10.53.89,6.58.2,13.24.72,19.79.42a82.72,82.72,0,0,0,18.7-3.56C161.28,168.75,161.77,167.67,161.19,167.45Z" />
			<path class="cls-5" d="M149.72,156.48l-3-2.67a24.25,24.25,0,0,0-9.35-5.11c-1.91-.54-3.81-.94-5.67-1.67s-3.75-1.55-5.61-2.36c-3-1.3-6.58-3.2-10-2.68-3.81.57-6.58,3.51-9.45,5.83s-6.45,4.1-7.77,7.81c-.64,1.8-4.44,7.82-5.06,9.62-.54,1.56,21.6,4.64,37.06,4.46,3.67,0,26.37-2.41,26.66-2.36C156.41,164.16,151,159.61,149.72,156.48Z" />
			<path class="cls-4" d="M112.86,157.06c-.44,1.25-.81,2.61-1.29,3.9-.1.95-.21,1.9-.35,2.84a22.2,22.2,0,0,0,3.36-12.7A32,32,0,0,1,112.86,157.06Z" />
			<path class="cls-4" d="M149.72,156.48l-3-2.67a24.25,24.25,0,0,0-9.35-5.11c-.7-.2-1.4-.38-2.09-.56a31.4,31.4,0,0,0-1.49,9.83,17.56,17.56,0,0,1,1.83-3.84c.86-1.39,1.58-3.16,3.14-3.9a.28.28,0,0,1,.37.14,14.45,14.45,0,0,1,.78,7.2c-.29,2.21-1.6,4.08-2.21,6.16q2.21-3.75,4.76-7.28c.15-.21.57-.08.5.2-.56,2.34-.19,5-1.3,7.22-1,1.94-2.43,2.25-4.3,3.06-1.43.62-3,1.76-4.53.73a3.88,3.88,0,0,1-1.11-2.62,4.51,4.51,0,0,1-1,2c-.66.75-2.19.69-3.08.78a34.62,34.62,0,0,1-5.76.23,60.23,60.23,0,0,1-6-.39,24.27,24.27,0,0,0-6.62-.62,52,52,0,0,1-5.44,0c-1.32,0-2.62.08-3.91.12a190.68,190.68,0,0,0,31,2.54c3.67,0,26.37-2.41,26.66-2.36C156.41,164.16,151,159.61,149.72,156.48Z" />
			<path class="cls-4" d="M120.33,148.08a15.6,15.6,0,0,1,.43,2.49A26.92,26.92,0,0,1,121,156a15.72,15.72,0,0,1-2.68,7,.74.74,0,0,0,1-.49,12.5,12.5,0,0,0,1.24-2.48,21.25,21.25,0,0,0,1.36-4.66A13.51,13.51,0,0,0,120.33,148.08Z" />
			<path class="cls-4" d="M149.72,156.48l-3-2.67a24.25,24.25,0,0,0-9.35-5.11c-1.91-.54-3.81-.94-5.67-1.67s-3.75-1.55-5.61-2.36c-3-1.3-6.58-3.2-10-2.68-3.81.57-6.58,3.51-9.45,5.83s-6.45,4.1-7.77,7.81c-.64,1.8-4.44,7.82-5.06,9.62-.54,1.56,21.6,4.64,37.06,4.46,3.67,0,26.37-2.41,26.66-2.36C156.41,164.16,151,159.61,149.72,156.48Zm-39,6.41a4.36,4.36,0,0,1-2.56,2.24c-1.23.39-5.31,1.29-5.6-.93a10.09,10.09,0,0,1,.79-3.92l.18-.55c-.23.54-.45,1.08-.68,1.61-.42,1-.81,2.77-2,3.17-1,.34-5,.24-4.54-1.48A28.46,28.46,0,0,1,98.07,159a27.38,27.38,0,0,1,2.79-5.27c2-2.75,5.12-4.59,8-6.43a11.23,11.23,0,0,1,5.67-3.59.28.28,0,0,1,.33.3c-.19,2.23,0,4.48-.23,6.7a29.66,29.66,0,0,1-1.78,6.38A39.49,39.49,0,0,1,110.71,162.89Zm10.05-12.32A26.92,26.92,0,0,1,121,156a16.94,16.94,0,0,1-4.74,9.56c-.15.16-.48.15-.5-.12-.28-3.16.3-6.36.68-9.49.17-1.36.35-2.73.57-4.08a13.72,13.72,0,0,1,1.67-6.44.28.28,0,0,1,.44,0A11,11,0,0,1,120.76,150.57Zm8.12,13.23a17.11,17.11,0,0,0-2.29,1.37,6.38,6.38,0,0,1-1.87,1.35c-1.08.37-1.41-1.13-1.38-1.85a50.68,50.68,0,0,1,1.47-10.24c.06-2.55.46-5.15,2-7.09a.29.29,0,0,1,.45,0c1.47,1.85,2.47,4.06,3.85,6a9.65,9.65,0,0,1,2.24,5C133.46,161,130.88,162.62,128.88,163.8Zm10-11.91a22.15,22.15,0,0,1-5.63,13,.28.28,0,0,1-.49-.27c.89-3.41,1.62-6.89,3.54-9.82a14.08,14.08,0,0,1,2.07-3.06A.29.29,0,0,1,138.87,151.89Z" />
			<path class="cls-11" d="M149.72,156.48l-3-2.67a24.25,24.25,0,0,0-9.35-5.11c-1.91-.54-3.81-.94-5.67-1.67s-3.75-1.55-5.61-2.36c-3-1.3-6.58-3.2-10-2.68-3.81.57-6.58,3.51-9.45,5.83s-6.45,4.1-7.77,7.81c-.64,1.8-4.44,7.82-5.06,9.62-.54,1.56,21.6,4.64,37.06,4.46,3.67,0,26.37-2.41,26.66-2.36C156.41,164.16,151,159.61,149.72,156.48Z" />
			<path class="cls-4" d="M112.86,157.06c-.44,1.25-.81,2.61-1.29,3.9-.1.95-.21,1.9-.35,2.84a22.2,22.2,0,0,0,3.36-12.7A32,32,0,0,1,112.86,157.06Z" />
			<path class="cls-4" d="M149.72,156.48l-3-2.67a24.25,24.25,0,0,0-9.35-5.11c-.7-.2-1.4-.38-2.09-.56a31.4,31.4,0,0,0-1.49,9.83,17.56,17.56,0,0,1,1.83-3.84c.86-1.39,1.58-3.16,3.14-3.9a.28.28,0,0,1,.37.14,14.45,14.45,0,0,1,.78,7.2c-.29,2.21-1.6,4.08-2.21,6.16q2.21-3.75,4.76-7.28c.15-.21.57-.08.5.2-.56,2.34-.19,5-1.3,7.22-1,1.94-2.43,2.25-4.3,3.06-1.43.62-3,1.76-4.53.73a3.88,3.88,0,0,1-1.11-2.62,4.51,4.51,0,0,1-1,2c-.66.75-2.19.69-3.08.78a34.62,34.62,0,0,1-5.76.23,60.23,60.23,0,0,1-6-.39,24.27,24.27,0,0,0-6.62-.62,52,52,0,0,1-5.44,0c-1.32,0-2.62.08-3.91.12a190.68,190.68,0,0,0,31,2.54c3.67,0,26.37-2.41,26.66-2.36C156.41,164.16,151,159.61,149.72,156.48Z" />
			<path class="cls-4" d="M120.33,148.08a15.6,15.6,0,0,1,.43,2.49A26.92,26.92,0,0,1,121,156a15.72,15.72,0,0,1-2.68,7,.74.74,0,0,0,1-.49,12.5,12.5,0,0,0,1.24-2.48,21.25,21.25,0,0,0,1.36-4.66A13.51,13.51,0,0,0,120.33,148.08Z" />
			<path class="cls-4" d="M149.72,156.48l-3-2.67a24.25,24.25,0,0,0-9.35-5.11c-1.91-.54-3.81-.94-5.67-1.67s-3.75-1.55-5.61-2.36c-3-1.3-6.58-3.2-10-2.68-3.81.57-6.58,3.51-9.45,5.83s-6.45,4.1-7.77,7.81c-.64,1.8-4.44,7.82-5.06,9.62-.54,1.56,21.6,4.64,37.06,4.46,3.67,0,26.37-2.41,26.66-2.36C156.41,164.16,151,159.61,149.72,156.48Zm-39,6.41a4.36,4.36,0,0,1-2.56,2.24c-1.23.39-5.31,1.29-5.6-.93a10.09,10.09,0,0,1,.79-3.92l.18-.55c-.23.54-.45,1.08-.68,1.61-.42,1-.81,2.77-2,3.17-1,.34-5,.24-4.54-1.48A28.46,28.46,0,0,1,98.07,159a27.38,27.38,0,0,1,2.79-5.27c2-2.75,5.12-4.59,8-6.43a11.23,11.23,0,0,1,5.67-3.59.28.28,0,0,1,.33.3c-.19,2.23,0,4.48-.23,6.7a29.66,29.66,0,0,1-1.78,6.38A39.49,39.49,0,0,1,110.71,162.89Zm10.05-12.32A26.92,26.92,0,0,1,121,156a16.94,16.94,0,0,1-4.74,9.56c-.15.16-.48.15-.5-.12-.28-3.16.3-6.36.68-9.49.17-1.36.35-2.73.57-4.08a13.72,13.72,0,0,1,1.67-6.44.28.28,0,0,1,.44,0A11,11,0,0,1,120.76,150.57Zm8.12,13.23a17.11,17.11,0,0,0-2.29,1.37,6.38,6.38,0,0,1-1.87,1.35c-1.08.37-1.41-1.13-1.38-1.85a50.68,50.68,0,0,1,1.47-10.24c.06-2.55.46-5.15,2-7.09a.29.29,0,0,1,.45,0c1.47,1.85,2.47,4.06,3.85,6a9.65,9.65,0,0,1,2.24,5C133.46,161,130.88,162.62,128.88,163.8Zm10-11.91a22.15,22.15,0,0,1-5.63,13,.28.28,0,0,1-.49-.27c.89-3.41,1.62-6.89,3.54-9.82a14.08,14.08,0,0,1,2.07-3.06A.29.29,0,0,1,138.87,151.89Z" />
			<path class="cls-5" d="M153.51,165.59a4.14,4.14,0,0,0-1.16-.25,5.91,5.91,0,0,0-1.33,0l-.49.28a7.38,7.38,0,0,0-1.15.94,10,10,0,0,0-.74.72,9.41,9.41,0,0,0,1,.62,17.33,17.33,0,0,0,1.91-.11c.45-.06.89-.13,1.33-.22l.17,0,.18-.26a2.44,2.44,0,0,0,.1-.24c.16-.41.3-.81.42-1.22a1.09,1.09,0,0,1,.05-.17Z" />
			<path class="cls-6" d="M153.51,165.59a4.14,4.14,0,0,0-1.16-.25,6.1,6.1,0,0,0-1.13,0h0a7.56,7.56,0,0,1,.71.44c.1.06.31.16.28.3s-.11.13-.16.17l-.19.16a5.1,5.1,0,0,1-.7.61,1.46,1.46,0,0,1-.77.21c-.32,0-.64,0-1,0s-.51.07-.76.08c.31.21.63.4,1,.59a17.33,17.33,0,0,0,1.91-.11c.45-.06.89-.13,1.33-.22l.17,0,.18-.26a2.44,2.44,0,0,0,.1-.24c.16-.41.3-.81.42-1.22a1.09,1.09,0,0,1,.05-.17Z" />
			<path class="cls-7" d="M149.88,167.9c-.28-.11-.6-.2-.89-.34q.33.21.66.39H150Z" />
			<path class="cls-6" d="M153.51,165.59a4.14,4.14,0,0,0-1.16-.25,7.12,7.12,0,0,0-.8,0c.2.1.42.17.63.26a4.44,4.44,0,0,1,.49.24,3.08,3.08,0,0,1,.5.37s0,.05,0,.05a2.66,2.66,0,0,1-.56-.12l-.32,0,.25.14a1.92,1.92,0,0,1,.46.21,2.48,2.48,0,0,1-.09.93c-.34,0-.68-.14-1-.17s-.48,0-.71-.08l.32.09.6.2.82.22h0l.17,0,.18-.26a2.44,2.44,0,0,0,.1-.24c.16-.41.3-.81.42-1.22a1.09,1.09,0,0,1,.05-.17Z" />
			<path class="cls-8" d="M148.91,167.38a2.93,2.93,0,0,0,.93-.08l-.24,0a4.33,4.33,0,0,1-.72,0s0,0,0-.05c.27-.22.53-.46.79-.7s.51-.42.75-.63a3.57,3.57,0,0,1,.37-.31c.09-.05.19-.14.3-.14s.35.12.53.18a1.42,1.42,0,0,0-.47-.25l-.13,0-.49.28a7.38,7.38,0,0,0-1.15.94,10,10,0,0,0-.74.72l.5.33-.26-.24S148.88,167.37,148.91,167.38Z" />
			<path class="cls-5" d="M132.71,168.89a2.81,2.81,0,0,0-.81-.24,4.9,4.9,0,0,0-.94,0l-.35.18a5.18,5.18,0,0,0-.87.6c-.18.15-.38.3-.55.47a6.38,6.38,0,0,0,.67.49,12.34,12.34,0,0,0,1.36,0c.31,0,.63,0,.94-.08l.13,0,.14-.18c0-.05,0-.11.08-.16q.19-.42.36-.84s0-.08,0-.11A1.76,1.76,0,0,0,132.71,168.89Z" />
			<path class="cls-6" d="M132.71,168.89a2.81,2.81,0,0,0-.81-.24,4.19,4.19,0,0,0-.79,0h0c.17.11.32.23.48.35s.21.13.17.23-.07.08-.11.11a.71.71,0,0,0-.14.1,3.28,3.28,0,0,1-.53.39,1.06,1.06,0,0,1-.55.12l-.69,0c-.18,0-.35,0-.53,0a7.52,7.52,0,0,0,.64.47,12.34,12.34,0,0,0,1.36,0c.31,0,.63,0,.94-.08l.13,0,.14-.18c0-.05,0-.11.08-.16q.19-.42.36-.84s0-.08,0-.11A1.76,1.76,0,0,0,132.71,168.89Z" />
			<path class="cls-7" d="M130,170.33c-.2-.1-.42-.17-.61-.29l.44.31.25,0Z" />
			<path class="cls-6" d="M132.71,168.89a2.81,2.81,0,0,0-.81-.24,3.43,3.43,0,0,0-.56,0c.14.08.29.14.43.21l.33.19a2.37,2.37,0,0,1,.34.29s0,0,0,0a1.9,1.9,0,0,1-.39-.11l-.22-.05.17.11a1.87,1.87,0,0,1,.31.17c.06.07-.1.66-.11.65-.24,0-.47-.13-.72-.17l-.5-.09.22.08.42.17.56.2h0l.13,0,.14-.18c0-.05,0-.11.08-.16q.19-.42.36-.84s0-.08,0-.11A1.76,1.76,0,0,0,132.71,168.89Z" />
			<path class="cls-8" d="M129.37,169.91a1.83,1.83,0,0,0,.66,0l-.16,0a4.4,4.4,0,0,1-.51,0s0,0,0,0c.2-.14.4-.3.59-.46l.57-.41.27-.19a.73.73,0,0,1,.22-.09c.14,0,.24.11.37.16a1.07,1.07,0,0,0-.32-.2H131l-.35.18a5.18,5.18,0,0,0-.87.6c-.18.15-.38.3-.55.47a4.19,4.19,0,0,0,.33.26l-.17-.18S129.35,169.9,129.37,169.91Z" />
			<path class="cls-5" d="M143,168.93c.28-.11.69-.31.46-.56l-.08-.09-.08-.06a4.85,4.85,0,0,0-1.42-.71,4.51,4.51,0,0,0-1.26-.08,2.33,2.33,0,0,0-1.35.88.77.77,0,0,0-.17.58c0,.2.34.14.45.13.82-.05,1.65,0,2.47,0C142.34,169,142.67,169,143,168.93Z" />
			<path class="cls-8" d="M139.49,168.24a1.82,1.82,0,0,1,.74-.55,7.6,7.6,0,0,1,1.72-.15l-.07,0a4.51,4.51,0,0,0-1.26-.08,2.33,2.33,0,0,0-1.35.88,1,1,0,0,0-.15.29A2.51,2.51,0,0,1,139.49,168.24Z" />
			<path class="cls-6" d="M143.46,168.37l-.08-.09-.08-.06a4.77,4.77,0,0,0-1.29-.66,2.88,2.88,0,0,1,.38.22.08.08,0,0,1,0,.13,4.59,4.59,0,0,1-1.2.58,9.56,9.56,0,0,1-1.3.14c-.16,0-.63.16-.76.05l0,0a.87.87,0,0,0,0,.23c0,.2.34.14.45.13.82-.05,1.65,0,2.47,0,.32,0,.65,0,1,0S143.69,168.62,143.46,168.37Z" />
			<path class="cls-6" d="M143.46,168.37l-.08-.09-.08-.06a4.77,4.77,0,0,0-1.29-.66,2.88,2.88,0,0,1,.38.22.08.08,0,0,1,0,.13h0a4.28,4.28,0,0,0,.52.67l.26.28C143.4,168.75,143.65,168.58,143.46,168.37Z" />
			<path class="cls-6" d="M141.36,168.44h0a2.11,2.11,0,0,1,0,.25l0,.29h.42C141.66,168.81,141.51,168.62,141.36,168.44Z" />
			<path class="cls-5" d="M127.8,167.83a5.82,5.82,0,0,0-1.1-.94,7.38,7.38,0,0,0-1.46-.73l-.69,0a9.26,9.26,0,0,0-1.79.34c-.4.11-.82.2-1.21.35a13,13,0,0,0,.72,1.25,23,23,0,0,0,2.13,1c.51.19,1,.38,1.55.53l.21.06.35-.17.24-.21c.4-.34.79-.69,1.16-1.07a1,1,0,0,1,.15-.14C128,168,127.89,167.92,127.8,167.83Z" />
			<path class="cls-9" d="M127.8,167.83a5.82,5.82,0,0,0-1.1-.94,8,8,0,0,0-1.23-.64l0,0c.19.28.34.59.51.89.06.12.23.35.11.48s-.18.08-.26.09l-.29.07a7.21,7.21,0,0,1-1.12.24,1.88,1.88,0,0,1-1-.21l-1-.54c-.28-.14-.58-.23-.86-.36.21.41.45.8.69,1.19a23,23,0,0,0,2.13,1c.51.19,1,.38,1.55.53l.21.06.35-.17.24-.21c.4-.34.79-.69,1.16-1.07a1,1,0,0,1,.15-.14C128,168,127.89,167.92,127.8,167.83Z" />
			<path class="cls-7" d="M122.55,168.2c-.24-.29-.53-.56-.76-.88.15.27.31.54.48.8l.38.2Z" />
			<path class="cls-6" d="M127.8,167.83a5.82,5.82,0,0,0-1.1-.94,7.17,7.17,0,0,0-.86-.47c.16.22.36.42.53.64s.26.36.39.54a4.32,4.32,0,0,1,.32.69,0,0,0,0,1,0,0,3.31,3.31,0,0,1-.54-.45l-.31-.25a3.21,3.21,0,0,0,.19.31,2.46,2.46,0,0,1,.37.48c.05.15-.62,1-.64,1-.35-.24-.65-.56-1-.79s-.5-.32-.73-.5c.09.1.2.19.29.28s.35.39.54.57.49.48.75.71h0l.21.06.35-.17.24-.21c.4-.34.79-.69,1.16-1.07a1,1,0,0,1,.15-.14C128,168,127.89,167.92,127.8,167.83Z" />
			<path class="cls-8" d="M121.81,167.07a3.2,3.2,0,0,0,1,.46,2.07,2.07,0,0,0-.25-.15,5.19,5.19,0,0,1-.76-.44,0,0,0,0,1,0-.06c.43-.07.84-.18,1.26-.29s.79-.15,1.18-.24a5.72,5.72,0,0,1,.57-.11.78.78,0,0,1,.4,0c.23.09.31.34.47.51a1.69,1.69,0,0,0-.36-.55l-.15-.06-.69,0a9.26,9.26,0,0,0-1.79.34c-.4.11-.82.2-1.21.35.11.21.22.43.35.64l-.15-.41S121.78,167.05,121.81,167.07Z" />
			<path class="cls-5" d="M121.23,165.76a7,7,0,0,0-1.71,0,9.75,9.75,0,0,0-1.86.47c-.2.19-.4.36-.59.55a11.35,11.35,0,0,0-1.34,1.68c-.28.41-.58.82-.82,1.25.52.22,1.06.4,1.6.57a26.36,26.36,0,0,0,2.67-.76c.61-.21,1.22-.45,1.8-.71l.23-.11.18-.42.06-.37c.1-.62.17-1.23.21-1.85a2,2,0,0,0,0-.25Z" />
			<path class="cls-9" d="M121.23,165.76a7,7,0,0,0-1.71,0,9.33,9.33,0,0,0-1.58.38h0a9.79,9.79,0,0,1,1.15.4c.14.05.47.13.47.34s-.1.21-.16.28a3,3,0,0,0-.22.28,7.08,7.08,0,0,1-.81,1.08,2.22,2.22,0,0,1-1,.54c-.45.12-.91.21-1.36.33s-.7.24-1,.34c.5.2,1,.37,1.53.54a26.36,26.36,0,0,0,2.67-.76c.61-.21,1.22-.45,1.8-.71l.23-.11.18-.42.06-.37c.1-.62.17-1.23.21-1.85a2,2,0,0,0,0-.25Z" />
			<path class="cls-7" d="M116.82,170.14c-.43-.07-.91-.1-1.35-.2l1,.35.5-.12Z" />
			<path class="cls-6" d="M121.23,165.76a7,7,0,0,0-1.71,0,8.73,8.73,0,0,0-1.13.24c.32.08.65.11,1,.17a7,7,0,0,1,.76.18,4.67,4.67,0,0,1,.82.37,0,0,0,0,1,0,.08,4.6,4.6,0,0,1-.83,0l-.47,0,.41.12a2.84,2.84,0,0,1,.7.16c.16.09.19,1.33.17,1.33-.51.06-1,0-1.51.07-.34,0-.68.1-1,.12l.48,0c.3,0,.6.07.91.09s.81.05,1.22.06h0l.23-.11.18-.42.06-.37c.1-.62.17-1.23.21-1.85a2,2,0,0,0,0-.25Z" />
			<path class="cls-8" d="M115.29,169.7a4,4,0,0,0,1.29-.4l-.33.06a5.91,5.91,0,0,1-1,.19s0,0,0-.06c.33-.39.61-.82.91-1.23s.58-.75.87-1.13a5.13,5.13,0,0,1,.42-.53,1,1,0,0,1,.37-.3c.28-.09.54.07.82.09a2.28,2.28,0,0,0-.75-.21l-.18.06c-.2.19-.4.36-.59.55a11.35,11.35,0,0,0-1.34,1.68c-.28.41-.58.82-.82,1.25.26.11.53.21.8.3l-.44-.25S115.26,169.7,115.29,169.7Z" />
			<path class="cls-5" d="M124.23,170.19c.46-.12,1.12-.37.82-.81l-.11-.14-.12-.11a7.6,7.6,0,0,0-2.09-1.36,6.66,6.66,0,0,0-2-.34,3.6,3.6,0,0,0-2.26,1.14,1.2,1.2,0,0,0-.36.87c0,.31.5.28.67.29,1.3.05,2.58.27,3.87.36C123.2,170.12,123.72,170.17,124.23,170.19Z" />
			<path class="cls-8" d="M118.87,168.49a3,3,0,0,1,1.26-.73,12.94,12.94,0,0,1,2.71.06l-.11,0a6.66,6.66,0,0,0-2-.34,3.6,3.6,0,0,0-2.26,1.14,1.54,1.54,0,0,0-.28.42A3.85,3.85,0,0,1,118.87,168.49Z" />
			<path class="cls-9" d="M125.05,169.38l-.11-.14-.12-.11a7.31,7.31,0,0,0-1.9-1.26,5.45,5.45,0,0,1,.57.41.14.14,0,0,1,0,.21,7.39,7.39,0,0,1-2,.69,15.89,15.89,0,0,1-2.07,0c-.24,0-1,.13-1.19-.07a0,0,0,0,1,0,0,1,1,0,0,0-.06.36c0,.31.5.28.67.29,1.3.05,2.58.27,3.87.36.5,0,1,.08,1.53.1S125.35,169.82,125.05,169.38Z" />
			<path class="cls-6" d="M125.05,169.38l-.11-.14-.12-.11a7.31,7.31,0,0,0-1.9-1.26,5.45,5.45,0,0,1,.57.41.14.14,0,0,1,0,.21h0a6.92,6.92,0,0,0,.69,1.14l.36.48C124.89,170,125.3,169.75,125.05,169.38Z" />
			<path class="cls-6" d="M121.76,169.13h0c0,.13,0,.27,0,.41s0,.3,0,.45l.65.06C122.16,169.76,122,169.45,121.76,169.13Z" />
		</g>
	</g>
</svg>
