<svg xmlns="http://www.w3.org/2000/svg" xmlns:xlink="http://www.w3.org/1999/xlink" viewBox="0 0 189.47 189.47">
	<defs>
		<style>
			.cls-1{fill:none;}.cls-2{isolation:isolate;}.cls-3{fill:#f2d0a7;}.cls-4{fill:#b99a7e;opacity:0.7;mix-blend-mode:multiply;}.cls-5{fill:#68c7d0;}.cls-6{fill:#c2eff5;}.cls-7{fill:#55a8ae;}.cls-8{fill:#875e2f;}.cls-9{clip-path:url(#clip-path);}.cls-10{fill:#a98c70;}.cls-11{fill:#b47e42;}.cls-12{fill:#2d6424;}.cls-13{fill:#505919;}.cls-14{clip-path:url(#clip-path-2);}.cls-15{clip-path:url(#clip-path-3);}.cls-16{clip-path:url(#clip-path-4);}
		</style>
		<clipPath id="clip-path">
			<path class="cls-1" d="M41.92,77.9s-1.83-31.44,0-39.21l.86.05s-.9,31,2,38.94C44.77,77.68,44.69,79,41.92,77.9Z" />
		</clipPath>
		<clipPath id="clip-path-2">
			<path class="cls-1" d="M77.5,78.55s-1.69-29.07,0-36.25l.8.05s-.84,28.63,1.85,36C80.13,78.34,80.06,79.58,77.5,78.55Z" />
		</clipPath>
		<clipPath id="clip-path-3">
			<path class="cls-1" d="M27.33,79.4s-2.15-37.05,0-46.2l1,.06s-1.07,36.49,2.36,45.87C30.68,79.13,30.59,80.7,27.33,79.4Z" />
		</clipPath>
		<clipPath id="clip-path-4">
			<path class="cls-1" d="M85.33,77.83s-2.41-41.48,0-51.72l1.14.07S85.25,67,89.09,77.54C89.09,77.54,89,79.3,85.33,77.83Z" />
		</clipPath>
	</defs>
	<g class="cls-2">
		<g id="Layer_1" data-name="Layer 1">
			<path class="cls-3" d="M189.47,85.16v82.31a22,22,0,0,1-22,22H85.16a22,22,0,0,1-22-22V148.31a22,22,0,0,0-22-22H22a22,22,0,0,1-22-22V22A22,22,0,0,1,22,0h82.31a22,22,0,0,1,22,22V41.16a22,22,0,0,0,22,22h19.16A22,22,0,0,1,189.47,85.16Z" />
			<path class="cls-4" d="M34.22,73.63A349.56,349.56,0,0,1,72.36,72c9.77.2,20,.82,29.18,4.39,1.63.64,8.78,2.23,7.77,4.79S99,83.64,97,83.78c-11.69.86-23,2-34.55,3.9-9.19,1.48-21.71,4.2-30-1.4a11.38,11.38,0,0,1-1.4-1.2c-2.13-1.22-13,4.84-14,1.73-4.19-.08-7.5-.84-8-5.23,3.34-.66,2-1.37,2.53-3.43.66-2.59,2.6-2.59,5.12-3.26a52.12,52.12,0,0,1,8.12-1.44c2.68-.3,4.29.52,6.81.63,2.13.09,4.31-1,6.53-1" />
			<path class="cls-5" d="M27.74,80.09c-.14-1.18,10.48-2,14.51-1.67S60.8,76.48,65.66,77s12.91,3.34,12.08,4.86S70.1,82.45,67.46,83,43,86.19,38.57,85.78s1.46-2.64-2-3.19S27.94,81.77,27.74,80.09Z" />
			<path class="cls-6" d="M65.66,79.46a9.74,9.74,0,0,1,2.16.7,2.19,2.19,0,0,1,.48.31.49.49,0,0,1,.21.54,1.81,1.81,0,0,1-.94.65,11.34,11.34,0,0,1-2.22.51,19.18,19.18,0,0,1-2.26.21c.75-.07,1.5-.17,2.25-.28a11.61,11.61,0,0,0,2.18-.55,1.69,1.69,0,0,0,.9-.58.39.39,0,0,0-.18-.43,1.86,1.86,0,0,0-.46-.31A13.08,13.08,0,0,0,65.66,79.46Z" />
			<path class="cls-6" d="M67.55,79.35a6.75,6.75,0,0,1,1.39.65c.4.27.92.61.89,1.21,0,.14-.11.24-.17.36l-.3.26a4.47,4.47,0,0,1-.7.33,8.24,8.24,0,0,1-1.48.38,13.61,13.61,0,0,0,1.45-.46c.43-.19,1-.41,1.09-.89s-.43-.85-.83-1.12A9.06,9.06,0,0,0,67.55,79.35Z" />
			<path class="cls-6" d="M66.26,80.41c.33.1.75.16.94.53,0,.23-.19.36-.35.43a3.13,3.13,0,0,1-.51.19,12.38,12.38,0,0,1-2.17.33c.72-.15,1.44-.23,2.13-.44a4.36,4.36,0,0,0,.51-.17c.16-.06.33-.18.32-.32s-.22-.25-.37-.33A3.16,3.16,0,0,0,66.26,80.41Z" />
			<path class="cls-6" d="M46.92,78.8a1.11,1.11,0,0,1,.4.22.43.43,0,0,1,.15.2.23.23,0,0,1-.09.25,1,1,0,0,1-.45.14,1.78,1.78,0,0,1-.46,0,2.89,2.89,0,0,0,.83-.26c.13-.06.08-.2,0-.3A2.53,2.53,0,0,0,46.92,78.8Z" />
			<path class="cls-6" d="M47.74,78.53a.56.56,0,0,1,.27.1c.07,0,.2.17.1.3a.65.65,0,0,1-.28.13,1.32,1.32,0,0,1-.28,0c.16-.08.38-.11.47-.23s0-.1-.06-.16Z" />
			<path class="cls-6" d="M48.76,78.51a.54.54,0,0,1,.27.18A.23.23,0,0,1,49,79a1.18,1.18,0,0,1-.63.12,2.83,2.83,0,0,0,.56-.21C49.11,78.84,48.91,78.64,48.76,78.51Z" />
			<path class="cls-6" d="M49.91,78.68a.59.59,0,0,1,.32.17.18.18,0,0,1,0,.22.56.56,0,0,1-.16.12,1.8,1.8,0,0,1-.72.1,4.38,4.38,0,0,0,.67-.21c.1,0,.2-.09.13-.18A1.16,1.16,0,0,0,49.91,78.68Z" />
			<path class="cls-6" d="M51.16,78.65a.21.21,0,0,1,.15.24.35.35,0,0,1-.21.22,1.39,1.39,0,0,1-.57.08c.18-.08.36-.1.52-.19s.17-.06.19-.13A.26.26,0,0,0,51.16,78.65Z" />
			<path class="cls-6" d="M52,78.68a.41.41,0,0,1,.23.18c.07.12-.06.25-.14.28a1.29,1.29,0,0,1-.58,0,3.67,3.67,0,0,0,.53-.16c.08,0,.15-.06.12-.13A.82.82,0,0,0,52,78.68Z" />
			<path class="cls-6" d="M54,78.46a.34.34,0,0,1,.23.25c0,.15-.13.23-.23.27a1.64,1.64,0,0,1-.66,0,5.61,5.61,0,0,0,.62-.16c.1,0,.19-.07.19-.16A.56.56,0,0,0,54,78.46Z" />
			<path class="cls-6" d="M55.24,78.47a.34.34,0,0,1-.09.45.65.65,0,0,1-.47.07c.15-.06.3-.07.4-.17S55.24,78.63,55.24,78.47Z" />
			<path class="cls-7" d="M36,79.39a7.86,7.86,0,0,1,2.73.79c.55.51-2.55.79-2.55.79S40.1,80.41,36,79.39Z" />
			<path class="cls-7" d="M39.17,81.11s3.8,1.06.24,2.13C39.41,83.24,41.67,82.36,39.17,81.11Z" />
			<path class="cls-7" d="M39.22,79.49s3.24.41.83,1.29C40.05,80.78,41.21,80,39.22,79.49Z" />
			<path class="cls-7" d="M45.93,80.74s3.43.74-.14,1.8C45.79,82.54,47.83,81.76,45.93,80.74Z" />
			<path class="cls-7" d="M56.17,79.07s3.14.74.5,1.3C56.67,80.37,58.16,80,56.17,79.07Z" />
			<path class="cls-7" d="M41.53,82.13s2.32,1.15-.09,2A1.19,1.19,0,0,0,41.53,82.13Z" />
			<path class="cls-7" d="M71.35,79.63s5.09.74,2.41,1.57C73.76,81.2,74.27,80.55,71.35,79.63Z" />
			<path class="cls-7" d="M58.34,79.86s3.47,1.2.46,2.22C58.8,82.08,60.15,81,58.34,79.86Z" />
			<path class="cls-8" d="M41.92,77.9s-1.83-31.44,0-39.21l.86.05s-.9,31,2,38.94C44.77,77.68,44.69,79,41.92,77.9Z" />
			<g class="cls-9">
				<path class="cls-10" d="M40.38,47.34a4.74,4.74,0,0,0,1.31.12A7.77,7.77,0,0,0,43,47.3a8.62,8.62,0,0,1-1.34.28,4.91,4.91,0,0,1-1.38,0Z" />
				<path class="cls-10" d="M40.81,48.37a3.93,3.93,0,0,0,1.33.09,3.79,3.79,0,0,0,1.32-.34,3.72,3.72,0,0,1-1.3.45,3.92,3.92,0,0,1-1.41,0Z" />
				<path class="cls-10" d="M40.88,49a4,4,0,0,0,1.9-.1,4.11,4.11,0,0,1-1.94.34Z" />
				<path class="cls-10" d="M40.81,49.71a2.1,2.1,0,0,0,1,0,8.84,8.84,0,0,0,1-.23,8.65,8.65,0,0,1-1,.35,2.3,2.3,0,0,1-1,.08Z" />
				<path class="cls-10" d="M40.9,50.31A6.43,6.43,0,0,0,43,50a6.31,6.31,0,0,1-2.12.54Z" />
				<path class="cls-10" d="M40.88,50.86a2,2,0,0,0,1,.17A2.57,2.57,0,0,0,43,50.78a2.7,2.7,0,0,1-1,.37,2.42,2.42,0,0,1-1.13-.07Z" />
				<path class="cls-10" d="M40.76,51.33a2,2,0,0,0,1.2.29,3.45,3.45,0,0,0,1.25-.29,3.41,3.41,0,0,1-1.24.4,2.28,2.28,0,0,1-1.33-.19Z" />
				<path class="cls-10" d="M40.82,52.19a1.56,1.56,0,0,0,1.09.41,2.41,2.41,0,0,0,1.24-.23,2.62,2.62,0,0,1-1.24.35,1.74,1.74,0,0,1-1.27-.38Z" />
				<path class="cls-10" d="M40.86,52.94c.25.06.41.19.59.24a2,2,0,0,0,.61,0A3.65,3.65,0,0,0,43.27,53a3.57,3.57,0,0,1-1.21.38,2.36,2.36,0,0,1-.65,0c-.22,0-.42-.15-.59-.18Z" />
				<path class="cls-10" d="M40.74,53.77a3.65,3.65,0,0,0,2.48,0,3.73,3.73,0,0,1-2.57.26Z" />
				<path class="cls-10" d="M40.82,54.45a2.37,2.37,0,0,0,1.3.36,3.27,3.27,0,0,0,1.37-.28,3.45,3.45,0,0,1-1.37.4,2.56,2.56,0,0,1-1.43-.28Z" />
				<path class="cls-10" d="M40.93,55.34c0,.09.27.16.46.17a3.32,3.32,0,0,0,.63,0,4.76,4.76,0,0,0,.62-.11,1.55,1.55,0,0,0,.58-.24,1.56,1.56,0,0,1-.57.3,4.37,4.37,0,0,1-.62.17,3.41,3.41,0,0,1-.65.07c-.2,0-.47,0-.67-.27Z" />
				<path class="cls-10" d="M40.77,56a3,3,0,0,0,2.46-.07,2.38,2.38,0,0,1-1.22.42,5.12,5.12,0,0,1-1.3-.12Z" />
				<path class="cls-10" d="M40.85,56.54a2.45,2.45,0,0,0,2.42,0,2.58,2.58,0,0,1-2.55.17Z" />
				<path class="cls-10" d="M40.9,57.45a1.8,1.8,0,0,0,1.18.29,3.69,3.69,0,0,0,1.27-.26,3.62,3.62,0,0,1-1.26.38,2,2,0,0,1-1.33-.22Z" />
				<path class="cls-10" d="M40.94,58.2a1.72,1.72,0,0,0,1,.33,3,3,0,0,0,1.14-.16,3.18,3.18,0,0,1-1.14.28,2,2,0,0,1-1.19-.26Z" />
				<path class="cls-10" d="M40.91,59.08c.22.06.39.14.58.18a2.22,2.22,0,0,0,.58,0A3.7,3.7,0,0,0,43.23,59a3.56,3.56,0,0,1-1.14.42,2.21,2.21,0,0,1-.63,0c-.21,0-.42-.1-.59-.12Z" />
				<path class="cls-10" d="M41,59.79a1.16,1.16,0,0,0,1,.29,3.17,3.17,0,0,0,1.12-.27A3.58,3.58,0,0,1,42,60.2,1.34,1.34,0,0,1,40.82,60Z" />
				<path class="cls-10" d="M40.93,60.73A2.06,2.06,0,0,0,42,61a2.1,2.1,0,0,0,1.15-.27,2.2,2.2,0,0,1-1.14.39,2.31,2.31,0,0,1-1.23-.22Z" />
				<path class="cls-10" d="M41,61.62a2.83,2.83,0,0,0,2.34-.11,5.48,5.48,0,0,1-1.17.43,2.09,2.09,0,0,1-1.28-.11Z" />
				<path class="cls-10" d="M41.16,62.41a2.09,2.09,0,0,0,1.16.29,2.49,2.49,0,0,0,1.23-.27,2.51,2.51,0,0,1-1.22.39A2.21,2.21,0,0,1,41,62.59Z" />
				<path class="cls-10" d="M41,63.06a1.81,1.81,0,0,0,1.13.26,3.87,3.87,0,0,0,1.2-.27,3.78,3.78,0,0,1-1.19.39,2,2,0,0,1-1.27-.18Z" />
				<path class="cls-10" d="M41.12,63.77c.2.3.74.28,1.15.2a3.59,3.59,0,0,0,1.24-.46,3.61,3.61,0,0,1-1.22.58,2.54,2.54,0,0,1-.68.1.82.82,0,0,1-.68-.29Z" />
				<path class="cls-10" d="M41.16,64.58a1.56,1.56,0,0,0,1.22.22,2.45,2.45,0,0,0,1.25-.47,2.48,2.48,0,0,1-1.23.59,3.26,3.26,0,0,1-.7.07,1.21,1.21,0,0,1-.71-.24Z" />
				<path class="cls-10" d="M41.07,65.29a2.62,2.62,0,0,0,1.29.41,2.57,2.57,0,0,0,1.36-.25,2.67,2.67,0,0,1-1.36.37A2.82,2.82,0,0,1,41,65.49Z" />
				<path class="cls-10" d="M41,66.06a1.81,1.81,0,0,0,1.17.38,2.65,2.65,0,0,0,1.26-.29,2.76,2.76,0,0,1-1.26.41,2,2,0,0,1-1.32-.31Z" />
				<path class="cls-10" d="M41,66.9a2.15,2.15,0,0,0,1.29.18,3.13,3.13,0,0,0,1.29-.43,3.37,3.37,0,0,1-1.27.55,2.39,2.39,0,0,1-1.42-.09Z" />
				<path class="cls-10" d="M41,67.79a3,3,0,0,0,1.33,0,1.68,1.68,0,0,0,1.13-.71,1.71,1.71,0,0,1-1.1.82,3.21,3.21,0,0,1-1.42.15Z" />
				<path class="cls-10" d="M41.19,68.26a3.15,3.15,0,0,0,1.27.15A2.48,2.48,0,0,0,43.69,68a2.58,2.58,0,0,1-1.22.53,3.13,3.13,0,0,1-1.36,0Z" />
				<path class="cls-10" d="M41.29,68.85a1.83,1.83,0,0,0,1.17.31,3.26,3.26,0,0,0,1.27-.24,3.39,3.39,0,0,1-1.26.36A2,2,0,0,1,41.14,69Z" />
				<path class="cls-10" d="M41.21,69.38a8.65,8.65,0,0,0,1.43.3,3,3,0,0,0,1.43-.19,3.09,3.09,0,0,1-1.44.31,10.51,10.51,0,0,1-1.48-.19Z" />
				<path class="cls-10" d="M41.41,70.1a.84.84,0,0,0,.55.25,3.07,3.07,0,0,0,.68,0A2.85,2.85,0,0,0,44,70.07a3,3,0,0,1-1.33.44,3.45,3.45,0,0,1-.72,0,1.05,1.05,0,0,1-.71-.29Z" />
				<path class="cls-10" d="M41.28,70.92a5.85,5.85,0,0,0,1.34.19,5.31,5.31,0,0,0,.69,0c.21,0,.5-.08.55-.32,0,.25-.33.32-.54.38a4.06,4.06,0,0,1-.69.08,5.24,5.24,0,0,1-1.42-.08Z" />
				<path class="cls-10" d="M41.47,71.82a4.33,4.33,0,0,0,2.4-.26,4.46,4.46,0,0,1-2.44.49Z" />
				<path class="cls-10" d="M41.43,72.27a4.4,4.4,0,0,0,1.21.1A2,2,0,0,0,43.81,72a2,2,0,0,1-1.16.48,4.91,4.91,0,0,1-1.27,0Z" />
				<path class="cls-10" d="M41.53,72.88a4.52,4.52,0,0,0,2.56-.36,4.62,4.62,0,0,1-2.61.59Z" />
				<path class="cls-10" d="M41.57,73.32a4.34,4.34,0,0,0,1.29.25,2.84,2.84,0,0,0,1.32-.2,3,3,0,0,1-1.32.32,4.21,4.21,0,0,1-1.36-.15Z" />
				<path class="cls-10" d="M41.51,74a4.38,4.38,0,0,0,1.56.4,2.77,2.77,0,0,0,1.6-.3,2.81,2.81,0,0,1-1.6.42,4.56,4.56,0,0,1-1.66-.31Z" />
				<path class="cls-10" d="M41.43,74.91a4,4,0,0,0,1.53.33,2.53,2.53,0,0,0,1.52-.39,2.57,2.57,0,0,1-1.52.51,4.48,4.48,0,0,1-1.62-.23Z" />
				<path class="cls-10" d="M41.56,75.75a3.17,3.17,0,0,0,1.57.23,2.8,2.8,0,0,0,1.53-.51,2.87,2.87,0,0,1-1.52.63A3.22,3.22,0,0,1,41.46,76Z" />
				<path class="cls-10" d="M41.5,76.55a4,4,0,0,0,3.15-.25,4.06,4.06,0,0,1-3.23.47Z" />
				<path class="cls-10" d="M41.41,77.33a4.06,4.06,0,0,0,2,.17,2.74,2.74,0,0,0,1.74-.9,2.79,2.79,0,0,1-1.72,1,4.19,4.19,0,0,1-2-.07Z" />
			</g>
			<path class="cls-11" d="M40.68,45.19s-.37,1.64,0,1.81.59,0,.78-.58c0,0,.52,1.17,1-.1,0,0,.64,1.06.87-.11S43,44.7,43,44.7Z" />
			<path class="cls-8" d="M40.77,44.29a4.8,4.8,0,0,0-.13,1.53c.14.36.45.5.71,0,0,0,.52,1.33,1,0,0,0,.82.68,1-.38a2.7,2.7,0,0,0-.28-1.78Z" />
			<path class="cls-11" d="M40.67,44.05a4.52,4.52,0,0,0-.13,1.53c.14.36.44.5.71,0,0,0,.51,1.33,1,0,0,0,.83.68,1-.37A2.71,2.71,0,0,0,43,43.4Z" />
			<path class="cls-8" d="M40.31,42.77a9.41,9.41,0,0,0-.09,1.49c.05.56.65,1.14,1,.34,0,0,.64,1.14,1.26-.08,0,0,.75.63,1-.46a2.61,2.61,0,0,0-.39-2Z" />
			<path class="cls-11" d="M40.33,42.42a8.57,8.57,0,0,0-.08,1.49c0,.55.64,1.14,1,.33,0,0,.64,1.14,1.26-.08,0,0,.75.64,1-.45a2.6,2.6,0,0,0-.39-2Z" />
			<path class="cls-8" d="M41.8,38.33c-1.46,0-1.73,3.84-1.76,4.42s.5,1.45.93.3c0,0,.55,1.21,1-.14,0,0,.8,1.15,1.16-.29,0,0,.81.92.88-.18C44.05,40.88,43.22,38.3,41.8,38.33Z" />
			<path class="cls-11" d="M41.7,38c-1.45,0-1.72,3.84-1.76,4.42s.51,1.45.93.3c0,0,.56,1.21,1-.14,0,0,.8,1.15,1.16-.29,0,0,.81.92.88-.18C44,40.52,43.12,37.94,41.7,38Z" />
			<path class="cls-12" d="M45.62,45.86l-.62-1,.26-.48-.45.16c-.18-.32-.38-.65-.57-1l.35-.54-.5.28L44,43.1l.29-.45-.37.32c-.19-.33-.37-.67-.55-1l.53-.57a5.83,5.83,0,0,0-.6.45L43,41.17l.64-.49-.73.31c-.3-.56-.58-1.1-.82-1.61l.42-.49-.53.25c-.22-.45-.4-.87-.55-1.25,0,0,4.58,2.42,5.69,10.36,0,0-.58-.94-1.39-2.29l.24-.35Z" />
			<path class="cls-12" d="M48.5,41.41l-.74-.56.34-.52-.46.43-.1-.07.22-.79-.44.64c-.48-.33-1-.66-1.56-1L46,39l-.42.47-.09-.05.15-.76-.56.56a8.11,8.11,0,0,0-3.9-1s7.17-2.09,9,4.6a18.89,18.89,0,0,0-1.49-1.32c.11-.26.3-.8.3-.8Z" />
			<path class="cls-12" d="M41.18,38.2c8.69-7.31,11.08,3.65,11.08,3.65a13.13,13.13,0,0,0-1.54-1.77l.26-.71-.45.54a11,11,0,0,0-1-.78l.32-.52-.42.45-.41-.26.37-.77-.48.71a7.88,7.88,0,0,0-.76-.4l.09-.87-.32.77a8.69,8.69,0,0,0-2.28-.63l-.07-.81-.25.78A8.77,8.77,0,0,0,41.18,38.2Z" />
			<path class="cls-12" d="M41.29,38.16a1.52,1.52,0,0,0,.07-.18l0,.36Z" />
			<path class="cls-12" d="M46.7,28.75a8.21,8.21,0,0,0-1.39.93l-.72-.1.49.3A9.92,9.92,0,0,0,44,31l-.72-.12.52.39q-.24.33-.45.66l-.58-.06.41.34A13.88,13.88,0,0,0,42,34.78l-.44,0L42,35a14.43,14.43,0,0,0-.61,2.86C39.57,28.52,46.7,28.75,46.7,28.75Z" />
			<path class="cls-12" d="M32.09,34.38s4.89-8.31,9.36,3.8a17.39,17.39,0,0,0-3.12-3.13l.51-.87-.69.74a8,8,0,0,0-2.32-1.22l.29-.58-.58.5-.54-.1.16-.29-.34.27A3.72,3.72,0,0,0,32.09,34.38Z" />
			<path class="cls-12" d="M31.21,39.52s3.62-10,10.14-1.51a10.38,10.38,0,0,0-2.9-1.11v-.59l-.2.55a7.83,7.83,0,0,0-2.19-.14L36,36.19l-.15.55a5.81,5.81,0,0,0-.58.09l-.14-.71-.08.76a6.27,6.27,0,0,0-1.7.69l-.19-.78c0,.19-.06.62-.08.94A7.42,7.42,0,0,0,31.21,39.52Z" />
			<path class="cls-12" d="M41.3,38.22s-.21.26-.56.73l-.42-.17.25.38c-.4.55-.94,1.3-1.51,2.2l-.64-.51.56.65c-.08.13-.17.26-.25.4l-.6-.44.49.62c-.19.31-.38.65-.57,1l-.47-.25.38.42c-.21.38-.41.77-.61,1.18l-.64-.12.46.51a20.43,20.43,0,0,0-1,2.47S35.14,40.23,41.3,38.22Z" />
			<path class="cls-12" d="M48.37,45,48,44.34l.56-.57-.68.41-.28-.42.41-.55-.58.31a23.88,23.88,0,0,0-1.87-2.3l.33-.38-.45.26-.15-.16.22-.53L45,40.7c-.25-.25-.51-.49-.77-.72a1.86,1.86,0,0,0,.2-.47s-.25.18-.41.3a10.12,10.12,0,0,0-2.82-1.73,8,8,0,0,1,6.06,2.53,11.94,11.94,0,0,1,2.64,7.14,25.43,25.43,0,0,0-1.43-2.58l.27-.48Z" />
			<path class="cls-12" d="M42,47.43c0-.76.07-1.7.07-2.73l.31-.06-.31-.12c0-.47,0-1,0-1.43l.42-.27L42,42.9,42,42l.49-.18-.5,0c0-.34-.06-.67-.1-1l.4-.22-.41.07A16.73,16.73,0,0,0,41.52,39l.42-.13h-.45c-.06-.22-.12-.42-.18-.62,0,0,4.37,1.82.56,10.94,0,0,.06-.65.11-1.64h.27Z" />
			<path class="cls-12" d="M50.79,34.56a10.27,10.27,0,0,0-1.45-.07L49,33.76l.09.73-.58,0L48.31,34l0,.58a10,10,0,0,0-1.78.37l-.32-.71.17.76-.57.19-.21-.47,0,.54a12.6,12.6,0,0,0-4.4,2.89C45.61,29.28,53,35.07,53,35.07a11,11,0,0,0-2.12-.5l-.17-.44Z" />
			<path class="cls-12" d="M51,31.27a9,9,0,0,0-3,.21l-.81-.71.52.79a8.38,8.38,0,0,0-1.19.45l-.91-.76.63.9a9.6,9.6,0,0,0-.83.5l-.79-.71.52.9A10.15,10.15,0,0,0,43.79,34l-.91-.44.71.66A12.56,12.56,0,0,0,41.36,38C42.2,26.15,51,31.27,51,31.27Z" />
			<path class="cls-12" d="M39.62,33.51a5,5,0,0,0-.62-.73c.22-.37.53-.78.53-.78a2.63,2.63,0,0,0-.79.54,2.88,2.88,0,0,0-2.26-.69l.18-.39a4.7,4.7,0,0,0-.5.45,5,5,0,0,0-1.76.8S42,25,41.36,38a13.16,13.16,0,0,0-1.58-4.21c.24-.35.52-.71.52-.71A4,4,0,0,0,39.62,33.51Z" />
			<path class="cls-12" d="M37.81,38.57l-.42.11-.32-.94.14,1a17.63,17.63,0,0,0-1.86.62L35,38.59l.24.83-.22.09-.43-.94.26,1a9.19,9.19,0,0,0-1.12.59l-.22-.89v1a6.74,6.74,0,0,0-1.29,1.07s1.67-7,9.24-3.38a22.43,22.43,0,0,0-3.41.51l-.34-.74Z" />
			<path class="cls-12" d="M41.32,38.15s-.35.16-.9.46l-.48-.41.28.52A16.4,16.4,0,0,0,38,40.25l-.56-.72.38.88-.12.1L37,40l.43.72A9.8,9.8,0,0,0,36.23,42l-.66-.44.53.61a6.62,6.62,0,0,0-1.29,3S33.42,37,41.32,38.15Z" />
			<path class="cls-12" d="M36.44,47.51a15.86,15.86,0,0,1,1.13-3l.5.26-.4-.47q.28-.59.6-1.17l.57.17L38.35,43c.06-.11.12-.23.19-.34l.59.34-.47-.55c.35-.62.71-1.21,1-1.74l.47.15-.39-.27c.12-.2.25-.39.37-.57l.55.18-.38-.45c.63-.94,1.07-1.54,1.07-1.54-.06.53-.13,1-.22,1.52l-.28-.07.23.29a15.69,15.69,0,0,1-.46,1.77l-.48-.32.44.45c-.07.22-.15.44-.24.65l-.45-.35.41.47a13.41,13.41,0,0,1-.93,1.86L39,44.05l.35.6a9.75,9.75,0,0,1-1,1.37l-.4-.49.27.63A6.66,6.66,0,0,1,36.44,47.51Z" />
			<path class="cls-13" d="M42.76,78.45a9.58,9.58,0,0,1,1.15-6.29A32.93,32.93,0,0,0,43.46,78a15.92,15.92,0,0,1,1.91-5.86,24.09,24.09,0,0,0-1.15,5.93,8.63,8.63,0,0,1,2.12-4.41A15,15,0,0,0,45,78a4.16,4.16,0,0,1,2.92-2.71A8.12,8.12,0,0,0,45.71,78a3.55,3.55,0,0,1,2-1,6.19,6.19,0,0,0-1.65,1.32l-1.5.09C44,78.45,42.76,78.45,42.76,78.45Z" />
			<path class="cls-8" d="M77.5,78.55s-1.69-29.07,0-36.25l.8.05s-.84,28.63,1.85,36C80.13,78.34,80.06,79.58,77.5,78.55Z" />
			<g class="cls-14">
				<path class="cls-10" d="M76.08,50.29a4.4,4.4,0,0,0,1.21.11,7.36,7.36,0,0,0,1.24-.14,7.27,7.27,0,0,1-1.23.26,4.57,4.57,0,0,1-1.28,0Z" />
				<path class="cls-10" d="M76.47,51.24a3.42,3.42,0,0,0,1.24.08A3.18,3.18,0,0,0,78.92,51a3.2,3.2,0,0,1-1.2.43,3.77,3.77,0,0,1-1.3,0Z" />
				<path class="cls-10" d="M76.54,51.86a3.64,3.64,0,0,0,1.76-.08,3.92,3.92,0,0,1-1.8.32Z" />
				<path class="cls-10" d="M76.48,52.48a1.89,1.89,0,0,0,.89,0,6,6,0,0,0,.91-.21,8.57,8.57,0,0,1-.89.33,2.13,2.13,0,0,1-1,.08Z" />
				<path class="cls-10" d="M76.55,53a5.74,5.74,0,0,0,1.94-.28,5.56,5.56,0,0,1-2,.51Z" />
				<path class="cls-10" d="M76.54,53.55a2.07,2.07,0,0,0,.94.16,2.51,2.51,0,0,0,1-.23,2.3,2.3,0,0,1-1,.34,2.1,2.1,0,0,1-1-.06Z" />
				<path class="cls-10" d="M76.44,54a1.83,1.83,0,0,0,1.09.27A3.08,3.08,0,0,0,78.69,54a3.06,3.06,0,0,1-1.15.38,2,2,0,0,1-1.23-.18Z" />
				<path class="cls-10" d="M76.49,54.77a1.48,1.48,0,0,0,1,.39A2.33,2.33,0,0,0,78.63,55a2.32,2.32,0,0,1-1.13.32,1.6,1.6,0,0,1-1.19-.34Z" />
				<path class="cls-10" d="M76.52,55.47c.24.06.38.17.55.22a2.54,2.54,0,0,0,.56.05,3.36,3.36,0,0,0,1.12-.24,3.29,3.29,0,0,1-1.11.36,2.49,2.49,0,0,1-.61,0c-.2,0-.4-.14-.54-.16Z" />
				<path class="cls-10" d="M76.41,56.23a3.43,3.43,0,0,0,2.3,0,3.51,3.51,0,0,1-2.39.24Z" />
				<path class="cls-10" d="M76.49,56.86A2.72,2.72,0,0,0,79,57a3.23,3.23,0,0,1-1.26.37,2.3,2.3,0,0,1-1.33-.26Z" />
				<path class="cls-10" d="M76.6,57.69c0,.07.23.15.41.15a3.74,3.74,0,0,0,.58,0,3.78,3.78,0,0,0,.57-.1,1.43,1.43,0,0,0,.54-.22,1.53,1.53,0,0,1-.52.28l-.57.15A3.07,3.07,0,0,1,77,58c-.2,0-.45,0-.64-.25Z" />
				<path class="cls-10" d="M76.44,58.28a2.73,2.73,0,0,0,2.27-.05,2.87,2.87,0,0,1-2.33.28Z" />
				<path class="cls-10" d="M76.52,58.79a2.27,2.27,0,0,0,2.23,0,2.39,2.39,0,0,1-2.36.16Z" />
				<path class="cls-10" d="M76.57,59.64a1.67,1.67,0,0,0,1.08.27,3.45,3.45,0,0,0,1.18-.24,3.18,3.18,0,0,1-1.17.35,1.77,1.77,0,0,1-1.24-.2Z" />
				<path class="cls-10" d="M76.6,60.33a1.59,1.59,0,0,0,1,.31,2.73,2.73,0,0,0,1.06-.15,2.72,2.72,0,0,1-1.06.27,1.77,1.77,0,0,1-1.1-.25Z" />
				<path class="cls-10" d="M76.57,61.15c.2.05.36.13.53.16a1.93,1.93,0,0,0,.54,0,3.39,3.39,0,0,0,1.07-.28,3.24,3.24,0,0,1-1,.39,1.91,1.91,0,0,1-.59.05c-.19,0-.38-.09-.54-.11Z" />
				<path class="cls-10" d="M76.65,61.8a1.1,1.1,0,0,0,.92.27,2.93,2.93,0,0,0,1-.25,2.83,2.83,0,0,1-1,.37,1.24,1.24,0,0,1-1.1-.23Z" />
				<path class="cls-10" d="M76.59,62.67a2,2,0,0,0,1,.28,1.92,1.92,0,0,0,1-.25,2,2,0,0,1-1,.37,2.18,2.18,0,0,1-1.14-.2Z" />
				<path class="cls-10" d="M76.66,63.49a2.6,2.6,0,0,0,2.16-.09,5,5,0,0,1-1.08.4,1.92,1.92,0,0,1-1.18-.1Z" />
				<path class="cls-10" d="M76.8,64.22a1.88,1.88,0,0,0,1.07.27A2.26,2.26,0,0,0,79,64.25a2.39,2.39,0,0,1-1.13.36,2.11,2.11,0,0,1-1.22-.2Z" />
				<path class="cls-10" d="M76.67,64.82a1.64,1.64,0,0,0,1,.25,3.58,3.58,0,0,0,1.11-.25,3.5,3.5,0,0,1-1.09.36A1.74,1.74,0,0,1,76.54,65Z" />
				<path class="cls-10" d="M76.77,65.48c.18.27.67.26,1,.19A3.39,3.39,0,0,0,79,65.25a3.5,3.5,0,0,1-1.12.53,2.31,2.31,0,0,1-.64.1.75.75,0,0,1-.63-.27Z" />
				<path class="cls-10" d="M76.8,66.23a1.46,1.46,0,0,0,1.13.2A2.35,2.35,0,0,0,79.09,66a2.43,2.43,0,0,1-1.14.55,2.88,2.88,0,0,1-.65.07,1.11,1.11,0,0,1-.66-.22Z" />
				<path class="cls-10" d="M76.72,66.88a2.59,2.59,0,0,0,2.45.16,2.41,2.41,0,0,1-1.26.34,2.52,2.52,0,0,1-1.31-.3Z" />
				<path class="cls-10" d="M76.69,67.6a1.73,1.73,0,0,0,1.08.35,2.38,2.38,0,0,0,1.16-.27,2.5,2.5,0,0,1-1.16.39,1.82,1.82,0,0,1-1.23-.29Z" />
				<path class="cls-10" d="M76.68,68.37a2,2,0,0,0,1.19.17,2.89,2.89,0,0,0,1.2-.4,3.05,3.05,0,0,1-1.18.52,2.15,2.15,0,0,1-1.32-.08Z" />
				<path class="cls-10" d="M76.62,69.19a2.69,2.69,0,0,0,1.23,0,1.57,1.57,0,0,0,1.05-.65,1.62,1.62,0,0,1-1,.76,2.87,2.87,0,0,1-1.31.14Z" />
				<path class="cls-10" d="M76.82,69.63a2.76,2.76,0,0,0,2.32-.24,2.31,2.31,0,0,1-1.13.49,2.83,2.83,0,0,1-1.26,0Z" />
				<path class="cls-10" d="M76.92,70.18a1.77,1.77,0,0,0,1.08.28,2.81,2.81,0,0,0,1.18-.22,3,3,0,0,1-1.17.34,1.9,1.9,0,0,1-1.24-.22Z" />
				<path class="cls-10" d="M76.84,70.66a8.92,8.92,0,0,0,1.32.29,2.87,2.87,0,0,0,1.33-.18,2.78,2.78,0,0,1-1.33.29,7.78,7.78,0,0,1-1.37-.17Z" />
				<path class="cls-10" d="M77,71.33a.82.82,0,0,0,.5.24,3.25,3.25,0,0,0,.63,0,2.69,2.69,0,0,0,1.24-.29,2.72,2.72,0,0,1-1.23.41,3,3,0,0,1-.67,0,.91.91,0,0,1-.66-.27Z" />
				<path class="cls-10" d="M76.92,72.09a5.37,5.37,0,0,0,1.23.17,3.43,3.43,0,0,0,.64,0c.19,0,.45-.07.5-.3,0,.24-.3.3-.49.36a4.81,4.81,0,0,1-.65.08,4.87,4.87,0,0,1-1.31-.07Z" />
				<path class="cls-10" d="M77.09,72.91a4,4,0,0,0,2.22-.22,4.1,4.1,0,0,1-2.27.46Z" />
				<path class="cls-10" d="M77.05,73.33a3.78,3.78,0,0,0,1.12.1,1.76,1.76,0,0,0,1.07-.33,1.85,1.85,0,0,1-1.06.45,4.24,4.24,0,0,1-1.18,0Z" />
				<path class="cls-10" d="M77.14,73.9a4.28,4.28,0,0,0,2.37-.32,4.31,4.31,0,0,1-2.42.55Z" />
				<path class="cls-10" d="M77.18,74.31a4,4,0,0,0,1.19.23,2.67,2.67,0,0,0,1.22-.18,2.72,2.72,0,0,1-1.22.3,4.16,4.16,0,0,1-1.26-.13Z" />
				<path class="cls-10" d="M77.12,74.91a4.19,4.19,0,0,0,1.45.37A2.49,2.49,0,0,0,80,75a2.61,2.61,0,0,1-1.48.39A4.23,4.23,0,0,1,77,75.12Z" />
				<path class="cls-10" d="M77.05,75.77a3.58,3.58,0,0,0,1.41.31,2.32,2.32,0,0,0,1.41-.35,2.43,2.43,0,0,1-1.41.47A3.87,3.87,0,0,1,77,76Z" />
				<path class="cls-10" d="M77.17,76.55a2.92,2.92,0,0,0,1.45.22A2.7,2.7,0,0,0,80,76.3a2.77,2.77,0,0,1-1.41.59,3.09,3.09,0,0,1-1.56-.13Z" />
				<path class="cls-10" d="M77.12,77.29A3.63,3.63,0,0,0,80,77.06a3.75,3.75,0,0,1-3,.45Z" />
				<path class="cls-10" d="M77,78a3.77,3.77,0,0,0,1.8.16,2.48,2.48,0,0,0,1.61-.83,2.58,2.58,0,0,1-1.59,1,4,4,0,0,1-1.9-.06Z" />
			</g>
			<path class="cls-11" d="M76.36,48.31s-.35,1.51,0,1.68.54,0,.72-.54c0,0,.48,1.08.88-.1,0,0,.6,1,.81-.09s-.25-1.4-.25-1.4Z" />
			<path class="cls-8" d="M76.44,47.48a4.42,4.42,0,0,0-.12,1.41c.13.34.41.47.66,0,0,0,.47,1.23.94,0,0,0,.77.63.93-.34a2.51,2.51,0,0,0-.26-1.66Z" />
			<path class="cls-11" d="M76.35,47.26a4.15,4.15,0,0,0-.12,1.41c.12.34.4.46.65,0,0,0,.47,1.23,1,0,0,0,.76.62.93-.35a2.53,2.53,0,0,0-.27-1.65Z" />
			<path class="cls-8" d="M76,46.07a8.08,8.08,0,0,0-.09,1.38c0,.51.6,1.06.93.31,0,0,.59,1.06,1.17-.07,0,0,.69.58.94-.42a2.43,2.43,0,0,0-.37-1.84Z" />
			<path class="cls-11" d="M76,45.75A8,8,0,0,0,76,47.13c0,.51.6,1,.93.31,0,0,.59,1.05,1.17-.08,0,0,.69.59.93-.42a2.41,2.41,0,0,0-.36-1.84Z" />
			<path class="cls-8" d="M77.39,42c-1.35,0-1.6,3.54-1.63,4.09s.47,1.34.86.27c0,0,.51,1.12.88-.13,0,0,.74,1.06,1.07-.26,0,0,.75.84.81-.17C79.47,44.33,78.7,41.94,77.39,42Z" />
			<path class="cls-11" d="M77.3,41.64c-1.35,0-1.59,3.54-1.63,4.09s.47,1.33.86.27c0,0,.52,1.12.88-.13,0,0,.74,1.06,1.07-.27,0,0,.75.85.81-.17C79.38,44,78.61,41.61,77.3,41.64Z" />
			<path class="cls-12" d="M74.18,49.49l.57-1-.24-.45.42.15.52-.91-.32-.51.46.26.07-.12-.27-.42.34.29c.17-.31.35-.61.51-.92l-.49-.53a5.08,5.08,0,0,1,.56.42l.33-.63-.58-.45.67.28c.28-.52.53-1,.76-1.49L77.1,43l.49.23c.2-.41.37-.8.5-1.15,0,0-4.22,2.23-5.25,9.57,0,0,.54-.86,1.28-2.11l-.21-.33Z" />
			<path class="cls-12" d="M71.52,45.37l.68-.52-.31-.48.42.4.09-.06L72.2,44l.41.59a13.5,13.5,0,0,1,1.44-.89l-.25-.52.39.44.09-.05-.14-.7.51.51a7.62,7.62,0,0,1,3.6-.88s-6.62-1.92-8.3,4.26c0,0,.53-.53,1.38-1.22-.11-.24-.28-.74-.28-.74Z" />
			<path class="cls-12" d="M78.29,42.4C70.25,35.65,68,45.78,68,45.78a11.21,11.21,0,0,1,1.43-1.64l-.24-.65.41.49a11.16,11.16,0,0,1,.9-.71l-.3-.49.39.42L71,43l-.34-.71.44.65a7.88,7.88,0,0,1,.7-.37l-.08-.8.29.71a8.16,8.16,0,0,1,2.11-.58l.07-.75.23.72A8.21,8.21,0,0,1,78.29,42.4Z" />
			<path class="cls-12" d="M78.18,42.37l-.06-.17c0,.11,0,.22,0,.33Z" />
			<path class="cls-12" d="M73.18,33.67a7.43,7.43,0,0,1,1.29.86l.66-.09-.45.27a10,10,0,0,1,1,1.07l.67-.11-.48.36c.15.21.29.41.42.62l.53-.06-.37.32a13.06,13.06,0,0,1,1,2.33l.4,0-.33.25a13.68,13.68,0,0,1,.57,2.63C79.77,33.46,73.18,33.67,73.18,33.67Z" />
			<path class="cls-12" d="M86.69,38.87S82.16,31.19,78,42.38a15.84,15.84,0,0,1,2.88-2.89l-.47-.8.63.68a7.49,7.49,0,0,1,2.15-1.12L83,37.71l.54.46a4.21,4.21,0,0,1,.49-.09l-.14-.27.32.25A3.47,3.47,0,0,1,86.69,38.87Z" />
			<path class="cls-12" d="M87.5,43.63s-3.34-9.23-9.38-1.4a9.47,9.47,0,0,1,2.69-1v-.54l.18.5A7.86,7.86,0,0,1,83,41l.07-.49.14.51.54.09.13-.66.07.7a5.65,5.65,0,0,1,1.57.64l.17-.72a7.91,7.91,0,0,1,.08.87A7,7,0,0,1,87.5,43.63Z" />
			<path class="cls-12" d="M78.17,42.43s.2.24.52.66l.39-.15-.24.35c.38.51.87,1.2,1.4,2l.6-.47-.52.59.23.38.56-.41-.46.57c.17.29.35.6.52.91l.44-.22-.35.38c.19.35.38.72.56,1.09l.6-.11-.43.47a19.79,19.79,0,0,1,.9,2.29S83.87,44.28,78.17,42.43Z" />
			<path class="cls-12" d="M71.64,48.69c.12-.2.25-.4.39-.61l-.52-.53.62.38.27-.39L72,47l.53.28a23.33,23.33,0,0,1,1.73-2.12l-.3-.35.41.23.14-.14-.2-.49.42.26c.23-.23.47-.45.71-.66a1.7,1.7,0,0,1-.18-.43s.23.16.38.27a9.66,9.66,0,0,1,2.6-1.6,7.39,7.39,0,0,0-5.59,2.34,10.92,10.92,0,0,0-2.44,6.6,25.54,25.54,0,0,1,1.31-2.39l-.24-.44Z" />
			<path class="cls-12" d="M77.54,50.93c0-.69-.06-1.57-.06-2.52l-.29,0,.29-.12,0-1.31-.38-.26.39.08c0-.28,0-.56,0-.84l-.45-.16.46,0q0-.47.09-.93l-.36-.2.38.07a14,14,0,0,1,.28-1.6L77.58,43,78,43c0-.19.11-.39.17-.57,0,0-4,1.69-.53,10.11,0,0,0-.59-.09-1.51H77.3Z" />
			<path class="cls-12" d="M69.4,39A8.79,8.79,0,0,1,70.74,39L71,38.3l-.08.68.54,0,.21-.52,0,.54a10.47,10.47,0,0,1,1.65.34l.3-.65-.16.69.53.19.19-.44,0,.49a11.82,11.82,0,0,1,4.07,2.68c-4-8.18-10.86-2.83-10.86-2.83a10.05,10.05,0,0,1,2-.46l.15-.41Z" />
			<path class="cls-12" d="M69.25,36a8.19,8.19,0,0,1,2.76.19l.74-.66-.47.74a6.58,6.58,0,0,1,1.1.42l.84-.71-.58.83a8.12,8.12,0,0,1,.76.47l.73-.66-.48.83a9.26,9.26,0,0,1,1.22,1.09l.84-.41-.66.61a11.49,11.49,0,0,1,2.07,3.46C77.34,31.27,69.25,36,69.25,36Z" />
			<path class="cls-12" d="M79.73,38.06a4.58,4.58,0,0,1,.57-.67c-.21-.34-.49-.72-.49-.72a2.77,2.77,0,0,1,.73.5,2.68,2.68,0,0,1,2.09-.64c-.09-.18-.17-.36-.17-.36a5.33,5.33,0,0,1,.47.42,4.58,4.58,0,0,1,1.62.74s-7-7.13-6.43,4.85a11.91,11.91,0,0,1,1.46-3.89c-.22-.32-.48-.66-.48-.66A4.75,4.75,0,0,1,79.73,38.06Z" />
			<path class="cls-12" d="M81.4,42.75l.38.1.31-.87-.14.91a16.57,16.57,0,0,1,1.72.58l.35-.71-.21.77.19.08.41-.86-.25.94a8.36,8.36,0,0,1,1,.54l.21-.82v1a6.44,6.44,0,0,1,1.2,1s-1.55-6.46-8.55-3.13a20.11,20.11,0,0,1,3.15.47l.32-.69Z" />
			<path class="cls-12" d="M78.15,42.36s.33.14.84.42l.44-.37-.26.47a15.52,15.52,0,0,1,2.08,1.42l.52-.67-.35.81.11.1.62-.47-.4.67a9.7,9.7,0,0,1,1.11,1.19l.61-.41-.49.57a6.1,6.1,0,0,1,1.19,2.74S85.46,41.3,78.15,42.36Z" />
			<path class="cls-12" d="M82.67,51a15.31,15.31,0,0,0-1-2.76l-.46.23.37-.43c-.18-.36-.37-.72-.56-1.08l-.52.16.45-.29-.17-.31-.55.31.44-.51c-.33-.57-.66-1.11-1-1.61l-.43.14.36-.25-.34-.53-.51.18s.24-.3.35-.42c-.58-.87-1-1.43-1-1.43a13.78,13.78,0,0,0,.21,1.4l.25-.06-.21.27a15.63,15.63,0,0,0,.42,1.64l.44-.29-.4.4c.07.21.14.41.22.61l.42-.33-.38.44a12,12,0,0,0,.86,1.72l.43-.4-.33.56a9.38,9.38,0,0,0,1,1.26l.37-.45-.25.58A6,6,0,0,0,82.67,51Z" />
			<path class="cls-13" d="M30.74,79s-.83-2.64-4.63-4.12c0,0,3.43.37,4.49,2,0,0-2-3.29-4.21-4.45,0,0,3.84,1.48,4.72,3.24,0,0-1-3.42-3.24-4.81A12.44,12.44,0,0,1,32,74.89a28.27,28.27,0,0,0-1.25-4.67A28.16,28.16,0,0,1,33,75a26.27,26.27,0,0,1,.51-5.37A38.8,38.8,0,0,0,34,75.82,7.08,7.08,0,0,1,37.22,72,23.25,23.25,0,0,0,35,76.47,8.18,8.18,0,0,1,39.08,75a30.38,30.38,0,0,0-4,2.59,10.23,10.23,0,0,1,4.31-.37,21.14,21.14,0,0,0-4.77,1.53A23.2,23.2,0,0,1,30.74,79Z" />
			<path class="cls-8" d="M27.33,79.4s-2.15-37.05,0-46.2l1,.06s-1.07,36.49,2.36,45.87C30.68,79.13,30.59,80.7,27.33,79.4Z" />
			<g class="cls-15">
				<path class="cls-10" d="M25.51,43.41a5.74,5.74,0,0,0,1.56.13,9.37,9.37,0,0,0,1.57-.2,9.1,9.1,0,0,1-1.57.32,6.29,6.29,0,0,1-1.62,0Z" />
				<path class="cls-10" d="M26,44.63a4.64,4.64,0,0,0,1.58.08,4,4,0,0,0,1.55-.41,4.35,4.35,0,0,1-1.53.53,4.57,4.57,0,0,1-1.65,0Z" />
				<path class="cls-10" d="M26.1,45.42a4.75,4.75,0,0,0,2.24-.15,4.64,4.64,0,0,1-2.28.38Z" />
				<path class="cls-10" d="M26,46.2a2.43,2.43,0,0,0,1.14,0c.39-.07.78-.17,1.17-.28a11.79,11.79,0,0,1-1.14.39,2.71,2.71,0,0,1-1.24.09Z" />
				<path class="cls-10" d="M26.12,46.9a7.35,7.35,0,0,0,2.47-.38,7.47,7.47,0,0,1-2.5.62Z" />
				<path class="cls-10" d="M26.09,47.56a2.62,2.62,0,0,0,1.22.19,3.1,3.1,0,0,0,1.23-.31,3.13,3.13,0,0,1-1.22.43,2.84,2.84,0,0,1-1.32-.1Z" />
				<path class="cls-10" d="M26,48.11a2.52,2.52,0,0,0,1.41.33,4.22,4.22,0,0,0,1.48-.35,4,4,0,0,1-1.47.46,2.55,2.55,0,0,1-1.55-.24Z" />
				<path class="cls-10" d="M26,49.11a1.87,1.87,0,0,0,1.3.49,2.89,2.89,0,0,0,1.45-.29,2.8,2.8,0,0,1-1.45.4,2,2,0,0,1-1.48-.44Z" />
				<path class="cls-10" d="M26.08,50c.28.07.47.21.7.27a2.38,2.38,0,0,0,.71.06A4.13,4.13,0,0,0,28.92,50a4.35,4.35,0,0,1-1.42.44,3.22,3.22,0,0,1-.76,0c-.26-.06-.5-.19-.7-.22Z" />
				<path class="cls-10" d="M25.93,51a4.29,4.29,0,0,0,2.93-.06,4.42,4.42,0,0,1-3,.28Z" />
				<path class="cls-10" d="M26,51.78a2.79,2.79,0,0,0,1.54.42,4,4,0,0,0,1.62-.34,3.93,3.93,0,0,1-1.62.46A3,3,0,0,1,25.89,52Z" />
				<path class="cls-10" d="M26.15,52.82c0,.12.33.2.56.21a3.57,3.57,0,0,0,.73,0,4.58,4.58,0,0,0,.74-.13,1.71,1.71,0,0,0,.68-.29,2,2,0,0,1-.67.35,5.57,5.57,0,0,1-.73.19,4.78,4.78,0,0,1-.76.08c-.24,0-.56,0-.78-.31Z" />
				<path class="cls-10" d="M26,53.6a5.67,5.67,0,0,0,1.47.26,2.68,2.68,0,0,0,1.43-.37,2.7,2.7,0,0,1-1.43.49,6,6,0,0,1-1.53-.15Z" />
				<path class="cls-10" d="M26.06,54.24a2.89,2.89,0,0,0,2.86,0,3.88,3.88,0,0,1-1.46.49,2.51,2.51,0,0,1-1.53-.31Z" />
				<path class="cls-10" d="M26.12,55.32a2.2,2.2,0,0,0,1.4.33,4.07,4.07,0,0,0,1.5-.32,4.08,4.08,0,0,1-1.49.44A2.34,2.34,0,0,1,26,55.5Z" />
				<path class="cls-10" d="M26.16,56.2a2.07,2.07,0,0,0,1.24.38,3.29,3.29,0,0,0,1.35-.2,3.51,3.51,0,0,1-1.35.32A2.24,2.24,0,0,1,26,56.39Z" />
				<path class="cls-10" d="M26.13,57.25c.26.06.47.16.69.2a2.27,2.27,0,0,0,.69,0,4.11,4.11,0,0,0,1.36-.37,4.2,4.2,0,0,1-1.35.49,2.52,2.52,0,0,1-.73.05c-.24,0-.48-.12-.69-.15Z" />
				<path class="cls-10" d="M26.23,58.08a1.41,1.41,0,0,0,1.19.33,3.83,3.83,0,0,0,1.32-.33,4,4,0,0,1-1.31.45,1.57,1.57,0,0,1-1.38-.3Z" />
				<path class="cls-10" d="M26.16,59.19a2.47,2.47,0,0,0,1.3.34,2.37,2.37,0,0,0,1.35-.34,2.48,2.48,0,0,1-1.34.46A2.8,2.8,0,0,1,26,59.39Z" />
				<path class="cls-10" d="M26.24,60.23a2.23,2.23,0,0,0,1.37.23,6.15,6.15,0,0,0,1.4-.37,6.46,6.46,0,0,1-1.38.49,2.4,2.4,0,0,1-1.49-.14Z" />
				<path class="cls-10" d="M26.42,61.16a2.44,2.44,0,0,0,1.38.33,2.88,2.88,0,0,0,1.45-.32,3,3,0,0,1-1.44.44,2.5,2.5,0,0,1-1.53-.27Z" />
				<path class="cls-10" d="M26.25,61.93a2.12,2.12,0,0,0,1.34.3A4.34,4.34,0,0,0,29,61.89a4.61,4.61,0,0,1-1.4.46,2.33,2.33,0,0,1-1.48-.22Z" />
				<path class="cls-10" d="M26.38,62.76a.75.75,0,0,0,.59.29,3.36,3.36,0,0,0,.77,0,4.26,4.26,0,0,0,1.46-.56,4.36,4.36,0,0,1-1.43.67,2.73,2.73,0,0,1-.81.11,1,1,0,0,1-.78-.33Z" />
				<path class="cls-10" d="M26.42,63.72a1.1,1.1,0,0,0,.67.26,2.55,2.55,0,0,0,.78,0,2.93,2.93,0,0,0,1.48-.57,2.92,2.92,0,0,1-1.46.69,3.68,3.68,0,0,1-.82.07,1.38,1.38,0,0,1-.82-.28Z" />
				<path class="cls-10" d="M26.32,64.55a3.35,3.35,0,0,0,3.14.18,3.22,3.22,0,0,1-1.61.42,3.33,3.33,0,0,1-1.65-.4Z" />
				<path class="cls-10" d="M26.28,65.46a2.1,2.1,0,0,0,1.39.44,3,3,0,0,0,1.48-.35,3.15,3.15,0,0,1-1.48.47,2.31,2.31,0,0,1-1.54-.37Z" />
				<path class="cls-10" d="M26.27,66.45a2.57,2.57,0,0,0,1.53.21,4,4,0,0,0,1.53-.52,4.31,4.31,0,0,1-1.51.64,2.79,2.79,0,0,1-1.66-.12Z" />
				<path class="cls-10" d="M26.2,67.5a3.39,3.39,0,0,0,1.58,0,2,2,0,0,0,1.33-.84,2.07,2.07,0,0,1-1.3,1,3.7,3.7,0,0,1-1.66.16Z" />
				<path class="cls-10" d="M26.46,68.05a3.6,3.6,0,0,0,1.5.17,3,3,0,0,0,1.46-.5,3.11,3.11,0,0,1-1.44.62,3.93,3.93,0,0,1-1.6-.06Z" />
				<path class="cls-10" d="M26.57,68.75a2.22,2.22,0,0,0,1.4.36,3.86,3.86,0,0,0,1.5-.3,4,4,0,0,1-1.49.42,2.42,2.42,0,0,1-1.56-.3Z" />
				<path class="cls-10" d="M26.48,69.37a10.16,10.16,0,0,0,1.69.35,3.54,3.54,0,0,0,1.7-.24,3.54,3.54,0,0,1-1.7.36,10.12,10.12,0,0,1-1.74-.24Z" />
				<path class="cls-10" d="M26.72,70.22a1,1,0,0,0,.65.3,4.36,4.36,0,0,0,.81,0,3.62,3.62,0,0,0,1.58-.39,3.64,3.64,0,0,1-1.57.51,3.93,3.93,0,0,1-.84,0,1.2,1.2,0,0,1-.83-.33Z" />
				<path class="cls-10" d="M26.57,71.19a6.93,6.93,0,0,0,1.59.21,5.49,5.49,0,0,0,.81,0c.24,0,.59-.09.65-.38,0,.3-.39.37-.64.44a5.57,5.57,0,0,1-.82.1c-.27,0-.55,0-.82,0a4.12,4.12,0,0,1-.84-.11Z" />
				<path class="cls-10" d="M26.8,72.24a5.12,5.12,0,0,0,2.83-.31,5.27,5.27,0,0,1-2.88.55Z" />
				<path class="cls-10" d="M26.74,72.78a5.76,5.76,0,0,0,1.44.11,2.37,2.37,0,0,0,1.37-.43,2.28,2.28,0,0,1-1.36.54,5.38,5.38,0,0,1-1.5,0Z" />
				<path class="cls-10" d="M26.87,73.5a5.34,5.34,0,0,0,3-.44c-.49.19-1,.41-1.48.56a3.33,3.33,0,0,1-1.6.11Z" />
				<path class="cls-10" d="M26.92,74a5.17,5.17,0,0,0,1.52.28A3.44,3.44,0,0,0,30,74.06a3.46,3.46,0,0,1-1.55.36,5.15,5.15,0,0,1-1.6-.18Z" />
				<path class="cls-10" d="M26.83,74.78a5.14,5.14,0,0,0,1.86.46,3.16,3.16,0,0,0,1.88-.36,3.26,3.26,0,0,1-1.89.48A5.42,5.42,0,0,1,26.74,75Z" />
				<path class="cls-10" d="M26.74,75.89a4.86,4.86,0,0,0,1.82.38,3,3,0,0,0,1.79-.47,3.09,3.09,0,0,1-1.79.59,5.21,5.21,0,0,1-1.91-.28Z" />
				<path class="cls-10" d="M26.9,76.87a3.51,3.51,0,0,0,1.85.27,3.33,3.33,0,0,0,1.81-.61,3.39,3.39,0,0,1-1.79.73,4,4,0,0,1-2-.17Z" />
				<path class="cls-10" d="M26.83,77.82a4.63,4.63,0,0,0,3.72-.32,4.78,4.78,0,0,1-3.8.54Z" />
				<path class="cls-10" d="M26.73,78.74a4.86,4.86,0,0,0,2.31.19,3.2,3.2,0,0,0,2-1.07,3.24,3.24,0,0,1-2,1.19A4.93,4.93,0,0,1,26.65,79Z" />
			</g>
			<path class="cls-11" d="M25.87,40.86s-.44,1.92,0,2.13.69,0,.92-.69c0,0,.61,1.39,1.12-.11,0,0,.76,1.25,1-.13s-.32-1.78-.32-1.78Z" />
			<path class="cls-8" d="M26,39.8a5.45,5.45,0,0,0-.15,1.8c.16.43.52.59.83,0,0,0,.61,1.56,1.21,0,0,0,1,.8,1.18-.44a3.14,3.14,0,0,0-.33-2.1Z" />
			<path class="cls-11" d="M25.86,39.51a5.42,5.42,0,0,0-.16,1.8c.16.43.53.59.84,0,0,0,.6,1.57,1.21,0,0,0,1,.8,1.18-.44a3.21,3.21,0,0,0-.34-2.11Z" />
			<path class="cls-8" d="M25.44,38a10.46,10.46,0,0,0-.11,1.75c.06.65.76,1.34,1.19.4,0,0,.75,1.34,1.49-.1,0,0,.88.75,1.19-.53a3.15,3.15,0,0,0-.47-2.35Z" />
			<path class="cls-11" d="M25.46,37.59a9.84,9.84,0,0,0-.1,1.76c.05.65.75,1.34,1.18.39,0,0,.75,1.34,1.49-.1,0,0,.88.75,1.19-.53a3.09,3.09,0,0,0-.46-2.34Z" />
			<path class="cls-8" d="M27.19,32.78c-1.72,0-2,4.51-2.08,5.21s.6,1.7,1.1.34c0,0,.65,1.43,1.12-.17,0,0,.94,1.36,1.36-.33,0,0,1,1.08,1-.22C29.84,35.78,28.86,32.74,27.19,32.78Z" />
			<path class="cls-11" d="M27.07,32.35c-1.71,0-2,4.52-2.07,5.21s.59,1.71,1.09.34c0,0,.66,1.44,1.13-.16,0,0,.94,1.35,1.36-.34,0,0,1,1.08,1-.21C29.72,35.36,28.75,32.31,27.07,32.35Z" />
			<path class="cls-12" d="M22.08,40.85c.23-.39.48-.8.73-1.24l-.31-.56.53.18.67-1.16-.41-.65.59.34L24,37.6l-.34-.54.43.38c.22-.39.44-.78.65-1.17l-.63-.68a6.49,6.49,0,0,1,.71.53l.43-.8-.74-.57.86.36c.34-.66.67-1.3,1-1.9l-.5-.57.63.29c.25-.53.47-1,.64-1.47,0,0-5.39,2.84-6.7,12.2,0,0,.69-1.11,1.64-2.7l-.28-.41Z" />
			<path class="cls-12" d="M18.69,35.6l.87-.66-.4-.61.54.51.12-.08-.26-.93.52.75a21.22,21.22,0,0,1,1.83-1.14l-.31-.66.49.56.11-.06L22,32.39l.65.65a9.72,9.72,0,0,1,4.59-1.12s-8.44-2.45-10.58,5.42c0,0,.67-.67,1.75-1.55-.12-.3-.35-.94-.35-.94Z" />
			<path class="cls-12" d="M27.31,31.82c-10.23-8.61-13,4.3-13,4.3A14.6,14.6,0,0,1,16.07,34l-.3-.84.53.63a11.64,11.64,0,0,1,1.14-.91l-.38-.62.5.54.48-.31-.44-.91.57.83a9.42,9.42,0,0,1,.89-.46L19,31l.37.91A10.07,10.07,0,0,1,22,31.13l.09-1,.28.92A10.5,10.5,0,0,1,27.31,31.82Z" />
			<path class="cls-12" d="M27.18,31.78l-.08-.22,0,.42Z" />
			<path class="cls-12" d="M20.81,20.68a9.62,9.62,0,0,1,1.64,1.11l.84-.12-.57.35A10.92,10.92,0,0,1,24,23.38l.85-.14-.61.46c.19.26.36.52.53.78l.68-.06-.48.4a15.79,15.79,0,0,1,1.34,3l.52-.06-.43.33a17.56,17.56,0,0,1,.73,3.36C29.21,20.42,20.81,20.68,20.81,20.68Z" />
			<path class="cls-12" d="M38,27.32s-5.76-9.79-11,4.47a20.68,20.68,0,0,1,3.67-3.69l-.6-1,.81.86a9.57,9.57,0,0,1,2.74-1.43l-.34-.68.67.59c.21-.05.43-.09.64-.12L34.41,26l.4.33A4.36,4.36,0,0,1,38,27.32Z" />
			<path class="cls-12" d="M39.06,33.38s-4.26-11.76-12-1.78a11.89,11.89,0,0,1,3.42-1.31V29.6l.23.64a9.42,9.42,0,0,1,2.58-.17l.1-.62.17.65c.23,0,.46.06.69.11l.16-.84.1.9a7.47,7.47,0,0,1,2,.8l.22-.91c0,.22.07.73.09,1.11A8.86,8.86,0,0,1,39.06,33.38Z" />
			<path class="cls-12" d="M27.17,31.85s.25.31.66.85l.5-.19L28,33c.47.64,1.1,1.53,1.78,2.59l.76-.6-.67.75.3.49.71-.52-.59.72c.23.37.45.76.67,1.17l.56-.29-.45.49c.25.45.49.91.72,1.39l.76-.15-.54.61a25.47,25.47,0,0,1,1.14,2.91S34.43,34.21,27.17,31.85Z" />
			<path class="cls-12" d="M18.84,39.83c.16-.25.32-.51.5-.77l-.66-.68.79.48.34-.49-.48-.64.68.36a26.67,26.67,0,0,1,2.2-2.71l-.39-.44.53.29.18-.18-.26-.63.54.34c.29-.29.6-.57.91-.84a2.79,2.79,0,0,1-.24-.55s.3.21.48.34a12.26,12.26,0,0,1,3.33-2,9.43,9.43,0,0,0-7.14,3A14.08,14.08,0,0,0,17,43.07a31.26,31.26,0,0,1,1.68-3l-.32-.57Z" />
			<path class="cls-12" d="M26.37,42.69c-.05-.88-.08-2-.08-3.21l-.37-.07.37-.15c0-.55,0-1.11,0-1.68l-.49-.32.5.1.06-1.07-.58-.21.59,0c0-.41.07-.8.12-1.19l-.46-.26.48.09a19.14,19.14,0,0,1,.36-2l-.49-.15.53,0a7,7,0,0,1,.21-.73S22,34,26.5,44.71c0,0-.07-.76-.13-1.94h-.32Z" />
			<path class="cls-12" d="M16,27.53a11.11,11.11,0,0,1,1.71-.08l.36-.86-.11.87c.24,0,.47,0,.69.05l.27-.66-.06.68a12.07,12.07,0,0,1,2.09.44l.39-.84-.2.89c.23.08.45.15.67.24l.25-.56-.05.63a15.05,15.05,0,0,1,5.18,3.41c-5.08-10.42-13.84-3.61-13.84-3.61a12.73,12.73,0,0,1,2.49-.58L16,27Z" />
			<path class="cls-12" d="M15.8,23.65a10.42,10.42,0,0,1,3.51.26l1-.85-.6.94a10.13,10.13,0,0,1,1.4.53l1.07-.89-.74,1.06a10.53,10.53,0,0,1,1,.58l.92-.83-.6,1.06a11.6,11.6,0,0,1,1.55,1.39l1.07-.52-.84.78a14.39,14.39,0,0,1,2.63,4.4C26.11,17.62,15.8,23.65,15.8,23.65Z" />
			<path class="cls-12" d="M29.15,26.29a6.76,6.76,0,0,1,.73-.86c-.26-.43-.62-.91-.62-.91a3.24,3.24,0,0,1,.93.63,3.42,3.42,0,0,1,2.66-.81l-.22-.46a5.31,5.31,0,0,1,.6.53,5.79,5.79,0,0,1,2.06.94s-8.88-9.09-8.19,6.19a15.38,15.38,0,0,1,1.86-5c-.28-.41-.61-.84-.61-.84A5.27,5.27,0,0,1,29.15,26.29Z" />
			<path class="cls-12" d="M31.28,32.26l.49.13.39-1.12L32,32.45a19.38,19.38,0,0,1,2.19.73l.45-.9-.28,1,.25.11.51-1.1-.3,1.2a12.56,12.56,0,0,1,1.31.69l.27-1v1.22a8.93,8.93,0,0,1,1.53,1.26s-2-8.23-10.9-4a26.59,26.59,0,0,1,4,.61l.41-.88Z" />
			<path class="cls-12" d="M27.14,31.76s.42.19,1.07.54l.56-.47-.33.6a18.8,18.8,0,0,1,2.65,1.81l.66-.86-.44,1,.14.12.79-.59-.51.85a11.94,11.94,0,0,1,1.41,1.51l.78-.51-.62.71A7.71,7.71,0,0,1,34.81,40S36.45,30.42,27.14,31.76Z" />
			<path class="cls-12" d="M32.9,42.79a19.73,19.73,0,0,0-1.33-3.52l-.59.3.47-.55c-.23-.46-.47-.92-.71-1.38l-.67.21.58-.37-.22-.4-.7.4.55-.65c-.41-.73-.83-1.43-1.23-2L28.5,35l.46-.31L28.53,34l-.65.22.44-.53c-.73-1.11-1.26-1.82-1.26-1.82.07.63.16,1.22.27,1.79l.32-.08-.27.34A18.14,18.14,0,0,0,27.92,36l.56-.37-.51.52c.09.26.18.52.28.76l.53-.41-.47.56a14,14,0,0,0,1.09,2.19l.54-.51-.41.71A11.24,11.24,0,0,0,30.75,41l.47-.57-.32.74A7.7,7.7,0,0,0,32.9,42.79Z" />
			<path class="cls-8" d="M85.33,77.83s-2.41-41.48,0-51.72l1.14.07S85.25,67,89.09,77.54C89.09,77.54,89,79.3,85.33,77.83Z" />
			<g class="cls-16">
				<path class="cls-10" d="M83.29,37.56a6.71,6.71,0,0,0,1.74.13,10.45,10.45,0,0,0,1.77-.22,10.33,10.33,0,0,1-1.76.34,6.87,6.87,0,0,1-1.81,0Z" />
				<path class="cls-10" d="M83.85,38.92a5.57,5.57,0,0,0,1.78.09,4.74,4.74,0,0,0,1.73-.47,4.74,4.74,0,0,1-1.72.58,5.41,5.41,0,0,1-1.84,0Z" />
				<path class="cls-10" d="M84,39.8a5.28,5.28,0,0,0,2.52-.17,5.44,5.44,0,0,1-2.56.41Z" />
				<path class="cls-10" d="M83.86,40.68a2.76,2.76,0,0,0,1.28,0,10,10,0,0,0,1.31-.32,11.36,11.36,0,0,1-1.28.44,2.91,2.91,0,0,1-1.38.09Z" />
				<path class="cls-10" d="M84,41.47A8.47,8.47,0,0,0,86.75,41a8.28,8.28,0,0,1-2.8.68Z" />
				<path class="cls-10" d="M83.94,42.2a2.93,2.93,0,0,0,1.36.21,3.43,3.43,0,0,0,1.38-.35,3.38,3.38,0,0,1-1.36.46,2.88,2.88,0,0,1-1.48-.11Z" />
				<path class="cls-10" d="M83.79,42.82a2.77,2.77,0,0,0,1.59.36,4.49,4.49,0,0,0,1.65-.4,4.43,4.43,0,0,1-1.64.51A2.9,2.9,0,0,1,83.66,43Z" />
				<path class="cls-10" d="M83.85,43.93a2,2,0,0,0,1.47.54A3.18,3.18,0,0,0,87,44.15a3.29,3.29,0,0,1-1.63.44,2.21,2.21,0,0,1-1.65-.5Z" />
				<path class="cls-10" d="M83.93,44.94c.31.08.53.24.78.31a3,3,0,0,0,.8.06,4.67,4.67,0,0,0,1.6-.37,4.59,4.59,0,0,1-1.59.48,3,3,0,0,1-.85,0c-.29-.06-.55-.21-.78-.24Z" />
				<path class="cls-10" d="M83.76,46A4.84,4.84,0,0,0,87.05,46a8.57,8.57,0,0,1-1.65.45,3.52,3.52,0,0,1-1.73-.15Z" />
				<path class="cls-10" d="M83.85,46.93a3.18,3.18,0,0,0,1.74.46A4.36,4.36,0,0,0,87.4,47a4.65,4.65,0,0,1-1.81.5,3.29,3.29,0,0,1-1.86-.39Z" />
				<path class="cls-10" d="M84,48.08c.06.15.39.23.64.24a4.61,4.61,0,0,0,.83,0,5.64,5.64,0,0,0,.82-.15,2.07,2.07,0,0,0,.76-.33,2.19,2.19,0,0,1-.74.39,5.8,5.8,0,0,1-.82.21,4.8,4.8,0,0,1-.85.08c-.28,0-.63,0-.86-.34Z" />
				<path class="cls-10" d="M83.8,49a6.22,6.22,0,0,0,1.65.29,3.05,3.05,0,0,0,1.61-.42,3.07,3.07,0,0,1-1.61.54,6.59,6.59,0,0,1-1.71-.18Z" />
				<path class="cls-10" d="M83.9,49.68a3.22,3.22,0,0,0,3.21,0,4.24,4.24,0,0,1-1.63.54,2.78,2.78,0,0,1-1.71-.35Z" />
				<path class="cls-10" d="M84,50.89a2.4,2.4,0,0,0,1.58.36,4.39,4.39,0,0,0,1.67-.36,4.74,4.74,0,0,1-1.66.48,2.56,2.56,0,0,1-1.74-.3Z" />
				<path class="cls-10" d="M84,51.88a2.37,2.37,0,0,0,1.4.42,4.11,4.11,0,0,0,1.51-.23,4.11,4.11,0,0,1-1.51.35,2.53,2.53,0,0,1-1.55-.36Z" />
				<path class="cls-10" d="M84,53.05c.29.06.52.17.77.22a2.83,2.83,0,0,0,.77,0,4.49,4.49,0,0,0,1.52-.43,4.44,4.44,0,0,1-1.5.55,3.18,3.18,0,0,1-.82.05c-.27,0-.54-.14-.78-.17Z" />
				<path class="cls-10" d="M84.08,54a1.65,1.65,0,0,0,1.35.38A4.51,4.51,0,0,0,86.91,54a4.22,4.22,0,0,1-1.46.5,1.77,1.77,0,0,1-1.54-.33Z" />
				<path class="cls-10" d="M84,55.22a2.8,2.8,0,0,0,1.47.37A2.68,2.68,0,0,0,87,55.21a2.75,2.75,0,0,1-1.51.5,3,3,0,0,1-1.6-.29Z" />
				<path class="cls-10" d="M84.11,56.39a2.53,2.53,0,0,0,1.54.25,6.92,6.92,0,0,0,1.57-.43,7.05,7.05,0,0,1-1.56.55A2.76,2.76,0,0,1,84,56.6Z" />
				<path class="cls-10" d="M84.3,57.42a2.79,2.79,0,0,0,1.56.38,3.28,3.28,0,0,0,1.62-.38,3.27,3.27,0,0,1-1.62.49,2.84,2.84,0,0,1-1.7-.3Z" />
				<path class="cls-10" d="M84.11,58.29a2.43,2.43,0,0,0,1.51.33,5.07,5.07,0,0,0,1.58-.38,5,5,0,0,1-1.57.49A2.52,2.52,0,0,1,84,58.49Z" />
				<path class="cls-10" d="M84.25,59.21a.89.89,0,0,0,.68.33,3.56,3.56,0,0,0,.86-.06,5,5,0,0,0,1.63-.63,4.68,4.68,0,0,1-1.6.74,3,3,0,0,1-.9.12,1.05,1.05,0,0,1-.87-.37Z" />
				<path class="cls-10" d="M84.3,60.29a1.33,1.33,0,0,0,.76.3,3.7,3.7,0,0,0,.88,0,3.22,3.22,0,0,0,1.65-.65,3.34,3.34,0,0,1-1.63.77,3.54,3.54,0,0,1-.92.07,1.43,1.43,0,0,1-.91-.31Z" />
				<path class="cls-10" d="M84.2,61.23a3.57,3.57,0,0,0,1.71.52,3.4,3.4,0,0,0,1.8-.34,3.4,3.4,0,0,1-1.8.46,3.73,3.73,0,0,1-1.84-.44Z" />
				<path class="cls-10" d="M84.15,62.24a2.37,2.37,0,0,0,1.56.49,3.46,3.46,0,0,0,1.66-.41,3.57,3.57,0,0,1-1.65.53A2.57,2.57,0,0,1,84,62.43Z" />
				<path class="cls-10" d="M84.14,63.35a2.86,2.86,0,0,0,1.72.23,4.13,4.13,0,0,0,1.7-.6,4.35,4.35,0,0,1-1.68.72A3.1,3.1,0,0,1,84,63.56Z" />
				<path class="cls-10" d="M84.06,64.53a4,4,0,0,0,1.78-.06,2.25,2.25,0,0,0,1.49-.95,2.31,2.31,0,0,1-1.46,1.06,4.16,4.16,0,0,1-1.86.18Z" />
				<path class="cls-10" d="M84.35,65.14a3.86,3.86,0,0,0,1.69.18,3.42,3.42,0,0,0,1.63-.56,3.46,3.46,0,0,1-1.61.68,4.12,4.12,0,0,1-1.78-.07Z" />
				<path class="cls-10" d="M84.47,65.92a2.48,2.48,0,0,0,1.58.4A4.33,4.33,0,0,0,87.72,66a4.38,4.38,0,0,1-1.66.46,2.69,2.69,0,0,1-1.74-.33Z" />
				<path class="cls-10" d="M84.38,66.62a12.32,12.32,0,0,0,1.9.39,4,4,0,0,0,1.89-.28,3.87,3.87,0,0,1-1.9.39,12.57,12.57,0,0,1-1.94-.26Z" />
				<path class="cls-10" d="M84.63,67.56a1.15,1.15,0,0,0,.75.34,3.86,3.86,0,0,0,.9,0,4,4,0,0,0,1.77-.43,4,4,0,0,1-1.76.55,4.91,4.91,0,0,1-.94,0,1.34,1.34,0,0,1-.91-.38Z" />
				<path class="cls-10" d="M84.48,68.66a7,7,0,0,0,1.78.22,5.55,5.55,0,0,0,.91,0c.27-.06.65-.11.72-.44,0,.34-.44.43-.71.49a4.72,4.72,0,0,1-.92.11c-.31,0-.61,0-.92,0a5.26,5.26,0,0,1-.94-.12Z" />
				<path class="cls-10" d="M84.73,69.84a5.7,5.7,0,0,0,3.17-.37,5.82,5.82,0,0,1-3.21.6Z" />
				<path class="cls-10" d="M84.67,70.43a5.82,5.82,0,0,0,1.62.12,2.61,2.61,0,0,0,1.53-.49,2.69,2.69,0,0,1-1.52.61,5.91,5.91,0,0,1-1.68,0Z" />
				<path class="cls-10" d="M84.81,71.25a3.49,3.49,0,0,0,1.7,0,17,17,0,0,0,1.68-.51,15.53,15.53,0,0,1-1.65.62,3.73,3.73,0,0,1-1.79.13Z" />
				<path class="cls-10" d="M84.86,71.82a5.82,5.82,0,0,0,1.72.32,3.94,3.94,0,0,0,1.73-.28,4,4,0,0,1-1.73.39,5.7,5.7,0,0,1-1.79-.2Z" />
				<path class="cls-10" d="M84.77,72.68a5.89,5.89,0,0,0,2.08.51,3.54,3.54,0,0,0,2.1-.41,3.64,3.64,0,0,1-2.1.53,6.08,6.08,0,0,1-2.18-.42Z" />
				<path class="cls-10" d="M84.67,73.92a5.38,5.38,0,0,0,2,.42,3.39,3.39,0,0,0,2-.54,3.4,3.4,0,0,1-2,.66,5.72,5.72,0,0,1-2.13-.33Z" />
				<path class="cls-10" d="M84.84,75a4.09,4.09,0,0,0,2.09.29,3.69,3.69,0,0,0,2-.69,3.76,3.76,0,0,1-2,.81,4.24,4.24,0,0,1-2.2-.2Z" />
				<path class="cls-10" d="M84.77,76.08a5.2,5.2,0,0,0,4.16-.37,5.31,5.31,0,0,1-4.25.59Z" />
				<path class="cls-10" d="M84.65,77.11a5.53,5.53,0,0,0,2.59.21,3.57,3.57,0,0,0,2.29-1.21,3.64,3.64,0,0,1-2.27,1.33,5.58,5.58,0,0,1-2.69-.11Z" />
			</g>
			<path class="cls-11" d="M83.7,34.69s-.5,2.15,0,2.38.78,0,1-.77c0,0,.69,1.55,1.25-.13,0,0,.86,1.4,1.16-.14s-.35-2-.35-2Z" />
			<path class="cls-8" d="M83.82,33.5a6.06,6.06,0,0,0-.17,2c.18.48.58.66.93,0,0,0,.68,1.75,1.35,0,0,0,1.09.89,1.33-.5a3.57,3.57,0,0,0-.38-2.36Z" />
			<path class="cls-11" d="M83.68,33.18a6.1,6.1,0,0,0-.17,2c.18.47.58.65.94-.05,0,0,.67,1.75,1.35,0,0,0,1.09.89,1.32-.5a3.61,3.61,0,0,0-.37-2.36Z" />
			<path class="cls-8" d="M83.21,31.49a11.53,11.53,0,0,0-.12,2c.06.73.85,1.5,1.33.44,0,0,.84,1.5,1.67-.11,0,0,1,.84,1.33-.59a3.46,3.46,0,0,0-.52-2.63Z" />
			<path class="cls-11" d="M83.24,31a11.53,11.53,0,0,0-.12,2c.06.73.85,1.51,1.33.44,0,0,.84,1.51,1.66-.1,0,0,1,.83,1.34-.6a3.52,3.52,0,0,0-.52-2.63Z" />
			<path class="cls-8" d="M85.17,25.64c-1.92,0-2.27,5.05-2.32,5.83s.66,1.91,1.22.38c0,0,.74,1.61,1.26-.18,0,0,1,1.52,1.53-.38,0,0,1.07,1.21,1.16-.24C88.14,29,87,25.59,85.17,25.64Z" />
			<path class="cls-11" d="M85,25.16c-1.92.05-2.27,5.06-2.32,5.83s.67,1.91,1.23.39c0,0,.73,1.6,1.25-.19,0,0,1,1.52,1.53-.37,0,0,1.07,1.2,1.16-.24C88,28.52,86.92,25.12,85,25.16Z" />
			<path class="cls-12" d="M90.24,35.52c-.26-.43-.54-.9-.82-1.39l.35-.63-.6.21-.75-1.3.46-.72-.66.37-.1-.18.38-.6L88,31.7l-.73-1.31.71-.75a7.45,7.45,0,0,0-.8.58l-.48-.89.83-.64-1,.4Q86,28,85.51,27l.56-.64-.71.33c-.28-.59-.52-1.15-.71-1.64,0,0,6,3.18,7.5,13.65,0,0-.77-1.23-1.83-3l.31-.47Z" />
			<path class="cls-12" d="M94,29.64c-.3-.23-.62-.48-1-.73l.44-.69-.6.57-.13-.09.29-1-.58.84a22.92,22.92,0,0,0-2-1.27l.34-.74-.54.63-.13-.07.2-1-.74.73a10.77,10.77,0,0,0-5.14-1.25s9.46-2.75,11.85,6.07a26.09,26.09,0,0,0-2-1.74c.14-.34.4-1.05.4-1.05Z" />
			<path class="cls-12" d="M84.38,25.41C95.84,15.77,99,30.23,99,30.23a16.5,16.5,0,0,0-2-2.33L97.3,27l-.59.71a11.79,11.79,0,0,0-1.28-1l.43-.69-.56.6-.54-.34.49-1-.64.93a9.42,9.42,0,0,0-1-.52l.1-1.15-.4,1a11.11,11.11,0,0,0-3-.82l-.09-1.08-.33,1A11.71,11.71,0,0,0,84.38,25.41Z" />
			<path class="cls-12" d="M84.53,25.36s0-.08.08-.24l0,.47Z" />
			<path class="cls-12" d="M91.66,12.94a10.57,10.57,0,0,0-1.84,1.24L88.88,14l.64.4A12.12,12.12,0,0,0,88.09,16l-1-.16.68.51c-.21.29-.41.58-.59.88l-.76-.08.53.45a17.82,17.82,0,0,0-1.5,3.33l-.58,0,.48.36A18.94,18.94,0,0,0,84.58,25C82.25,12.65,91.66,12.94,91.66,12.94Z" />
			<path class="cls-12" d="M72.39,20.38s6.45-11,12.34,5a22.76,22.76,0,0,0-4.12-4.13l.68-1.14-.9,1a10.85,10.85,0,0,0-3.07-1.6l.38-.77-.76.66c-.23-.05-.47-.1-.71-.13l.21-.39-.45.37A4.85,4.85,0,0,0,72.39,20.38Z" />
			<path class="cls-12" d="M71.23,27.16S76,14,84.61,25.16a13.72,13.72,0,0,0-3.83-1.47v-.76l-.26.71a10.88,10.88,0,0,0-2.89-.19l-.11-.69-.19.72a7,7,0,0,0-.78.13l-.18-.94-.1,1a7.89,7.89,0,0,0-2.24.91l-.25-1c-.05.25-.08.82-.11,1.25A9.66,9.66,0,0,0,71.23,27.16Z" />
			<path class="cls-12" d="M84.54,25.44l-.75,1-.55-.22.34.5c-.53.72-1.24,1.72-2,2.91l-.85-.68.74.85-.34.54-.79-.58.66.81c-.25.42-.51.85-.75,1.3l-.63-.32.5.55c-.27.5-.54,1-.8,1.56l-.85-.17.61.68a27.92,27.92,0,0,0-1.28,3.26S76.41,28.08,84.54,25.44Z" />
			<path class="cls-12" d="M93.86,34.38c-.17-.28-.36-.57-.56-.86l.75-.76-.89.54-.38-.56.54-.72-.76.41a30.67,30.67,0,0,0-2.47-3l.43-.5-.58.33-.2-.2.28-.7-.6.38c-.33-.33-.67-.64-1-.95a2.8,2.8,0,0,0,.27-.62l-.54.39a14,14,0,0,0-3.72-2.28s4.89-.29,8,3.34A15.76,15.76,0,0,1,95.88,38,37.26,37.26,0,0,0,94,34.6l.35-.63Z" />
			<path class="cls-12" d="M85.44,37.59c0-1,.08-2.25.08-3.6l.41-.08-.41-.17c0-.61,0-1.24,0-1.88l.55-.35-.56.1c0-.4,0-.8-.07-1.2l.64-.23-.66,0c0-.45-.07-.89-.12-1.33l.51-.29-.54.1a21.34,21.34,0,0,0-.4-2.29l.55-.16-.6,0c-.07-.29-.15-.56-.23-.82,0,0,5.76,2.41.74,14.43,0,0,.08-.85.14-2.17h.36Z" />
			<path class="cls-12" d="M97.05,20.61a12.39,12.39,0,0,0-1.91-.09l-.4-1,.12,1-.77.06-.31-.73.07.76a14,14,0,0,0-2.34.49l-.44-.94.23,1c-.26.08-.51.17-.75.26l-.28-.62.06.7a16.77,16.77,0,0,0-5.8,3.82c5.69-11.67,15.49-4,15.49-4a15.12,15.12,0,0,0-2.79-.65L97,20Z" />
			<path class="cls-12" d="M97.27,16.27a11.91,11.91,0,0,0-3.94.28c-.4-.37-1.06-.94-1.06-.94L93,16.66a10.41,10.41,0,0,0-1.57.59l-1.2-1L91,17.44c-.38.2-.75.42-1.1.65l-1-.93.68,1.19a13.14,13.14,0,0,0-1.74,1.55l-1.2-.58.94.87a16.48,16.48,0,0,0-3,4.93C85.72,9.52,97.27,16.27,97.27,16.27Z" />
			<path class="cls-12" d="M82.32,19.22a6.92,6.92,0,0,0-.82-1c.3-.49.7-1,.7-1a3.39,3.39,0,0,0-1,.72,3.79,3.79,0,0,0-3-.91c.12-.27.24-.52.24-.52a7.87,7.87,0,0,0-.67.59,6.86,6.86,0,0,0-2.31,1.06S85.39,8,84.62,25.1a17.36,17.36,0,0,0-2.08-5.56c.31-.45.68-.94.68-.94A5.88,5.88,0,0,0,82.32,19.22Z" />
			<path class="cls-12" d="M79.94,25.91l-.55.14L79,24.8l.19,1.31a20.81,20.81,0,0,0-2.45.83l-.5-1L76.5,27l-.28.12-.58-1.23L76,27.24q-.76.36-1.47.78l-.3-1.17v1.36a9,9,0,0,0-1.71,1.41s2.2-9.21,12.19-4.46a29.93,29.93,0,0,0-4.5.68l-.45-1Z" />
			<path class="cls-12" d="M84.57,25.35s-.47.2-1.2.6l-.63-.53.38.67a21.11,21.11,0,0,0-3,2l-.74-1,.49,1.16-.16.14-.88-.67.57.95a13.47,13.47,0,0,0-1.58,1.7L77,29.86l.7.81A8.61,8.61,0,0,0,76,34.58S74.14,23.84,84.57,25.35Z" />
			<path class="cls-12" d="M78.13,37.69a21.14,21.14,0,0,1,1.48-3.94l.66.34-.52-.61c.25-.53.52-1,.79-1.55l.75.23-.64-.42.24-.44.79.44L81.05,31c.47-.82.94-1.6,1.38-2.3l.61.2-.51-.35.49-.76.73.25-.5-.6c.82-1.25,1.41-2,1.41-2-.08.71-.18,1.37-.3,2L84,27.34l.3.37a20.93,20.93,0,0,1-.6,2.34l-.63-.41.57.58c-.1.3-.2.58-.31.86l-.6-.46.53.63A16,16,0,0,1,82,33.7l-.6-.58.46.8a13,13,0,0,1-1.37,1.8L80,35.08l.36.83A8.62,8.62,0,0,1,78.13,37.69Z" />
			<path class="cls-13" d="M66.26,77s-1.11-.9-4.1-1.18c0,0,3.68-.55,5.28.14a16.16,16.16,0,0,0-6-2.43s4-.14,6.46,1.67a37.72,37.72,0,0,0-4.31-5.28s3.61,1.81,5,4.51A35,35,0,0,0,66.4,68a12.29,12.29,0,0,1,3.47,6s.21-4.1,1.6-5.63a20.45,20.45,0,0,0,.21,6,16,16,0,0,1,3.68-1,28,28,0,0,0-4,2.85,4.23,4.23,0,0,1,3.26.55A14.42,14.42,0,0,0,70.36,78Z" />
			<path class="cls-13" d="M25,80.57a12.4,12.4,0,0,0-7.86-1,28.51,28.51,0,0,1,6.35-1.21s-4.31-2.8-7.18-2.87c0,0,4.84,1,7.4,1.89,0,0-3-3.25-5.29-4,0,0,4.09,1.74,5.9,3.63,0,0-1.74-4.91-3.85-6.8,0,0,4.38,3.55,5.51,6,0,0-1.66-7.33-1.89-8.32,0,0,2.8,5.44,3,7.94,0,0,1-5.14,2.57-6.73a56.56,56.56,0,0,0-.9,7.18,6.45,6.45,0,0,1,4.68-3.78A15.57,15.57,0,0,0,30,77.55l-1,2.8Z" />
			<path class="cls-12" d="M26.35,82.52s-3.8,2.68-5.46,2.22,2.68-2.5,2.68-2.5-5.18,1.48-5.74.74S23,81,23,81s-4.26.74-3.8,0S22.83,80,22.83,80s-3.33-.28-2.41-.83,3.24.46,3.24.46S21,77,22.09,76.69s3,3,3,3-1.48-3.61.28-3.8,2.22,3.71,2.22,3.71,1-2.22,2.22-2.13-.55,3-.55,3,3-1,4.17-.09-3,1.58-3,1.58,4.82.64,4.82,1.57-5.74-.37-5.74-.37a1.26,1.26,0,0,1-.93,1.94c-1.76.47-1.76-2-1.76-2s-.55,2.22-1.66,2.13S26.35,82.52,26.35,82.52Z" />
			<path class="cls-12" d="M63.8,84.36c-.36.24-1.44.3-1.2.76S64,85,64.28,84.86c-.24.22-.72.88-.43,1.17.47.47,1-.6,1.17-.86,0,.32,0,1.23.36,1.34s.63-1,.59-1.32c0,.31.16,1.26.64,1.13s.29-1.1,0-1.31c.25.31,1.3,1,1.65.52s-.46-.91-.78-1c.28.1,1.34.21,1.32-.3,0-.34-.91-.46-1.18-.43.48,0,1.71-.39,1.78-.93a2.28,2.28,0,0,0-1.86.3c.34-.3.57-2.1,0-2.29s-.71,1.69-.82,2c0-.55-.26-2.39-1-2.4s-.48,1.82-.29,2.27c-.2-.39-1.46-2.16-2-1.6s.6,1.73.89,2c-.3-.41-2.52-1.08-2.69-.44s1.82.72,2.21.87c-.64.13-2.87-.13-2.34.85C61.89,85.13,63.2,84.3,63.8,84.36Z" />
			<path class="cls-12" d="M51.84,85.23c-1,.42-2.86,1-2.65,1.53s2.51-.87,3.09-1.32c-.47.63-1.63,1.68-1.34,2s1.79-1,2.15-1.77c-.31,2.28,1.38,1.79.91.13.17.56,1,2,1.7,1.79.94-.19-.24-1.4-.64-1.73.57.47,3.55,1.4,3.82.26s-1.84-.82-2.44-.84c.46-.14,2.48-1,2.25-1.65s-2.58.15-3,.34c.47-.38,1.46-2.89.75-3.24s-1.47,2-1.75,2.46c.18-.79.19-4-1.23-3.76-1,.16-.52,2.72-.36,3.41-.81-.92-1.88-2.64-2.49-2.4s.74,2.1,1.23,3c-.45-.29-2.7-1.6-3-.82-.2.52,1.65,1.73,2,2-.54-.13-3.48-.85-2.65.58C48.49,85.79,51.29,85.18,51.84,85.23Z" />
		</g>
	</g>
</svg>
