<svg xmlns="http://www.w3.org/2000/svg" viewBox="0 0 55.95 30.09"><defs><style>.cls-1{fill:#9d9d9c;}.cls-2{fill:#3c3c3b;}.cls-3{fill:#b67c5e;}.cls-4,.cls-5,.cls-8{fill:#1d1d1b;}.cls-5,.cls-6{opacity:0.1;}.cls-6{fill:#fff;}.cls-7{fill:#f2d0a7;}.cls-8{opacity:0.2;}</style></defs><g id="Layer_2" data-name="Layer 2"><g id="Layer_1-2" data-name="Layer 1"><path class="cls-1" d="M55.74,20.6a.1.1,0,0,1,.06-.05.09.09,0,0,1,.07,0,.07.07,0,0,0,.08,0,.07.07,0,0,0,0-.08.22.22,0,0,0-.16,0,.25.25,0,0,0-.11.12l-.11.26h.12Z"/><path class="cls-2" d="M49.46,14l6.31,6.65a.08.08,0,0,1,0,.11h0a.06.06,0,0,1-.06,0L49.25,14Z"/><path class="cls-3" d="M50.06,14.18H48.43l-3.09,0-3.43,0H40.63l-3.73,0H34.84l-7.43,0c-2.91-1.92-5.72-8.54-8.7-12.73l0,0C18.36.82,18,.39,17.69,0L35.44,5.8l4.39,1.43C43.07,11,50.06,14.16,50.06,14.18Z"/><path class="cls-3" d="M27.31,14.65l-5,1-4,.82-1.63.34-7,1.42-1.57.32c0-.6.09-1.14.11-1.64a21.54,21.54,0,0,0,0-3.31c0-.31-.06-.64-.1-1,0-.05,0-.1,0-.15,0-.26-.06-.53-.1-.82,0,0,0,0,0-.05a1.46,1.46,0,0,1,.19-.16C11.62,9.24,14,5.36,16.6,1.58l.06-.08c.34-.51.68-1,1-1.5a20.68,20.68,0,0,0,1.5,1.47,26.43,26.43,0,0,0,8.39,4.8A42.23,42.23,0,0,0,27.31,14.65Z"/><path class="cls-3" d="M29.46,24.11c-.14.69-.32,1.4-.51,2.13L8.07,18.58c0-.6.09-1.14.11-1.64a21.54,21.54,0,0,0,0-3.31c0-.31-.06-.64-.1-1,0-.05,0-.1,0-.15,0-.26-.06-.53-.1-.82l.82.23,13.56,3.78L28.68,18a4.39,4.39,0,0,1,.73,1.3A6.19,6.19,0,0,1,29.73,21,13,13,0,0,1,29.46,24.11Z"/><path class="cls-3" d="M48.28,15.37a43.56,43.56,0,0,0-.17,5.14c0,.59,0,1.2.08,1.8L47,22.55l-1.63.33-2.69.55-1,.21-4.58.93-2.85.58h0L29,26.24c.07-.9.11-1.82.11-2.75,0-.65,0-1.31,0-2-.06-1.15-.17-2.32-.33-3.49a.09.09,0,0,0,0-.05A53.07,53.07,0,0,0,38.18,7.45l.39-.55c.3.33.6.64.91.95h0c.24.25.48.48.73.71a25.2,25.2,0,0,0,8.24,5.36Q48.36,14.65,48.28,15.37Z"/><path class="cls-4" d="M41.68,23.64l-2.7.55c.66-4.27.56-14.9.56-14.9Z"/><path class="cls-5" d="M48.28,15.37A20,20,0,0,1,40.87,11c1.35,3.63,2.48,8.67,4.52,11.85l-2.69.55L40,11.23l-.23-1A44.48,44.48,0,0,1,29.73,21c-.41.32-.67.5-.72.54h0L16.62,16.84,8.13,13.63c0-.31-.06-.64-.1-1l-.14-.05.12-.1.72-.59A46.06,46.06,0,0,0,18.46,1.24l.73.23,19,6,1.3.4h0c.24.25.48.48.73.71a25.2,25.2,0,0,0,8.24,5.36Q48.36,14.65,48.28,15.37Z"/><path class="cls-3" d="M39.83,7.23c-.12.21-.23.42-.35.62a37.47,37.47,0,0,1-4.64,6.24,53.35,53.35,0,0,1-5.43,5.23c-.73.61-1.17.95-1.17,1l-10-3.78L8,12.64l-.14-.05L6.33,12,8.2,10.46a46.2,46.2,0,0,0,8.4-8.88l.06-.08c.34-.48.68-1,1-1.5L35.44,5.8Z"/><path class="cls-6" d="M39.54,9.29l2.14,14.35c.66,1.29,1-.51,3,.14C42,19.48,41.68,14.13,39.54,9.29Z"/><polygon class="cls-4" points="20.25 10.76 22.82 11.55 24.03 8.6 20.25 10.76"/><path class="cls-7" d="M20.84,9.52l-2,1.41a12.07,12.07,0,0,0,5.6-3.26Z"/><path class="cls-7" d="M20.84,9.52l2.24,2.59a9.87,9.87,0,0,0,1.35-4.44Z"/><path class="cls-8" d="M19.38,10.76l1.64-1Z"/><polygon class="cls-8" points="21.02 9.73 22.82 11.81 19.38 10.76 21.02 9.73"/><path class="cls-5" d="M34.24,25.16,29,26.24,8.07,18.58c0-.6.09-1.14.11-1.64a11.38,11.38,0,0,0,1.46,1.32A10.31,10.31,0,0,0,12,19.57c.79.32,1.61.54,2.42.78,3,.9,6,2.13,9,3.17a11.21,11.21,0,0,0,2.89.71,4.17,4.17,0,0,0,2.8-.74h0a1,1,0,0,0,.37.63l.23.2A6.15,6.15,0,0,0,34.24,25.16Z"/><path class="cls-5" d="M48.19,22.31,47,22.55a10.29,10.29,0,0,0,.92-1.61c.06-.15.12-.29.17-.43C48.13,21.1,48.16,21.71,48.19,22.31Z"/><path class="cls-5" d="M25,16.35a9.85,9.85,0,0,1,2.84,3.22,24.62,24.62,0,0,1-2.47-2.63A2.26,2.26,0,0,1,25,16.35Z"/><path class="cls-5" d="M27.52,16.85a6.42,6.42,0,0,1,.42,1.21,4.63,4.63,0,0,1,.09.49l.07.43a1.09,1.09,0,0,1-.06.76c-.15-.7-.29-1.39-.43-2.08A3.72,3.72,0,0,1,27.52,16.85Z"/><path class="cls-5" d="M26.79,17.35a9.4,9.4,0,0,1-.44-1.15q.43.66.81,1.35a2.82,2.82,0,0,1,.42,1.25C27.36,18.29,27,17.85,26.79,17.35Z"/><path class="cls-5" d="M28.4,19.66a7.52,7.52,0,0,1,.32-2.36A5.85,5.85,0,0,1,28.4,19.66Z"/><path class="cls-5" d="M8.63,11a2.37,2.37,0,0,1,.7-.21c-.35.4-.94.44-1.42.67-.2.1-.38.23-.57.32a1,1,0,0,1-.64.13C7.33,11.56,8,11.26,8.63,11Z"/><path class="cls-5" d="M7.28,11.94a1.32,1.32,0,0,0-.39.1l1.59,0a2.62,2.62,0,0,0,1-.17A8.87,8.87,0,0,0,7.28,11.94Z"/><path class="cls-5" d="M7.61,11.74a11.67,11.67,0,0,1,2.76-.64,4.91,4.91,0,0,1-1.25.39A9.71,9.71,0,0,1,7.61,11.74Z"/><path class="cls-5" d="M8.73,12.22c-.11,0-.22,0-.34,0l-1.1,0a16.72,16.72,0,0,0,2.22.32C9.25,12.41,9,12.27,8.73,12.22Z"/><path class="cls-6" d="M35.44,5.8l-.22,0C32,5,28.71,4.31,25.34,3.4c-.81-.21-1.62-.44-2.43-.67-1.1-.32-2.17-.73-3.24-1.11l-.83-.29-.16-.05a.82.82,0,0,0-.65,0,1,1,0,0,0-.32.3A47.6,47.6,0,0,1,9.16,10a2,2,0,0,1-1,.47,46.2,46.2,0,0,0,8.4-8.88l.06-.08c.34-.48.68-1,1-1.5Z"/><path class="cls-1" d="M.21,18.62a.1.1,0,0,0-.06-.05.09.09,0,0,0-.07,0,.08.08,0,0,1-.08,0,.07.07,0,0,1,0-.08.22.22,0,0,1,.16,0,.19.19,0,0,1,.11.12l.11.26H.3Z"/><path class="cls-2" d="M6.47,12,.18,18.67a.07.07,0,0,0,0,.1l0,0a.06.06,0,0,0,.06,0l6.34-6.65Z"/><path class="cls-1" d="M26.05,29.87a.12.12,0,0,0-.05-.05.11.11,0,0,0-.08,0,.06.06,0,0,1-.07,0,.06.06,0,0,1,0-.08.22.22,0,0,1,.16,0,.19.19,0,0,1,.11.12l.11.26h-.12Z"/><path class="cls-2" d="M28,20.19l-2,9.73a.07.07,0,0,0,0,.1l.05,0a.09.09,0,0,0,.06,0l2-9.76Z"/></g></g></svg>