<svg id="Layer_1" data-name="Layer 1" xmlns="http://www.w3.org/2000/svg" viewBox="0 0 189.47 189.47">
	<defs>
		<style>
			.cls-1{fill:#f2d0a7;}.cls-2{fill:#9d9d9c;}.cls-3{fill:#3c3c3b;}.cls-4{fill:#b67c5e;}.cls-5,.cls-6,.cls-8{fill:#1d1d1b;}.cls-6,.cls-7{opacity:0.1;}.cls-7{fill:#fff;}.cls-8{opacity:0.2;}.cls-9{fill:#572a09;}.cls-10{fill:#bb9958;}.cls-11{fill:#e2e2e2;}.cls-12{fill:#c3c3c2;}.cls-13{fill:#edba2c;}.cls-14{fill:#e58f22;}.cls-15{fill:#b87d29;}.cls-16{fill:#995e1a;}.cls-17{fill:#895116;}.cls-18{fill:#7d4619;}
		</style>
	</defs>
	<rect class="cls-1" width="189.47" height="189.47" rx="22" />
	<path class="cls-2" d="M181.17,171.89a.1.1,0,0,1,.05-.06.11.11,0,0,1,.08,0,0,0,0,0,0,.07,0,.05.05,0,0,0,0-.07.22.22,0,0,0-.16,0,.19.19,0,0,0-.12.11l-.1.27h.12Z" />
	<path class="cls-3" d="M174.88,165.28l6.31,6.65a.08.08,0,0,1,0,.11l-.05,0-.06,0-6.4-6.72Z" />
	<path class="cls-4" d="M175.48,165.46h-1.63l-3.08,0h-4.71l-3.74,0h-2l-7.43,0c-2.91-1.92-5.72-8.55-8.7-12.74l0,0c-.33-.46-.66-.89-1-1.28l17.74,5.8,4.39,1.44C168.49,162.24,175.48,165.44,175.48,165.46Z" />
	<path class="cls-4" d="M152.74,165.94l-5,1-4,.83-1.64.33-7,1.42-1.58.32c.06-.6.1-1.14.12-1.64a22.92,22.92,0,0,0-.06-3.31c0-.31-.06-.64-.1-1,0,0,0-.09,0-.14,0-.26-.07-.54-.11-.83v0c.06-.05.11-.11.18-.16,3.54-2.22,6-6.1,8.51-9.88l.06-.08,1-1.5a20.68,20.68,0,0,0,1.5,1.47,26.24,26.24,0,0,0,8.39,4.81A40.72,40.72,0,0,0,152.74,165.94Z" />
	<path class="cls-4" d="M154.88,175.4c-.14.69-.31,1.4-.51,2.12l-20.88-7.66c.06-.6.1-1.14.12-1.64a22.92,22.92,0,0,0-.06-3.31c0-.31-.06-.64-.1-1,0,0,0-.09,0-.14,0-.26-.07-.54-.11-.83l.82.24L147.72,167l6.38,2.34a3.93,3.93,0,0,1,.73,1.31,5.69,5.69,0,0,1,.33,1.64A12.58,12.58,0,0,1,154.88,175.4Z" />
	<path class="cls-4" d="M173.71,166.66a39.5,39.5,0,0,0-.17,5.13c0,.6,0,1.2.08,1.8l-1.17.24-1.64.34-2.69.55-1,.2-4.58.94-2.86.58h0l-5.29,1.08c.08-.9.12-1.82.12-2.74,0-.66,0-1.32-.05-2-.07-1.16-.18-2.32-.34-3.5v-.05a53.41,53.41,0,0,0,9.51-10.52l.38-.54.91.95h0l.73.71a25.06,25.06,0,0,0,8.25,5.35C173.82,165.69,173.76,166.17,173.71,166.66Z" />
	<path class="cls-5" d="M167.11,174.92l-2.7.55c.65-4.27.55-14.9.55-14.9Z" />
	<path class="cls-6" d="M173.71,166.66a20.22,20.22,0,0,1-7.41-4.34c1.35,3.63,2.47,8.66,4.51,11.85l-2.69.55-2.71-12.21-.23-1a44.29,44.29,0,0,1-10,10.78l-.72.55h0L142,168.12l-8.49-3.21c0-.31-.06-.64-.1-1l-.13,0,.12-.09.71-.59a46.14,46.14,0,0,0,9.74-10.67l.73.23,19,6,1.29.41h0l.73.71a25.06,25.06,0,0,0,8.25,5.35C173.82,165.69,173.76,166.17,173.71,166.66Z" />
	<path class="cls-4" d="M165.25,158.52c-.11.21-.23.41-.35.62a37.7,37.7,0,0,1-4.63,6.24,54.37,54.37,0,0,1-5.44,5.23c-.73.61-1.17.95-1.17.95l-10-3.77-10.23-3.87-.13,0-1.56-.59c.63-.51,1.25-1,1.86-1.54a45.59,45.59,0,0,0,8.4-8.88l.06-.08c.35-.48.69-1,1-1.5l17.74,5.8Z" />
	<path class="cls-7" d="M165,160.57l2.15,14.35c.65,1.3,1-.51,3,.14C167.45,170.76,167.11,165.42,165,160.57Z" />
	<polygon class="cls-5" points="145.68 162.04 148.25 162.83 149.46 159.88 145.68 162.04" />
	<path class="cls-1" d="M146.26,160.8l-2,1.42a12.13,12.13,0,0,0,5.6-3.27Z" />
	<path class="cls-1" d="M146.26,160.8l2.25,2.59a9.73,9.73,0,0,0,1.34-4.44Z" />
	<path class="cls-8" d="M144.81,162l1.63-1Z" />
	<polygon class="cls-8" points="146.44 161.01 148.24 163.09 144.81 162.04 146.44 161.01" />
	<path class="cls-6" d="M159.66,176.44l-5.29,1.08-20.88-7.66c.06-.6.1-1.14.12-1.64a9.62,9.62,0,0,0,1.46,1.32,10.3,10.3,0,0,0,2.33,1.32c.78.31,1.6.53,2.41.77,3,.91,6,2.13,9,3.18a11.17,11.17,0,0,0,2.9.7,4.12,4.12,0,0,0,2.8-.73s0,0,0,0a1.2,1.2,0,0,0,.37.64,2.11,2.11,0,0,0,.23.19A6.11,6.11,0,0,0,159.66,176.44Z" />
	<path class="cls-6" d="M173.62,173.59l-1.17.24a9.41,9.41,0,0,0,.91-1.61l.18-.43C173.55,172.39,173.58,173,173.62,173.59Z" />
	<path class="cls-6" d="M150.47,167.63a9.79,9.79,0,0,1,2.84,3.23,24.66,24.66,0,0,1-2.47-2.64A1.83,1.83,0,0,1,150.47,167.63Z" />
	<path class="cls-6" d="M153,168.13a6.77,6.77,0,0,1,.42,1.22l.09.49.07.42a1.15,1.15,0,0,1-.06.76c-.15-.69-.29-1.38-.43-2.08A3.2,3.2,0,0,1,153,168.13Z" />
	<path class="cls-6" d="M152.21,168.64a8.55,8.55,0,0,1-.43-1.16,14.24,14.24,0,0,1,.8,1.36,2.82,2.82,0,0,1,.42,1.24C152.78,169.58,152.45,169.13,152.21,168.64Z" />
	<path class="cls-6" d="M153.83,171a7.33,7.33,0,0,1,.31-2.37A6.1,6.1,0,0,1,153.83,171Z" />
	<path class="cls-6" d="M134.05,162.27a2,2,0,0,1,.7-.21c-.35.39-.94.43-1.41.66-.2.1-.38.23-.58.33a1,1,0,0,1-.63.12Q133.07,162.69,134.05,162.27Z" />
	<path class="cls-6" d="M132.7,163.22a1.18,1.18,0,0,0-.38.1l1.58,0a2.85,2.85,0,0,0,1-.16A8.5,8.5,0,0,0,132.7,163.22Z" />
	<path class="cls-6" d="M133,163a11.85,11.85,0,0,1,2.77-.63,5,5,0,0,1-1.26.38A9.71,9.71,0,0,1,133,163Z" />
	<path class="cls-6" d="M134.16,163.5a1.94,1.94,0,0,0-.34,0l-1.11,0a15.45,15.45,0,0,0,2.22.33A7,7,0,0,0,134.16,163.5Z" />
	<path class="cls-7" d="M160.86,157.08l-.21,0c-3.24-.72-6.52-1.45-9.89-2.35-.8-.22-1.61-.44-2.43-.68-1.09-.32-2.16-.72-3.24-1.11l-.83-.29-.15-.05a.86.86,0,0,0-.65,0,1.08,1.08,0,0,0-.33.31,46.58,46.58,0,0,1-8.55,8.4,1.93,1.93,0,0,1-1,.47,45.59,45.59,0,0,0,8.4-8.88l.06-.08c.35-.48.69-1,1-1.5Z" />
	<path class="cls-2" d="M125.63,169.9a.12.12,0,0,0,0-.05h-.08a.05.05,0,0,1-.07,0,.07.07,0,0,1,0-.08.18.18,0,0,1,.16,0,.25.25,0,0,1,.12.11l.1.26h-.12Z" />
	<path class="cls-3" d="M131.89,163.32,125.61,170a.08.08,0,0,0,0,.11h0l.06,0,6.33-6.64Z" />
	<path class="cls-2" d="M151.47,181.15a.08.08,0,0,0-.05-.05h-.08a.05.05,0,0,1-.07,0,.08.08,0,0,1,0-.08.2.2,0,0,1,.17,0,.2.2,0,0,1,.11.11l.11.26h-.13Z" />
	<path class="cls-3" d="M153.44,171.48l-2,9.72a.08.08,0,0,0,0,.11h0a.07.07,0,0,0,.06,0l2-9.75Z" />
	<path class="cls-9" d="M51.56,167.9c-.31-.8-.5-1.6-.77-2.43a4.61,4.61,0,0,1-.11-2.1,6.17,6.17,0,0,0-.3-2.16,13.77,13.77,0,0,0-.6-1.43A10.54,10.54,0,0,0,47.11,156c-1-.8-2.21-1.18-3-2.37a2.67,2.67,0,0,0-2-1.58c-1.35-.43-2.21,0-3.6.4a4.25,4.25,0,0,1-2.86,0c-.41-.16-.82-.39-1.27-.55a2.84,2.84,0,0,0-3.24,1.21c-.75.93-1.27,2-2,2.87A32.81,32.81,0,0,1,26,159a3.91,3.91,0,0,1-1.27.86,8.59,8.59,0,0,1-3.16.28,5.1,5.1,0,0,1-2.9-1.86c-1.08-1.28-1.33-3.47-2.71-4.49l.08.05c.1-.15.33-.59.13-.73s-.78.14-.87.27l.5.31a3.07,3.07,0,0,0-.55-.25,3.44,3.44,0,0,0,0-.78c-.19-.28-.74.27-.82.43a1,1,0,0,0-.14.37v-.23c-.92-.09-1.74.41-2.66.34a5.63,5.63,0,0,0-1.29-.11,3.54,3.54,0,0,0-1.29.45.86.86,0,0,0-.47.52.84.84,0,0,1-.12.31c-.11.15-.28.22-.37.41-.17.37,0,.52.28.55h0c0,.42,1.07.42,1.32.41s.5-.08.71,0,.31.27.47.38a1.89,1.89,0,0,0,.76.28c.18,0,.38.06.57.07a3.06,3.06,0,0,1,.61,0c.22.08.29.28.4.48a.64.64,0,0,0,.26.43,6.75,6.75,0,0,1,2.14,2.48A7.13,7.13,0,0,0,17.08,162a10.44,10.44,0,0,0,1,.89,18.65,18.65,0,0,0,1.57,1A12.36,12.36,0,0,0,26,165.15l.25-.05a9.41,9.41,0,0,0,.78,1.29,1.65,1.65,0,0,1,.11,1.73c-.17.41-.72,2.08-.94,2.88a15.84,15.84,0,0,1-.77,1.86,11.71,11.71,0,0,0-1.08,2.37c-.23.83-.12,1.69-.42,2.48s-.89,1.65-1.32,2.46c0,.06-.1.16-.17.28-.21.32-.47.78-.37,1s1.18.15,1.43,0a2.42,2.42,0,0,0,.66-1.25c.18-.64.29-1.34.43-1.71A5.74,5.74,0,0,1,26,175.82c.88-.73,1-1.58,1.3-2.7a14.74,14.74,0,0,1,1-2.46,8.45,8.45,0,0,1,1.52-1.94l.39-.28a5.49,5.49,0,0,1,1.46,2.34c.66,2.42,1.66,4.58,2.08,7.05a11,11,0,0,1,.13,1.74,2.36,2.36,0,0,1-.16.8,2.42,2.42,0,0,0-.15.76c0,.54.68.23,1.26.21s.54-.08.41-.75c0-.14-.05-.28-.07-.42a28,28,0,0,1-.37-2.95c-.06-1.08.24-2.18.15-3.23-.25-2-2-3.82-1.89-5.86a2,2,0,0,1,.23-.95l.08-.24a11,11,0,0,0,4.11-.56c1.7-.46,4.19-1.61,6-1.68a2,2,0,0,1,.65.1,7.22,7.22,0,0,0,1.17,5.64c1.39,1.91,1.87,3.25.91,5.58-.55,1.34-.67,1.91-1,2.84a3.57,3.57,0,0,1-.65.88,3.2,3.2,0,0,0-.33.42c-.41.62-.38.58.31.68s1,.25,1.27-.38a2.81,2.81,0,0,0,.18-.56,3.15,3.15,0,0,1,.25-.75,20.47,20.47,0,0,0,1.22-2.59c.31-.86.59-1.16.87-2l.06.75a13,13,0,0,1-.32,3.22,9.6,9.6,0,0,1-.57,1.54,3.1,3.1,0,0,0-.3,1.29,9.84,9.84,0,0,0,1.15.13c.54,0,.45.12.54-.45,0-.33.06-.67.08-1a12.11,12.11,0,0,1,.13-1.68,14.13,14.13,0,0,1,1-3.15c.34-.82-.14-1.79-.3-2.62-.61-2.57,0-5.25.08-7.84l.15-.83.16.32a7.14,7.14,0,0,1,.41,2.74,3.06,3.06,0,0,0,.12,1.56c.21.64.71,1.11.77,1.78C51.54,169.36,52,168.86,51.56,167.9Z" />
	<path class="cls-10" d="M24.48,21.75a1.2,1.2,0,1,1-1.2-1.19A1.2,1.2,0,0,1,24.48,21.75Z" />
	<path class="cls-10" d="M21.73,27.67h1.4s1.27-3.69,3.54-4.4a13,13,0,0,1,5.5,0c-.83-2.71-3.5-3.21-7.11-2.39H22.84Z" />
	<polygon class="cls-11" points="29.9 34.78 30.67 36.56 30.67 38.98 32.8 43.08 35.32 43.08 35.32 34.78 29.9 34.78" />
	<polygon class="cls-12" points="40.74 34.78 39.98 36.56 39.98 38.98 37.84 43.08 35.32 43.08 35.32 34.78 40.74 34.78" />
	<polygon class="cls-13" points="30.67 38.98 32.14 36.6 33.95 36.6 35.32 38.98 35.32 34.78 29.9 34.78 30.67 36.56 30.67 38.98" />
	<polygon class="cls-14" points="39.98 38.98 38.51 36.6 36.7 36.6 35.32 38.98 35.32 34.78 40.74 34.78 39.98 36.56 39.98 38.98" />
	<path class="cls-15" d="M19.7,16.7H19s-2.71,1.69-2.79,3.86H19.7Z" />
	<path class="cls-16" d="M19.7,16.7h.74s2.7,1.69,2.79,3.86H19.7Z" />
	<rect class="cls-10" x="18.97" y="13.75" width="1.46" height="2.95" />
	<path class="cls-17" d="M20.94,14.33a1.24,1.24,0,1,1-2.47,0,1.24,1.24,0,0,1,2.47,0Z" />
	<rect class="cls-16" x="19.52" y="12" width="0.38" height="1.11" />
	<path class="cls-13" d="M20.43,10.86c0,1.26-.33,1.79-.73,1.79S19,12.12,19,10.86a7.88,7.88,0,0,1,.72-2.77A7.8,7.8,0,0,1,20.43,10.86Z" />
	<path class="cls-16" d="M9.53,30.42a10.59,10.59,0,0,1-1.31-3.21A5.61,5.61,0,0,1,10,21.63c2.14-1.88,7.21-.88,7.43-.84l-.2,1c-1.33-.27-5.1-.68-6.57.61-3.2,2.8-.3,7.47-.27,7.51Zm7.69-8.65h0l.1-.49Z" />
	<path class="cls-10" d="M16.18,20.56S18.4,33.28,11,37.39h8.78V20.56Z" />
	<path class="cls-15" d="M23.28,20.56s-2.22,12.72,5.23,16.83H19.73V20.56Z" />
	<path class="cls-15" d="M11,37.39c.18,2.13,2.19,4.78,8.78,4.78V37.39Z" />
	<path class="cls-16" d="M28.51,37.39c-.45,5.43-9.41,4.78-8.78,4.78V37.39Z" />
	<path class="cls-15" d="M19.73,41.61H17a.81.81,0,0,0,0,1.62h2.75Z" />
	<path class="cls-16" d="M19.73,41.61h2.75a.81.81,0,0,1,0,1.62H19.73Z" />
	<path class="cls-13" d="M10.64,29.39,8.82,30.55c4,4.09,1.75,6.63,1,7C13.71,37.5,13,32.29,10.64,29.39Z" />
	<path class="cls-18" d="M32.09,35.78a.42.42,0,1,1-.83,0,.42.42,0,0,1,.83,0Z" />
	<path class="cls-18" d="M33.55,35.78a.42.42,0,1,1-.83,0,.42.42,0,0,1,.83,0Z" />
	<path class="cls-18" d="M35,35.78a.42.42,0,0,1-.42.42.41.41,0,0,1-.41-.42.41.41,0,0,1,.41-.41A.41.41,0,0,1,35,35.78Z" />
	<path class="cls-18" d="M36.47,35.78a.42.42,0,0,1-.42.42.41.41,0,0,1-.41-.42.41.41,0,0,1,.41-.41A.41.41,0,0,1,36.47,35.78Z" />
	<path class="cls-18" d="M37.92,35.78a.41.41,0,1,1-.82,0,.41.41,0,0,1,.82,0Z" />
	<path class="cls-18" d="M39.38,35.78a.41.41,0,1,1-.82,0,.41.41,0,0,1,.82,0Z" />
	<path class="cls-10" d="M165,21.75a1.2,1.2,0,1,1-1.19-1.19A1.2,1.2,0,0,1,165,21.75Z" />
	<path class="cls-10" d="M162.22,27.67h1.4s1.27-3.69,3.55-4.4a13,13,0,0,1,5.49,0c-.83-2.71-3.5-3.21-7.11-2.39h-2.22Z" />
	<polygon class="cls-11" points="170.4 34.78 171.16 36.56 171.16 38.98 173.3 43.08 175.81 43.08 175.81 34.78 170.4 34.78" />
	<polygon class="cls-12" points="181.23 34.78 180.47 36.56 180.47 38.98 178.33 43.08 175.81 43.08 175.81 34.78 181.23 34.78" />
	<polygon class="cls-13" points="171.16 38.98 172.63 36.6 174.44 36.6 175.81 38.98 175.81 34.78 170.4 34.78 171.16 36.56 171.16 38.98" />
	<polygon class="cls-14" points="180.47 38.98 179 36.6 177.19 36.6 175.81 38.98 175.81 34.78 181.23 34.78 180.47 36.56 180.47 38.98" />
	<path class="cls-15" d="M160.2,16.7h-.74s-2.7,1.69-2.79,3.86h3.53Z" />
	<path class="cls-16" d="M160.2,16.7h.73s2.71,1.69,2.79,3.86H160.2Z" />
	<rect class="cls-10" x="159.46" y="13.75" width="1.46" height="2.95" />
	<path class="cls-17" d="M161.43,14.33a1.24,1.24,0,1,1-1.23-1.23A1.24,1.24,0,0,1,161.43,14.33Z" />
	<rect class="cls-16" x="160.01" y="12" width="0.38" height="1.11" />
	<path class="cls-13" d="M160.92,10.86c0,1.26-.32,1.79-.72,1.79s-.73-.53-.73-1.79a7.8,7.8,0,0,1,.73-2.77A7.88,7.88,0,0,1,160.92,10.86Z" />
	<path class="cls-16" d="M150,30.42a10.59,10.59,0,0,1-1.31-3.21,5.61,5.61,0,0,1,1.77-5.58c2.15-1.88,7.22-.88,7.43-.84l-.2,1c-1.33-.27-5.1-.68-6.57.61-3.2,2.8-.3,7.47-.27,7.51Zm7.69-8.65h0l.1-.49Z" />
	<path class="cls-10" d="M156.67,20.56s2.22,12.72-5.22,16.83h8.77V20.56Z" />
	<path class="cls-15" d="M163.78,20.56S161.56,33.28,169,37.39h-8.78V20.56Z" />
	<path class="cls-15" d="M151.45,37.39c.17,2.13,2.18,4.78,8.77,4.78V37.39Z" />
	<path class="cls-16" d="M169,37.39c-.44,5.43-9.41,4.78-8.78,4.78V37.39Z" />
	<path class="cls-15" d="M160.22,41.61h-2.75a.81.81,0,0,0,0,1.62h2.75Z" />
	<path class="cls-16" d="M160.22,41.61H163a.81.81,0,0,1,0,1.62h-2.75Z" />
	<path class="cls-13" d="M151.13,29.39l-1.82,1.16c4,4.09,1.75,6.63,1,7C154.2,37.5,153.52,32.29,151.13,29.39Z" />
	<path class="cls-18" d="M172.58,35.78a.41.41,0,0,1-.41.42.42.42,0,0,1-.42-.42.41.41,0,0,1,.42-.41A.41.41,0,0,1,172.58,35.78Z" />
	<path class="cls-18" d="M174,35.78a.42.42,0,1,1-.83,0,.42.42,0,0,1,.83,0Z" />
	<path class="cls-18" d="M175.5,35.78a.42.42,0,1,1-.83,0,.42.42,0,0,1,.83,0Z" />
	<path class="cls-18" d="M177,35.78a.42.42,0,1,1-.83,0,.42.42,0,0,1,.83,0Z" />
	<path class="cls-18" d="M178.42,35.78a.42.42,0,1,1-.83,0,.42.42,0,0,1,.83,0Z" />
	<path class="cls-18" d="M179.88,35.78a.42.42,0,0,1-.42.42.41.41,0,0,1-.41-.42.41.41,0,0,1,.41-.41A.41.41,0,0,1,179.88,35.78Z" />
</svg>
