<svg xmlns="http://www.w3.org/2000/svg" viewBox="0 0 189.47 189.47">
	<defs>
		<style>
			.cls-1{isolation:isolate;}.cls-2{fill:#f2d0a7;}.cls-3,.cls-4{fill:#9f2925;}.cls-4{opacity:0.6;}.cls-12,.cls-21,.cls-25,.cls-27,.cls-4,.cls-5,.cls-6,.cls-9{mix-blend-mode:multiply;}.cls-5,.cls-6{fill:#f4ba92;}.cls-6{opacity:0.4;}.cls-7{fill:#f4d9bf;}.cls-8,.cls-9{fill:#ec4c54;}.cls-10{fill:#474747;}.cls-11{fill:#232323;}.cls-12{fill:#7a3a00;}.cls-13,.cls-33{fill:#fff;}.cls-14{fill:#b5c0c6;}.cls-15{fill:#8a9397;}.cls-16{fill:#efcaa6;}.cls-17{fill:#c39368;}.cls-18{fill:#eaae7d;}.cls-19{fill:#474746;}.cls-20{fill:#e7363a;}.cls-21{opacity:0.7;}.cls-22{fill:#ccd8df;}.cls-23{fill:#a02d33;}.cls-24,.cls-25{fill:#313130;}.cls-26,.cls-27{fill:#4a4a49;}.cls-28{fill:#9d9d9c;}.cls-29{fill:#3c3c3b;}.cls-30{fill:#b67c5e;}.cls-31,.cls-32,.cls-34{fill:#1d1d1b;}.cls-32,.cls-33{opacity:0.1;}.cls-34{opacity:0.2;}.cls-35{fill:#572a09;}.cls-36{fill:#686868;}
		</style>
	</defs>
	<g class="cls-1">
		<g id="Layer_1" data-name="Layer 1">
			<rect class="cls-2" width="189.47" height="189.47" rx="22" />
			<path class="cls-3" d="M88.33,91.76a6.15,6.15,0,0,0,3.1,4.44c2.74,1.36,8.78.28,9.67-4a24.35,24.35,0,0,0-.47-4.88c-.48-1.81-2.25-5.9-2.25-5.9l-8.13,1.11S87.67,88.08,88.33,91.76Z" />
			<path class="cls-4" d="M100.35,85.49a38.22,38.22,0,0,0-2.15-4.12l-7.74.78s-2.47,3.9-1.83,6.48a3.17,3.17,0,0,0,.33.89,10.35,10.35,0,0,1,1-4.15s.13-.12.17-.06a7.45,7.45,0,0,0,1.63,1.86c.06,0,0,.14,0,.17a6.2,6.2,0,0,0-2.14,2.55l-.16.3a4.77,4.77,0,0,0,2.19,1.53c2.1.77,6.22.43,8.21-1.3A8.85,8.85,0,0,0,97,87.32c-.07,0,0-.13,0-.16a5.24,5.24,0,0,0,2-1.42s.12-.09.16,0a10,10,0,0,1,1.34,3.94,2.83,2.83,0,0,0,.34-.75A12.54,12.54,0,0,0,100.35,85.49Z" />
			<path class="cls-5" d="M102.11,97.73s-.2-.81-.3-.71l-1,.29c.07.24.22.74.23.79a6.37,6.37,0,0,0-.43.93c-.12.39-.11.84,0,.92s.32-.57.58-.81a9.05,9.05,0,0,1,.15,1.17c0,.31,0,.58.19.53s.34-.52.19-1.66c0,0,.18.57.33,1.14s.46.47.34-.13-.26-1.18-.26-1.18a4.08,4.08,0,0,1,.41.92c.13.46.41.56.37,0a4,4,0,0,0-.27-1,4.88,4.88,0,0,0,.5.8c.18.22.38.23.13-.42A2.55,2.55,0,0,0,102.11,97.73Z" />
			<path class="cls-6" d="M100.74,98.65c.59-.19,1.16-.45,1.74-.69a1.1,1.1,0,0,0-.37-.23s-.2-.81-.3-.71l-1,.29c.07.24.22.74.23.79S100.87,98.36,100.74,98.65Z" />
			<path class="cls-5" d="M87.36,97.73s.2-.81.3-.71l1,.29c-.08.24-.22.74-.23.79a6.37,6.37,0,0,1,.43.93c.12.39.11.84,0,.92s-.32-.57-.58-.81a10.65,10.65,0,0,0-.16,1.17c0,.31,0,.58-.18.53s-.34-.52-.19-1.66c0,0-.18.57-.33,1.14s-.46.47-.34-.13.26-1.18.26-1.18a4.08,4.08,0,0,0-.41.92c-.13.46-.41.56-.37,0a4,4,0,0,1,.27-1,5.8,5.8,0,0,1-.5.8c-.18.22-.38.23-.13-.42A2.55,2.55,0,0,1,87.36,97.73Z" />
			<path class="cls-6" d="M88.59,98.35l-.14-.25s.15-.55.23-.79l-1-.29c-.1-.1-.3.71-.3.71A1.36,1.36,0,0,0,87,98C87.51,98.13,88.05,98.22,88.59,98.35Z" />
			<path class="cls-7" d="M94.22,108.48c-.08-2.35-.18-6.11-.18-6.11l-1.5-.33.3,6.45A12.93,12.93,0,0,0,94.22,108.48Z" />
			<path class="cls-8" d="M94.22,108.48a12.93,12.93,0,0,1-1.38,0l.09,2.12h0a.58.58,0,0,1,.65.46,2.6,2.6,0,0,0,.74-.06q0-.41-.06-.9C94.27,109.8,94.25,109.21,94.22,108.48Z" />
			<path class="cls-9" d="M94.29,110.11c0-.31,0-.9-.07-1.63l-.39,0a3.35,3.35,0,0,1,0,1.37.76.76,0,0,1-.32.51,1.22,1.22,0,0,1-.63.14v.09h0a.58.58,0,0,1,.65.46,2.6,2.6,0,0,0,.74-.06Q94.32,110.6,94.29,110.11Z" />
			<path class="cls-10" d="M92.13,113a6,6,0,0,1-2.43-.41c0,.41.43.6,1.83.66s2.75-.36,2.84-.63a.14.14,0,0,0,0-.07A5.4,5.4,0,0,1,92.13,113Z" />
			<path class="cls-11" d="M92.13,113a5.4,5.4,0,0,0,2.26-.45,9.44,9.44,0,0,0,0-1.52,2.6,2.6,0,0,1-.74.06.58.58,0,0,0-.65-.46h0a.85.85,0,0,0-.55.38c-.29.23-.63.25-1.82.54a.93.93,0,0,0-.86,1v0A6,6,0,0,0,92.13,113Z" />
			<path class="cls-12" d="M94.39,111.68c0-.2,0-.42,0-.67a2.6,2.6,0,0,1-.74.06.58.58,0,0,0-.65-.46h0a.85.85,0,0,0-.55.38,1.91,1.91,0,0,1-.83.31A12,12,0,0,0,94.39,111.68Z" />
			<path class="cls-7" d="M95.94,108.48c.08-2.35.18-6.11.18-6.11l1.5-.33-.29,6.45A13.11,13.11,0,0,1,95.94,108.48Z" />
			<path class="cls-8" d="M95.94,108.48a13.11,13.11,0,0,0,1.39,0l-.1,2.12h0a.56.56,0,0,0-.64.46,2.64,2.64,0,0,1-.75-.06q0-.41.06-.9C95.89,109.8,95.91,109.21,95.94,108.48Z" />
			<path class="cls-9" d="M95.87,110.11c0-.31,0-.9.07-1.63l.39,0a3.54,3.54,0,0,0,0,1.37.76.76,0,0,0,.32.51,1.24,1.24,0,0,0,.63.14v.09h0a.56.56,0,0,0-.64.46,2.64,2.64,0,0,1-.75-.06Q95.84,110.6,95.87,110.11Z" />
			<path class="cls-10" d="M98,113a6,6,0,0,0,2.44-.41c0,.41-.44.6-1.84.66s-2.75-.36-2.84-.63a.64.64,0,0,1,0-.07A5.49,5.49,0,0,0,98,113Z" />
			<path class="cls-11" d="M98,113a5.49,5.49,0,0,1-2.26-.45,9.44,9.44,0,0,1,0-1.52,2.64,2.64,0,0,0,.75.06.56.56,0,0,1,.64-.46h0a.88.88,0,0,1,.56.38c.28.23.63.25,1.81.54a.94.94,0,0,1,.87,1v0A6,6,0,0,1,98,113Z" />
			<path class="cls-12" d="M95.91,111.67a17.51,17.51,0,0,0,2.89-.32,2.3,2.3,0,0,1-1-.35.88.88,0,0,0-.56-.38h0a.56.56,0,0,0-.64.46,2.64,2.64,0,0,1-.75-.06c0,.24,0,.46,0,.66Z" />
			<path class="cls-13" d="M100.52,98l2.55-.87a18.71,18.71,0,0,0-2.48-5.67,8.67,8.67,0,0,0-3-3.29,6.58,6.58,0,0,0-4-.61c-2.5.29-4.46,3.76-4.46,3.76s-1.34,1.6-2.44,6l2.59.76a21.9,21.9,0,0,1,1.49-5.06A96.13,96.13,0,0,0,89,110.34a18.09,18.09,0,0,0,10.92.29,13.05,13.05,0,0,0,1.37-.43,95.86,95.86,0,0,0-2.45-17.15A22.06,22.06,0,0,1,100.52,98Z" />
			<path class="cls-14" d="M92.93,86.88l-.16.92a3.93,3.93,0,0,0,3.44-.09L96,86.85,94.69,87l-.21.17L94.33,87Z" />
			<path class="cls-15" d="M94.57,87.47a.85.85,0,0,1,.24-.47h-.12l-.21.17L94.33,87h-.11a2.36,2.36,0,0,1,.3,1.14h.07A2.6,2.6,0,0,1,94.57,87.47Z" />
			<path class="cls-16" d="M99.65,83c-.36-.18-.61.08-.8.29a0,0,0,0,0,0,0,1,1,0,0,0-.22.85c0,.28.26.43.62.34a.91.91,0,0,0,.64-.78A.64.64,0,0,0,99.65,83Z" />
			<path class="cls-17" d="M99.52,83.6c-.09-.11-.29-.06-.4,0l-.16.13s0,0-.06.07a.64.64,0,0,1,0,.07s0,0,0,0a.09.09,0,0,0,0,0,.4.4,0,0,1,.12-.1.36.36,0,0,1,.38-.09S99.55,83.63,99.52,83.6Z" />
			<path class="cls-16" d="M90.57,83.51c0-.19,0-.47-.16-.63a.41.41,0,0,0-.13-.08.49.49,0,0,0-.73.07A1,1,0,0,0,90,84C90.46,84.32,90.59,83.8,90.57,83.51Z" />
			<path class="cls-17" d="M90.24,83.2a.35.35,0,0,0-.4,0s0,.07,0,.07.21,0,.31,0a.43.43,0,0,1,.2.25s.05,0,.05,0S90.35,83.28,90.24,83.2Z" />
			<path class="cls-18" d="M99.27,79.47l-4.52.07-4.52-.07c0,.47.08,2.56.08,3a10.85,10.85,0,0,0,.08,1.4,3.25,3.25,0,0,0,.27.89,4.51,4.51,0,0,0,2.11,2,3.4,3.4,0,0,0,1.12.34,6.49,6.49,0,0,0,1.4,0l.32,0a3.42,3.42,0,0,0,1.11-.34,4.54,4.54,0,0,0,2.12-2,3.64,3.64,0,0,0,.27-.89,10.85,10.85,0,0,0,.08-1.4C99.19,82,99.3,79.94,99.27,79.47Z" />
			<path class="cls-19" d="M97,85c-.39-.87-1.23-1-2.08-.88s-1.8-.29-2.51.21a2,2,0,0,0-.58.74,2.3,2.3,0,0,0-.14.42c0,.08-.12.49,0,.54a5,5,0,0,0,.85.6,2.05,2.05,0,0,1,0-1.34c.25-.74,1.09-.63,1.71-.58s1-.21,1.58,0,.64.92.54,1.45A3.62,3.62,0,0,1,96,87a3.5,3.5,0,0,0,.77-.28c.18-.09.35-.18.51-.28,0,0,0-.11,0-.16A3.63,3.63,0,0,0,97,85Z" />
			<path class="cls-20" d="M99,78.77a3.52,3.52,0,0,0-.54-.82A5.07,5.07,0,0,0,96,76.44a4.8,4.8,0,0,0-3.66.35,5.27,5.27,0,0,0-1.55,1.42,6.67,6.67,0,0,0-1,2.81c-.35,3-2.13,4.7-1.11,7.76l.07-.23a10.48,10.48,0,0,1,1.05-3.27,21.47,21.47,0,0,0,1.45-4.57h6.58a18.61,18.61,0,0,0,1.53,4.2,16.22,16.22,0,0,1,1.42,3.66l.06.33a8.92,8.92,0,0,0-.16-3.25,33.23,33.23,0,0,1-1.2-4.89A6,6,0,0,0,99,78.77Z" />
			<path class="cls-15" d="M94.33,91.46a1.35,1.35,0,0,1,.67,0l-.25-.1-.17-3.18H94.5l.1,3.13A.46.46,0,0,0,94.33,91.46Z" />
			<g class="cls-21">
				<path class="cls-22" d="M102.21,97.47l.86-.3a18.71,18.71,0,0,0-2.48-5.67,8.67,8.67,0,0,0-3-3.29L97.21,88C100,90.24,101.75,95.82,102.21,97.47Z" />
				<path class="cls-22" d="M88.14,97.84l1.11.32a23.05,23.05,0,0,1,1.39-4.86c.33-1,.81-2.82.81-2.82C89.54,92.44,88.48,96.37,88.14,97.84Z" />
				<path class="cls-22" d="M98.6,111c.43-.1.86-.21,1.3-.34a13.05,13.05,0,0,0,1.37-.43,95.86,95.86,0,0,0-2.45-17.15,15.65,15.65,0,0,0-1.45-3.18S99.15,103.07,98.6,111Z" />
			</g>
			<path class="cls-23" d="M100.64,85.65a33.23,33.23,0,0,1-1.2-4.89,6,6,0,0,0-.45-2,3.52,3.52,0,0,0-.54-.82A5.07,5.07,0,0,0,96,76.44a5.52,5.52,0,0,0-2.49-.1,4,4,0,0,1,.49,0,5.4,5.4,0,0,1,2.09.74c.13.08,1.08.7.69.88a1,1,0,0,1-.34,0h-.52c-.46,0-.91,0-1.36,0-.88.06-1.76.2-2.63.34a7.29,7.29,0,0,0-1.46.38,7,7,0,0,0-.55,1.37c.19,0,.51-.1.63.08a.72.72,0,0,1,0,.41c0,.22,0,.43,0,.65a7.14,7.14,0,0,1-.38,1.58c-.63,1.71-1.7,3.39-1.71,5.22,0,.23.11.47.19.72l.07-.23a10.48,10.48,0,0,1,1.05-3.27,21.47,21.47,0,0,0,1.45-4.57h6.58a18.61,18.61,0,0,0,1.53,4.2,16.22,16.22,0,0,1,1.42,3.66l.06.33A8.92,8.92,0,0,0,100.64,85.65ZM97.2,80.34a11.8,11.8,0,0,1-1.88,0c-.65,0-1.3,0-1.94,0l-1.06.06c-.22,0-.45,0-.68.06a.34.34,0,0,1-.33-.1c0-.06,0-.2,0-.3,0-.31.47-.42.72-.47a7.32,7.32,0,0,1,1.93-.1,12.93,12.93,0,0,1,2.14.28c.33.08.9.17,1.11.49C97.28,80.3,97.24,80.34,97.2,80.34Zm3,6.2A20.07,20.07,0,0,0,99,83.64a24.51,24.51,0,0,1-1-3.16v0l0-.06c0-.05.08-.11.1-.06a7.83,7.83,0,0,0,.72,1.52c.25.46.47.92.68,1.4a8.47,8.47,0,0,1,.82,3.24S100.26,86.59,100.25,86.54Z" />
			<path class="cls-20" d="M91.32,79.06a7.63,7.63,0,0,0-1.14,2.42s6.67-.57,8.9,0A10,10,0,0,0,97.92,79C97.29,78.24,92,78.54,91.32,79.06Z" />
			<path class="cls-23" d="M98,79c-.64-.85-6-.54-6.69,0a7.33,7.33,0,0,0-.51.87l.43-.07a10.28,10.28,0,0,1,2.22-.14,9.15,9.15,0,0,1,2.26.39c.38.13,1,.29,1.19.73,0,0,0,.08-.08.08a16.51,16.51,0,0,0-3.51.14,19.29,19.29,0,0,0-2.81.52c1.41-.11,6.72-.48,8.67,0A11,11,0,0,0,98,79Z" />
			<path class="cls-24" d="M90.44,78.44s-.19-.19.09-.34a27.89,27.89,0,0,1,4.54-.26c2.12-.09,3.93.13,3.88.57a.12.12,0,0,1-.15.08C98.7,78.34,96.32,77.87,90.44,78.44Z" />
			<path class="cls-25" d="M98.07,78h0a.89.89,0,0,1-.53.12c-.43,0-.87,0-1.3,0l-1.38,0c-1.46.06-3.09-.17-4.43.37h0c5.89-.57,8.26-.1,8.36,0a.12.12,0,0,0,.15-.08C99,78.24,98.64,78.06,98.07,78Z" />
			<path class="cls-26" d="M90.71,78.29s-.38,0-.47.3,0,.42.41.31a23.78,23.78,0,0,1,3.94-.4c1.68,0,4,.37,4.25.28s.16-.28-.1-.37S96,77.92,90.71,78.29Z" />
			<path class="cls-27" d="M98.74,78.41c-.21-.13-1.77-.39-5-.27h.07c.53,0,1.07,0,1.59.06.26,0,.5.06.76.07a2.67,2.67,0,0,1,.48.08s0,.06,0,.06c-1,0-2,.07-3,.13.32,0,.65,0,1,0,1.68,0,4,.37,4.25.28S99,78.5,98.74,78.41Z" />
			<path class="cls-27" d="M90.5,78.93l.15,0a23.43,23.43,0,0,1,2.93-.36A19.8,19.8,0,0,0,90.5,78.93Z" />
			<path class="cls-28" d="M181.17,28.7a.1.1,0,0,1,.05-.06.11.11,0,0,1,.08,0,0,0,0,0,0,.07,0,.05.05,0,0,0,0-.07.22.22,0,0,0-.16,0,.19.19,0,0,0-.12.11l-.1.27h.12Z" />
			<path class="cls-29" d="M174.88,22.09l6.31,6.65a.08.08,0,0,1,0,.11l-.05,0-.06,0-6.4-6.72Z" />
			<path class="cls-30" d="M175.48,22.27h-1.63l-3.08,0h-4.71l-3.74,0h-2l-7.43,0c-2.91-1.92-5.72-8.55-8.7-12.74l0,0c-.33-.46-.66-.88-1-1.28l17.74,5.8,4.39,1.44C168.49,19.05,175.48,22.25,175.48,22.27Z" />
			<path class="cls-30" d="M152.74,22.75l-5,1-4,.83-1.64.33-7,1.42-1.58.32c.06-.6.1-1.13.12-1.64a22.94,22.94,0,0,0-.06-3.31c0-.31-.06-.64-.1-1,0,0,0-.1,0-.15,0-.26-.07-.53-.11-.82v-.06a1.3,1.3,0,0,1,.18-.15c3.54-2.23,6-6.11,8.51-9.88l.06-.09,1-1.5a20.68,20.68,0,0,0,1.5,1.47A26.24,26.24,0,0,0,153,14.37,40.72,40.72,0,0,0,152.74,22.75Z" />
			<path class="cls-30" d="M154.88,32.21c-.14.69-.31,1.4-.51,2.12l-20.88-7.66c.06-.6.1-1.13.12-1.64a22.94,22.94,0,0,0-.06-3.31c0-.31-.06-.64-.1-1,0,0,0-.1,0-.15,0-.26-.07-.53-.11-.82l.82.23,13.57,3.77,6.38,2.34a4,4,0,0,1,.73,1.31,5.76,5.76,0,0,1,.33,1.64A12.58,12.58,0,0,1,154.88,32.21Z" />
			<path class="cls-30" d="M173.71,23.47a39.5,39.5,0,0,0-.17,5.13c0,.6,0,1.2.08,1.8l-1.17.24-1.64.34-2.69.55-1,.2-4.58.94-2.86.58h0l-5.29,1.08c.08-.9.12-1.81.12-2.74,0-.66,0-1.32-.05-2-.07-1.15-.18-2.32-.34-3.5v-.05a53.41,53.41,0,0,0,9.51-10.52L164,15l.91.95h0l.73.71A25.06,25.06,0,0,0,173.89,22C173.82,22.5,173.76,23,173.71,23.47Z" />
			<path class="cls-31" d="M167.11,31.73l-2.7.55c.65-4.27.55-14.89.55-14.89Z" />
			<path class="cls-32" d="M173.71,23.47a20.22,20.22,0,0,1-7.41-4.34c1.35,3.63,2.47,8.66,4.51,11.85l-2.69.55-2.71-12.2-.23-1a44.29,44.29,0,0,1-10,10.78l-.72.55h0L142,24.93l-8.49-3.21c0-.31-.06-.64-.1-1l-.13-.06.12-.09.71-.59a46.14,46.14,0,0,0,9.74-10.67l.73.23,19,6,1.29.41h0l.73.71A25.06,25.06,0,0,0,173.89,22C173.82,22.5,173.76,23,173.71,23.47Z" />
			<path class="cls-30" d="M165.25,15.33c-.11.21-.23.41-.35.62a37.7,37.7,0,0,1-4.63,6.24,54.37,54.37,0,0,1-5.44,5.23c-.73.61-1.17.95-1.17.95l-10-3.77-10.23-3.86-.13-.06-1.56-.59c.63-.51,1.25-1,1.86-1.54A45.51,45.51,0,0,0,142,9.68l.06-.09c.35-.48.69-1,1-1.5l17.74,5.8Z" />
			<path class="cls-33" d="M165,17.39l2.15,14.34c.65,1.3,1-.51,3,.14C167.45,27.57,167.11,22.23,165,17.39Z" />
			<polygon class="cls-31" points="145.68 18.85 148.25 19.64 149.46 16.69 145.68 18.85" />
			<path class="cls-2" d="M146.26,17.61l-2,1.42a12.19,12.19,0,0,0,5.6-3.26Z" />
			<path class="cls-2" d="M146.26,17.61l2.25,2.59a9.73,9.73,0,0,0,1.34-4.43Z" />
			<path class="cls-34" d="M144.81,18.85l1.63-1Z" />
			<polygon class="cls-34" points="146.44 17.82 148.24 19.9 144.81 18.85 146.44 17.82" />
			<path class="cls-32" d="M159.66,33.25l-5.29,1.08-20.88-7.66c.06-.6.1-1.13.12-1.64a9.62,9.62,0,0,0,1.46,1.32,10.3,10.3,0,0,0,2.33,1.32c.78.31,1.6.53,2.41.77,3,.91,6,2.14,9,3.18a10.78,10.78,0,0,0,2.9.7,4.12,4.12,0,0,0,2.8-.73,0,0,0,0,0,0,0,1.2,1.2,0,0,0,.37.64,2.11,2.11,0,0,0,.23.19A6.11,6.11,0,0,0,159.66,33.25Z" />
			<path class="cls-32" d="M173.62,30.4l-1.17.24a9.41,9.41,0,0,0,.91-1.61l.18-.43C173.55,29.2,173.58,29.8,173.62,30.4Z" />
			<path class="cls-32" d="M150.47,24.45a9.66,9.66,0,0,1,2.84,3.22A24.66,24.66,0,0,1,150.84,25,1.79,1.79,0,0,1,150.47,24.45Z" />
			<path class="cls-32" d="M153,24.94a6.77,6.77,0,0,1,.42,1.22l.09.49.07.42a1.15,1.15,0,0,1-.06.76c-.15-.69-.29-1.38-.43-2.08A3.15,3.15,0,0,1,153,24.94Z" />
			<path class="cls-32" d="M152.21,25.45a8.08,8.08,0,0,1-.43-1.16,14.24,14.24,0,0,1,.8,1.36,2.82,2.82,0,0,1,.42,1.24C152.78,26.39,152.45,25.94,152.21,25.45Z" />
			<path class="cls-32" d="M153.83,27.76a7.33,7.33,0,0,1,.31-2.37A6.1,6.1,0,0,1,153.83,27.76Z" />
			<path class="cls-32" d="M134.05,19.08a2.25,2.25,0,0,1,.7-.21c-.35.39-.94.44-1.41.67-.2.09-.38.22-.58.32a1,1,0,0,1-.63.12Q133.07,19.5,134.05,19.08Z" />
			<path class="cls-32" d="M132.7,20a1.18,1.18,0,0,0-.38.1l1.58,0a2.85,2.85,0,0,0,1-.16A8.5,8.5,0,0,0,132.7,20Z" />
			<path class="cls-32" d="M133,19.84a11.87,11.87,0,0,1,2.77-.64,5.42,5.42,0,0,1-1.26.39A12.85,12.85,0,0,1,133,19.84Z" />
			<path class="cls-32" d="M134.16,20.31l-.34,0-1.11,0a15.45,15.45,0,0,0,2.22.33A7,7,0,0,0,134.16,20.31Z" />
			<path class="cls-33" d="M160.86,13.89l-.21,0c-3.24-.72-6.52-1.45-9.89-2.35-.8-.22-1.61-.44-2.43-.68-1.09-.32-2.16-.72-3.24-1.1-.27-.11-.55-.2-.83-.3l-.15-.05a.86.86,0,0,0-.65,0,1.08,1.08,0,0,0-.33.31,46.58,46.58,0,0,1-8.55,8.4,1.93,1.93,0,0,1-1,.47A45.51,45.51,0,0,0,142,9.68l.06-.09c.35-.48.69-1,1-1.5Z" />
			<path class="cls-28" d="M125.63,26.71a.12.12,0,0,0,0-.05.11.11,0,0,0-.08,0,.05.05,0,1,1,0-.1.15.15,0,0,1,.16,0,.25.25,0,0,1,.12.11l.1.27h-.12Z" />
			<path class="cls-29" d="M131.89,20.13l-6.28,6.63a.08.08,0,0,0,0,.11h0l.06,0,6.33-6.64Z" />
			<path class="cls-28" d="M151.47,38a.08.08,0,0,0-.05-.05h-.08a.05.05,0,0,1-.07,0,.06.06,0,0,1,0-.07.17.17,0,0,1,.17,0,.2.2,0,0,1,.11.11l.11.27h-.13Z" />
			<path class="cls-29" d="M153.44,28.29l-2,9.72a.08.08,0,0,0,0,.11h0a.07.07,0,0,0,.06,0l2-9.75Z" />
			<path class="cls-35" d="M181.2,167.71c-.31-.81-.51-1.6-.78-2.44a4.57,4.57,0,0,1-.11-2.09A6,6,0,0,0,180,161a12.57,12.57,0,0,0-.59-1.43,10.8,10.8,0,0,0-2.67-3.75c-1.05-.79-2.21-1.17-2.95-2.36a2.69,2.69,0,0,0-2-1.58c-1.35-.44-2.2,0-3.59.4a4.34,4.34,0,0,1-2.87,0c-.41-.16-.81-.39-1.26-.55a2.84,2.84,0,0,0-3.24,1.2c-.75.94-1.27,2-2,2.87a30.64,30.64,0,0,1-3.21,2.91,3.91,3.91,0,0,1-1.27.86,8.78,8.78,0,0,1-3.15.28,5.07,5.07,0,0,1-2.9-1.87c-1.09-1.28-1.34-3.47-2.71-4.48l.08.05c.1-.15.33-.6.13-.73s-.79.14-.87.26l.5.31a4,4,0,0,0-.55-.24,3.44,3.44,0,0,0,0-.78c-.2-.28-.74.27-.83.43a1.54,1.54,0,0,0-.14.37V153c-.92-.08-1.73.42-2.65.35a5.67,5.67,0,0,0-1.3-.11,3.49,3.49,0,0,0-1.29.45.87.87,0,0,0-.47.52c0,.12,0,.2-.11.3s-.28.22-.37.42c-.17.37,0,.51.28.54l-.05,0c0,.42,1.08.42,1.33.41s.5-.08.71,0,.3.27.47.37a1.73,1.73,0,0,0,.75.29l.58.07a3,3,0,0,1,.6,0c.23.08.3.29.41.48a.65.65,0,0,0,.26.44,6.63,6.63,0,0,1,2.13,2.48,7.81,7.81,0,0,0,1.44,1.79,9.46,9.46,0,0,0,1,.89c.49.32,1,.78,1.56,1A12.41,12.41,0,0,0,155.6,165l.25-.05a8.51,8.51,0,0,0,.78,1.29,1.64,1.64,0,0,1,.11,1.72c-.17.42-.72,2.09-.94,2.89a17.82,17.82,0,0,1-.78,1.86A11.43,11.43,0,0,0,154,175a24,24,0,0,1-.43,2.47c-.35.86-.89,1.66-1.31,2.47l-.18.28c-.2.32-.46.78-.37,1s1.19.15,1.44,0a2.27,2.27,0,0,0,.65-1.24c.18-.64.3-1.35.44-1.71a5.8,5.8,0,0,1,1.44-2.65c.88-.73,1-1.57,1.3-2.7a16,16,0,0,1,1-2.45,8,8,0,0,1,1.51-1.94l.4-.28a5.49,5.49,0,0,1,1.46,2.34c.66,2.42,1.66,4.58,2.08,7a14.1,14.1,0,0,1,.13,1.74,2.52,2.52,0,0,1-.16.79,2,2,0,0,0-.15.77c0,.54.68.23,1.26.21s.54-.08.41-.75c0-.14,0-.28-.07-.42-.17-1-.3-1.92-.38-2.95s.25-2.18.15-3.23c-.24-2-2-3.82-1.88-5.86a2.08,2.08,0,0,1,.23-1l.07-.23a10.92,10.92,0,0,0,4.11-.56c1.71-.46,4.19-1.61,6-1.68a1.92,1.92,0,0,1,.64.1,7.26,7.26,0,0,0,1.18,5.64c1.39,1.9,1.87,3.24.91,5.57-.55,1.34-.67,1.91-1,2.85a3.62,3.62,0,0,1-.66.88,3.11,3.11,0,0,0-.32.42c-.41.61-.38.58.3.68s1,.25,1.28-.38a3.65,3.65,0,0,0,.18-.56,3,3,0,0,1,.25-.75,19.93,19.93,0,0,0,1.21-2.6c.32-.86.6-1.15.87-2l.06.76a12.94,12.94,0,0,1-.31,3.22,10.66,10.66,0,0,1-.57,1.54,3.25,3.25,0,0,0-.31,1.29,10.09,10.09,0,0,0,1.15.13c.55,0,.45.12.55-.45,0-.34.06-.67.07-1a12,12,0,0,1,.13-1.67,15.05,15.05,0,0,1,1-3.15c.35-.82-.14-1.79-.29-2.62-.61-2.57,0-5.26.08-7.84l.15-.84.15.33a7.16,7.16,0,0,1,.42,2.74,3.06,3.06,0,0,0,.12,1.56c.21.64.71,1.11.76,1.77C181.18,169.17,181.61,168.67,181.2,167.71Z" />
			<path class="cls-36" d="M33,178.56a17.73,17.73,0,0,0,2-.38,14.3,14.3,0,0,1-5.58-1.27h1.22c-1-.33-2.57-2.86-3.59-4.59-.64-2-2.42-4.06-4.51-5.9a15,15,0,0,1-4.26-5.51l.59.22-1.15-1.31.55.13a12.33,12.33,0,0,1-1.25-2.11,1.25,1.25,0,0,0,1,.12.24.24,0,0,0,.15-.32l-1.15-3.19s.32-2.32-.58-3a6.12,6.12,0,0,1-1.31-3.58.83.83,0,0,0-.12-.78c-.23-.2-.68-.47-1,0-.3.2-.73.48-.85.81a.42.42,0,0,0,0,.16l-.18.15.17.06c-.08.6-.48.57-.75.48l.06-.18-.28.07h0a.09.09,0,0,0-.13,0c-.2.14-.58.47-.52.86a3.15,3.15,0,0,1,0,2.91L10,154.13l-.81.47.92.11-1.38,1.12,1.12-.4L9.07,157l.93-.88s-.86,1.64-.74,5.41,2.24,6.6,2.32,7.36-.62,2.08-.47,3.68a8.35,8.35,0,0,1-1.14,4.1c-1.21-.31-1.62.22-1.77.63a.17.17,0,0,0,0,.07.75.75,0,0,0-.06.13.36.36,0,0,0,.35.46h2.22a.5.5,0,0,0,.4.78c.54,0,1.46,0,2.63,0a.49.49,0,0,0,.46-.41,21.08,21.08,0,0,1,1.6-4.22s.43-.12,1.9,1c.14.76.93,1.23,1.16,1.49s.08.43.08.43a3,3,0,0,0-1.52-.13.53.53,0,0,0,.09,1.05H19a.69.69,0,0,0-.48.15.49.49,0,0,0,.36.82h5.88c1.11,0,1.44-.24,1.9-2.39a20.77,20.77,0,0,1,1.3,3.86l.1-.91c.2,1,2,2,2,2l-.51-1s.26.51,2,.56,3.8-1.58,5.42.45C37.28,179.39,34.36,178.75,33,178.56ZM13.38,148.34a2,2,0,0,1,.06.45l-.21.19.19.05a.26.26,0,0,1-.29.25,1,1,0,0,1-.33-.09l0-.17-.19.08a.59.59,0,0,1-.17-.22A.61.61,0,0,0,13.38,148.34Zm-1,29.12a1.44,1.44,0,0,0-1-.17,20,20,0,0,0,2-4.88A22.42,22.42,0,0,1,12.42,177.46Z" />
		</g>
	</g>
</svg>
