<svg xmlns="http://www.w3.org/2000/svg" viewBox="0 0 28.93 34.51"><defs><style>.cls-1{fill:#686868;}</style></defs><g id="Layer_2" data-name="Layer 2"><g id="Layer_1-2" data-name="Layer 1"><path class="cls-1" d="M24.89,31.7a17.78,17.78,0,0,0,2.05-.38,14.24,14.24,0,0,1-5.58-1.27h1.21c-.95-.33-2.57-2.86-3.58-4.59-.64-2-2.42-4.06-4.51-5.9a15,15,0,0,1-4.26-5.51l.59.22L9.66,13l.55.13A12.12,12.12,0,0,1,9,11a1.25,1.25,0,0,0,1,.12.24.24,0,0,0,.15-.32L9,7.59s.31-2.32-.59-3A6.15,6.15,0,0,1,7.1,1,.81.81,0,0,0,7,.26c-.22-.2-.67-.47-1,0-.3.2-.73.48-.85.81a.26.26,0,0,0,0,.16L5,1.38l.17.06c-.08.6-.48.57-.75.48l.05-.18-.28.07h0A.08.08,0,0,0,4,1.75c-.19.14-.58.47-.52.86a3.15,3.15,0,0,1,0,2.91L1.91,7.27l-.81.47L2,7.85.64,9l1.12-.4L1,10.11l.92-.88S1,10.87,1.17,14.64,3.4,21.24,3.48,22,2.87,24.08,3,25.68a8.36,8.36,0,0,1-1.13,4.1C.67,29.47.25,30,.11,30.41l0,.07a.69.69,0,0,0,0,.13.35.35,0,0,0,.34.46H2.58a.5.5,0,0,0,.41.78c.54,0,1.45,0,2.62,0a.51.51,0,0,0,.47-.41,20.44,20.44,0,0,1,1.6-4.22s.42-.12,1.9,1c.14.77.93,1.23,1.15,1.49s.08.43.08.43A3,3,0,0,0,9.29,30,.54.54,0,0,0,9.39,31h1.53a.68.68,0,0,0-.47.15.48.48,0,0,0,.35.82h5.88c1.12,0,1.45-.24,1.91-2.39a21.24,21.24,0,0,1,1.29,3.86l.11-.91c.2,1,2,2,2,2l-.5-1s.25.51,2,.56,3.79-1.57,5.42.45C29.19,32.53,26.27,31.89,24.89,31.7ZM5.29,1.48a2.88,2.88,0,0,1,.06.45l-.21.19.19,0c0,.15-.12.26-.29.25a1,1,0,0,1-.34-.09l.06-.17-.2.08A.62.62,0,0,1,4.4,2,.61.61,0,0,0,5.29,1.48Zm-1,29.12a1.41,1.41,0,0,0-1-.17,20,20,0,0,0,2-4.88A22.28,22.28,0,0,1,4.32,30.6Z"/></g></g></svg>