<svg width="181.951" height="181.958" xmlns="http://www.w3.org/2000/svg">

 <g>
  <title>background</title>
  <rect fill="none" id="canvas_background" height="183.958" width="183.951" y="-1" x="-1"/>
 </g>
 <g>
  <title>Layer 1</title>
  <g id="Group_28">
   <g id="Group_2">
    <path fill="#9B7564" d="m171.08607,88.69099l-37.845,0a10.115,10.115 0 0 1 -10.115,-10.115l0,0l0,-8.81a10.115,10.115 0 0 0 -10.116,-10.115l-8.809,0a10.114,10.114 0 0 1 -10.115,-10.113l0,-37.848a10.115,10.115 0 0 1 10.115,-10.115l66.885,0a10.115,10.115 0 0 1 10.116,10.115l0,0l0,66.885a10.115,10.115 0 0 1 -10.116,10.116z" id="Path_1"/>
    <path fill="#9B7564" d="m47.96108,59.65099l-8.8,0a10.115,10.115 0 0 1 -10.116,-10.116l0,0l0,-8.8a10.115,10.115 0 0 1 10.116,-10.116l8.8,0a10.115,10.115 0 0 1 10.115,10.116l0,0l0,8.8a10.115,10.115 0 0 0 10.116,10.116l8.81,0a10.115,10.115 0 0 0 10.116,-10.116l0,0l0,-37.845a10.115,10.115 0 0 0 -10.116,-10.115l-66.886,0a10.115,10.115 0 0 0 -10.115,10.115l0,0l0,66.885a10.115,10.115 0 0 0 10.115,10.115l37.845,0a10.117,10.117 0 0 0 10.117,-10.115l0,0l0,-8.809a10.116,10.116 0 0 0 -10.116,-10.115l-0.001,0z" id="Path_2"/>
    <g id="Group_1">
     <path fill="#9B7564" d="m171.08491,122.88197l-8.807,0a10.115,10.115 0 0 1 -10.116,-10.112l0,-8.817a10.116,10.116 0 0 0 -10.115,-10.115l-8.807,0a10.117,10.117 0 0 0 -10.115,10.115l0,8.813a10.113,10.113 0 0 1 -10.111,10.115l-8.811,0a10.115,10.115 0 0 0 -10.117,10.112l0,37.848a10.1,10.1 0 0 0 10.117,10.115l66.881,0a10.1,10.1 0 0 0 10.116,-10.115l0,-37.844a10.114,10.114 0 0 0 -10.111,-10.115l-0.004,0z" id="Path_3"/>
    </g>
    <path fill="#9B7564" d="m87.11708,132.99601l0,37.845a10.116,10.116 0 0 1 -10.116,10.115l-37.848,0a10.115,10.115 0 0 1 -10.115,-10.115l0,0l0,-8.809a10.115,10.115 0 0 0 -10.113,-10.116l-8.812,0a10.116,10.116 0 0 1 -10.116,-10.115l0,0l0,-37.845a10.116,10.116 0 0 1 10.116,-10.114l37.845,0a10.115,10.115 0 0 1 10.116,10.114l0,8.809a10.115,10.115 0 0 0 10.115,10.116l8.811,0a10.116,10.116 0 0 1 10.116,10.115l0.001,0z" id="Path_4"/>
   </g>
  </g>
 </g>
</svg>